<ttFont>
    <TTGlyph name=".notdef" xMin="102" yMin="0" xMax="922" yMax="1462">
      <contour>
        <pt x="102" y="0" on="1"/>
        <pt x="102" y="1462" on="1"/>
        <pt x="922" y="1462" on="1"/>
        <pt x="922" y="0" on="1"/>
      </contour>
      <contour>
        <pt x="201" y="98" on="1"/>
        <pt x="823" y="98" on="1"/>
        <pt x="823" y="1364" on="1"/>
        <pt x="201" y="1364" on="1"/>
      </contour>
    </TTGlyph>
    <TTGlyph name="uni10A0" xMin="82" yMin="-20" xMax="1526" yMax="1483">
      <contour>
        <pt x="444" y="1305" on="1"/>
        <pt x="528" y="1305" on="0"/>
        <pt x="701" y="1344" on="0"/>
        <pt x="836" y="1394" on="1"/>
        <pt x="960" y="1440" on="0"/>
        <pt x="1174" y="1483" on="0"/>
        <pt x="1286" y="1483" on="1"/>
        <pt x="1391" y="1483" on="0"/>
        <pt x="1526" y="1373" on="0"/>
        <pt x="1526" y="1286" on="1"/>
        <pt x="1526" y="1206" on="0"/>
        <pt x="1413" y="1112" on="0"/>
        <pt x="1300" y="1112" on="1"/>
        <pt x="1300" y="1218" on="0"/>
        <pt x="1225" y="1337" on="0"/>
        <pt x="1155" y="1337" on="1"/>
        <pt x="1048" y="1337" on="0"/>
        <pt x="784" y="1239" on="0"/>
        <pt x="617" y="1125" on="0"/>
        <pt x="518" y="968" on="0"/>
        <pt x="477" y="750" on="0"/>
        <pt x="477" y="604" on="1"/>
        <pt x="477" y="359" on="0"/>
        <pt x="656" y="113" on="0"/>
        <pt x="827" y="113" on="1"/>
        <pt x="1005" y="113" on="0"/>
        <pt x="1176" y="350" on="0"/>
        <pt x="1176" y="602" on="1"/>
        <pt x="1176" y="860" on="1"/>
        <pt x="1339" y="860" on="0"/>
        <pt x="1520" y="711" on="0"/>
        <pt x="1520" y="571" on="1"/>
        <pt x="1520" y="394" on="0"/>
        <pt x="1354" y="126" on="0"/>
        <pt x="1039" y="-20" on="0"/>
        <pt x="827" y="-20" on="1"/>
        <pt x="494" y="-20" on="0"/>
        <pt x="133" y="334" on="0"/>
        <pt x="133" y="655" on="1"/>
        <pt x="133" y="806" on="0"/>
        <pt x="281" y="1077" on="0"/>
        <pt x="416" y="1169" on="1"/>
        <pt x="370" y="1165" on="0"/>
        <pt x="322" y="1165" on="1"/>
        <pt x="218" y="1165" on="0"/>
        <pt x="82" y="1257" on="0"/>
        <pt x="82" y="1329" on="1"/>
        <pt x="82" y="1401" on="0"/>
        <pt x="195" y="1483" on="0"/>
        <pt x="307" y="1483" on="1"/>
        <pt x="307" y="1387" on="0"/>
        <pt x="373" y="1305" on="0"/>
      </contour>
    </TTGlyph>
    <TTGlyph name="uni10A1" xMin="102" yMin="0" xMax="1255" yMax="1462">
      <contour>
        <pt x="649" y="1354" on="1"/>
        <pt x="544" y="1354" on="0"/>
        <pt x="446" y="1178" on="0"/>
        <pt x="446" y="969" on="1"/>
        <pt x="446" y="792" on="0"/>
        <pt x="563" y="639" on="0"/>
        <pt x="690" y="639" on="1"/>
        <pt x="932" y="639" on="0"/>
        <pt x="932" y="950" on="1"/>
        <pt x="932" y="1221" on="1"/>
        <pt x="932" y="1290" on="0"/>
        <pt x="887" y="1354" on="0"/>
        <pt x="827" y="1354" on="1"/>
        <pt x="793" y="1354" on="1"/>
        <pt x="793" y="1462" on="1"/>
        <pt x="1255" y="1462" on="1"/>
        <pt x="1255" y="0" on="1"/>
        <pt x="932" y="0" on="1"/>
        <pt x="932" y="383" on="1"/>
        <pt x="932" y="443" on="0"/>
        <pt x="948" y="631" on="1"/>
        <pt x="934" y="631" on="1"/>
        <pt x="877" y="544" on="0"/>
        <pt x="700" y="467" on="0"/>
        <pt x="569" y="467" on="1"/>
        <pt x="344" y="467" on="0"/>
        <pt x="102" y="726" on="0"/>
        <pt x="102" y="969" on="1"/>
        <pt x="102" y="1202" on="0"/>
        <pt x="359" y="1462" on="0"/>
        <pt x="590" y="1462" on="1"/>
        <pt x="649" y="1462" on="1"/>
      </contour>
    </TTGlyph>
    <TTGlyph name="uni10A2" xMin="92" yMin="-270" xMax="1651" yMax="1483">
      <contour>
        <pt x="92" y="860" on="1"/>
        <pt x="92" y="1016" on="1"/>
        <pt x="92" y="1483" on="0"/>
        <pt x="678" y="1483" on="1"/>
        <pt x="958" y="1483" on="0"/>
        <pt x="1251" y="1242" on="0"/>
        <pt x="1251" y="1016" on="1"/>
        <pt x="1251" y="127" on="1"/>
        <pt x="1303" y="127" on="1"/>
        <pt x="1467" y="127" on="0"/>
        <pt x="1651" y="16" on="0"/>
        <pt x="1651" y="-84" on="1"/>
        <pt x="1651" y="-165" on="0"/>
        <pt x="1515" y="-270" on="0"/>
        <pt x="1405" y="-270" on="1"/>
        <pt x="1405" y="0" on="0"/>
        <pt x="1190" y="0" on="1"/>
        <pt x="928" y="0" on="1"/>
        <pt x="928" y="1032" on="1"/>
        <pt x="928" y="1181" on="0"/>
        <pt x="795" y="1337" on="0"/>
        <pt x="672" y="1337" on="1"/>
        <pt x="541" y="1337" on="0"/>
        <pt x="416" y="1189" on="0"/>
        <pt x="416" y="1032" on="1"/>
        <pt x="416" y="860" on="1"/>
      </contour>
    </TTGlyph>
    <TTGlyph name="uni10A3" xMin="102" yMin="-20" xMax="1509" yMax="1483">
      <contour>
        <pt x="1499" y="578" on="1"/>
        <pt x="1499" y="398" on="0"/>
        <pt x="1334" y="128" on="0"/>
        <pt x="1020" y="-20" on="0"/>
        <pt x="807" y="-20" on="1"/>
        <pt x="589" y="-20" on="0"/>
        <pt x="276" y="122" on="0"/>
        <pt x="113" y="393" on="0"/>
        <pt x="113" y="580" on="1"/>
        <pt x="113" y="832" on="0"/>
        <pt x="407" y="1130" on="0"/>
        <pt x="686" y="1159" on="1"/>
        <pt x="686" y="1251" on="1"/>
        <pt x="525" y="1217" on="0"/>
        <pt x="342" y="1217" on="1"/>
        <pt x="230" y="1217" on="0"/>
        <pt x="102" y="1293" on="0"/>
        <pt x="102" y="1354" on="1"/>
        <pt x="102" y="1483" on="0"/>
        <pt x="328" y="1483" on="1"/>
        <pt x="328" y="1426" on="0"/>
        <pt x="394" y="1356" on="0"/>
        <pt x="465" y="1356" on="1"/>
        <pt x="551" y="1356" on="0"/>
        <pt x="727" y="1387" on="0"/>
        <pt x="839" y="1420" on="1"/>
        <pt x="1060" y="1483" on="0"/>
        <pt x="1270" y="1483" on="1"/>
        <pt x="1378" y="1483" on="0"/>
        <pt x="1509" y="1405" on="0"/>
        <pt x="1509" y="1343" on="1"/>
        <pt x="1509" y="1217" on="0"/>
        <pt x="1284" y="1217" on="1"/>
        <pt x="1284" y="1273" on="0"/>
        <pt x="1207" y="1343" on="0"/>
        <pt x="1149" y="1343" on="1"/>
        <pt x="1061" y="1343" on="0"/>
        <pt x="926" y="1313" on="1"/>
        <pt x="926" y="1159" on="1"/>
        <pt x="1201" y="1129" on="0"/>
        <pt x="1499" y="822" on="0"/>
      </contour>
      <contour>
        <pt x="457" y="578" on="1"/>
        <pt x="457" y="342" on="0"/>
        <pt x="632" y="113" on="0"/>
        <pt x="807" y="113" on="1"/>
        <pt x="982" y="113" on="0"/>
        <pt x="1155" y="340" on="0"/>
        <pt x="1155" y="578" on="1"/>
        <pt x="1155" y="815" on="0"/>
        <pt x="984" y="1042" on="0"/>
        <pt x="809" y="1042" on="1"/>
        <pt x="632" y="1042" on="0"/>
        <pt x="457" y="814" on="0"/>
      </contour>
    </TTGlyph>
    <TTGlyph name="uni10A4" xMin="92" yMin="0" xMax="1251" yMax="1483">
      <contour>
        <pt x="928" y="0" on="1"/>
        <pt x="928" y="1032" on="1"/>
        <pt x="928" y="1181" on="0"/>
        <pt x="795" y="1337" on="0"/>
        <pt x="672" y="1337" on="1"/>
        <pt x="541" y="1337" on="0"/>
        <pt x="416" y="1189" on="0"/>
        <pt x="416" y="1032" on="1"/>
        <pt x="416" y="860" on="1"/>
        <pt x="92" y="860" on="1"/>
        <pt x="92" y="1016" on="1"/>
        <pt x="92" y="1483" on="0"/>
        <pt x="678" y="1483" on="1"/>
        <pt x="958" y="1483" on="0"/>
        <pt x="1251" y="1242" on="0"/>
        <pt x="1251" y="1016" on="1"/>
        <pt x="1251" y="0" on="1"/>
      </contour>
    </TTGlyph>
    <TTGlyph name="uni10A5" xMin="92" yMin="0" xMax="1712" yMax="1483">
      <contour>
        <pt x="92" y="860" on="1"/>
        <pt x="92" y="1016" on="1"/>
        <pt x="92" y="1483" on="0"/>
        <pt x="678" y="1483" on="1"/>
        <pt x="958" y="1483" on="0"/>
        <pt x="1251" y="1242" on="0"/>
        <pt x="1251" y="1016" on="1"/>
        <pt x="1251" y="848" on="1"/>
        <pt x="1364" y="848" on="1"/>
        <pt x="1473" y="848" on="0"/>
        <pt x="1631" y="798" on="0"/>
        <pt x="1712" y="709" on="0"/>
        <pt x="1712" y="651" on="1"/>
        <pt x="1712" y="562" on="0"/>
        <pt x="1581" y="451" on="0"/>
        <pt x="1466" y="451" on="1"/>
        <pt x="1466" y="710" on="0"/>
        <pt x="1251" y="721" on="1"/>
        <pt x="1251" y="0" on="1"/>
        <pt x="928" y="0" on="1"/>
        <pt x="928" y="1032" on="1"/>
        <pt x="928" y="1181" on="0"/>
        <pt x="795" y="1337" on="0"/>
        <pt x="672" y="1337" on="1"/>
        <pt x="541" y="1337" on="0"/>
        <pt x="416" y="1189" on="0"/>
        <pt x="416" y="1032" on="1"/>
        <pt x="416" y="860" on="1"/>
      </contour>
    </TTGlyph>
    <TTGlyph name="uni10A6" xMin="31" yMin="-20" xMax="1415" yMax="1462">
      <contour>
        <pt x="864" y="950" on="1"/>
        <pt x="746" y="950" on="0"/>
        <pt x="641" y="765" on="0"/>
        <pt x="641" y="532" on="1"/>
        <pt x="641" y="303" on="0"/>
        <pt x="749" y="113" on="0"/>
        <pt x="866" y="113" on="1"/>
        <pt x="975" y="113" on="0"/>
        <pt x="1071" y="330" on="0"/>
        <pt x="1071" y="535" on="1"/>
        <pt x="1071" y="743" on="0"/>
        <pt x="975" y="950" on="0"/>
      </contour>
      <contour>
        <pt x="317" y="1317" on="1"/>
        <pt x="31" y="1317" on="1"/>
        <pt x="31" y="1462" on="1"/>
        <pt x="641" y="1462" on="1"/>
        <pt x="641" y="1206" on="1"/>
        <pt x="641" y="1146" on="0"/>
        <pt x="625" y="958" on="1"/>
        <pt x="639" y="958" on="1"/>
        <pt x="693" y="1044" on="0"/>
        <pt x="852" y="1122" on="0"/>
        <pt x="965" y="1122" on="1"/>
        <pt x="1187" y="1122" on="0"/>
        <pt x="1415" y="836" on="0"/>
        <pt x="1415" y="553" on="1"/>
        <pt x="1415" y="275" on="0"/>
        <pt x="1125" y="-20" on="0"/>
        <pt x="852" y="-20" on="1"/>
        <pt x="595" y="-20" on="0"/>
        <pt x="317" y="276" on="0"/>
        <pt x="317" y="553" on="1"/>
      </contour>
    </TTGlyph>
    <TTGlyph name="uni10A7" xMin="113" yMin="0" xMax="1784" yMax="1462">
      <contour>
        <pt x="1323" y="848" on="1"/>
        <pt x="1436" y="848" on="1"/>
        <pt x="1603" y="848" on="0"/>
        <pt x="1784" y="733" on="0"/>
        <pt x="1784" y="623" on="1"/>
        <pt x="1784" y="550" on="0"/>
        <pt x="1644" y="451" on="0"/>
        <pt x="1538" y="451" on="1"/>
        <pt x="1538" y="710" on="0"/>
        <pt x="1323" y="721" on="1"/>
        <pt x="1323" y="0" on="1"/>
        <pt x="838" y="0" on="1"/>
        <pt x="613" y="0" on="0"/>
        <pt x="285" y="182" on="0"/>
        <pt x="113" y="524" on="0"/>
        <pt x="113" y="758" on="1"/>
        <pt x="113" y="1098" on="0"/>
        <pt x="488" y="1462" on="0"/>
        <pt x="838" y="1462" on="1"/>
        <pt x="1323" y="1462" on="1"/>
      </contour>
      <contour>
        <pt x="459" y="758" on="1"/>
        <pt x="459" y="457" on="0"/>
        <pt x="680" y="127" on="0"/>
        <pt x="885" y="127" on="1"/>
        <pt x="999" y="127" on="1"/>
        <pt x="999" y="1337" on="1"/>
        <pt x="883" y="1337" on="1"/>
        <pt x="459" y="1337" on="0"/>
      </contour>
    </TTGlyph>
    <TTGlyph name="uni10A8" xMin="31" yMin="0" xMax="846" yMax="1462">
      <contour>
        <pt x="846" y="0" on="1"/>
        <pt x="522" y="0" on="1"/>
        <pt x="522" y="1317" on="1"/>
        <pt x="31" y="1317" on="1"/>
        <pt x="31" y="1462" on="1"/>
        <pt x="846" y="1462" on="1"/>
      </contour>
    </TTGlyph>
    <TTGlyph name="uni10A9" xMin="35" yMin="-492" xMax="1300" yMax="1462">
      <contour>
        <pt x="528" y="553" on="1"/>
        <pt x="528" y="332" on="0"/>
        <pt x="635" y="113" on="0"/>
        <pt x="754" y="113" on="1"/>
        <pt x="872" y="113" on="0"/>
        <pt x="977" y="332" on="0"/>
        <pt x="977" y="553" on="1"/>
        <pt x="977" y="774" on="0"/>
        <pt x="870" y="991" on="0"/>
        <pt x="752" y="991" on="1"/>
        <pt x="633" y="991" on="0"/>
        <pt x="528" y="774" on="0"/>
      </contour>
      <contour>
        <pt x="977" y="-492" on="1"/>
        <pt x="977" y="-143" on="1"/>
        <pt x="977" y="-82" on="0"/>
        <pt x="993" y="94" on="1"/>
        <pt x="979" y="94" on="1"/>
        <pt x="894" y="-20" on="0"/>
        <pt x="678" y="-20" on="1"/>
        <pt x="543" y="-20" on="0"/>
        <pt x="325" y="120" on="0"/>
        <pt x="205" y="381" on="0"/>
        <pt x="205" y="553" on="1"/>
        <pt x="205" y="1217" on="1"/>
        <pt x="205" y="1286" on="0"/>
        <pt x="132" y="1354" on="0"/>
        <pt x="43" y="1354" on="1"/>
        <pt x="35" y="1354" on="1"/>
        <pt x="35" y="1462" on="1"/>
        <pt x="528" y="1462" on="1"/>
        <pt x="528" y="1206" on="1"/>
        <pt x="528" y="1142" on="0"/>
        <pt x="512" y="1010" on="1"/>
        <pt x="526" y="1010" on="1"/>
        <pt x="612" y="1124" on="0"/>
        <pt x="827" y="1124" on="1"/>
        <pt x="963" y="1124" on="0"/>
        <pt x="1179" y="985" on="0"/>
        <pt x="1300" y="724" on="0"/>
        <pt x="1300" y="553" on="1"/>
        <pt x="1300" y="-492" on="1"/>
      </contour>
    </TTGlyph>
    <TTGlyph name="uni10AA" xMin="20" yMin="-20" xMax="1634" yMax="1462">
      <contour>
        <pt x="489" y="1339" on="1"/>
        <pt x="369" y="1339" on="0"/>
        <pt x="234" y="1251" on="0"/>
        <pt x="165" y="1052" on="0"/>
        <pt x="158" y="881" on="1"/>
        <pt x="20" y="881" on="1"/>
        <pt x="20" y="1462" on="1"/>
        <pt x="862" y="1462" on="1"/>
        <pt x="862" y="1153" on="1"/>
        <pt x="862" y="1078" on="0"/>
        <pt x="846" y="1010" on="1"/>
        <pt x="860" y="1010" on="1"/>
        <pt x="945" y="1124" on="0"/>
        <pt x="1161" y="1124" on="1"/>
        <pt x="1297" y="1124" on="0"/>
        <pt x="1513" y="985" on="0"/>
        <pt x="1634" y="724" on="0"/>
        <pt x="1634" y="553" on="1"/>
        <pt x="1634" y="273" on="0"/>
        <pt x="1345" y="-20" on="0"/>
        <pt x="1073" y="-20" on="1"/>
        <pt x="817" y="-20" on="0"/>
        <pt x="541" y="274" on="0"/>
        <pt x="539" y="553" on="1"/>
        <pt x="539" y="1337" on="1"/>
      </contour>
      <contour>
        <pt x="862" y="553" on="1"/>
        <pt x="862" y="321" on="0"/>
        <pt x="966" y="113" on="0"/>
        <pt x="1077" y="113" on="1"/>
        <pt x="1188" y="113" on="0"/>
        <pt x="1290" y="320" on="0"/>
        <pt x="1290" y="553" on="1"/>
        <pt x="1290" y="782" on="0"/>
        <pt x="1189" y="991" on="0"/>
        <pt x="1075" y="991" on="1"/>
        <pt x="964" y="991" on="0"/>
        <pt x="862" y="787" on="0"/>
      </contour>
    </TTGlyph>
    <TTGlyph name="uni10AB" xMin="61" yMin="-20" xMax="1620" yMax="1462">
      <contour>
        <pt x="236" y="1317" on="1"/>
        <pt x="236" y="1462" on="1"/>
        <pt x="1159" y="1462" on="1"/>
        <pt x="1159" y="926" on="1"/>
        <pt x="1272" y="926" on="1"/>
        <pt x="1441" y="926" on="0"/>
        <pt x="1620" y="809" on="0"/>
        <pt x="1620" y="700" on="1"/>
        <pt x="1620" y="627" on="0"/>
        <pt x="1480" y="528" on="0"/>
        <pt x="1374" y="528" on="1"/>
        <pt x="1374" y="788" on="0"/>
        <pt x="1159" y="799" on="1"/>
        <pt x="1159" y="485" on="1"/>
        <pt x="1159" y="-20" on="0"/>
        <pt x="616" y="-20" on="1"/>
        <pt x="348" y="-20" on="0"/>
        <pt x="61" y="224" on="0"/>
        <pt x="61" y="446" on="1"/>
        <pt x="61" y="684" on="0"/>
        <pt x="388" y="926" on="0"/>
        <pt x="707" y="926" on="1"/>
        <pt x="836" y="926" on="1"/>
        <pt x="836" y="1317" on="1"/>
      </contour>
      <contour>
        <pt x="836" y="793" on="1"/>
        <pt x="698" y="793" on="1"/>
        <pt x="589" y="793" on="0"/>
        <pt x="462" y="727" on="0"/>
        <pt x="406" y="586" on="0"/>
        <pt x="406" y="446" on="1"/>
        <pt x="406" y="113" on="0"/>
        <pt x="621" y="113" on="1"/>
        <pt x="726" y="113" on="0"/>
        <pt x="836" y="294" on="0"/>
        <pt x="836" y="471" on="1"/>
      </contour>
    </TTGlyph>
    <TTGlyph name="uni10AC" xMin="45" yMin="0" xMax="1350" yMax="1462">
      <contour>
        <pt x="539" y="1079" on="1"/>
        <pt x="539" y="1031" on="0"/>
        <pt x="522" y="831" on="1"/>
        <pt x="537" y="831" on="1"/>
        <pt x="590" y="916" on="0"/>
        <pt x="770" y="995" on="0"/>
        <pt x="901" y="995" on="1"/>
        <pt x="1123" y="995" on="0"/>
        <pt x="1350" y="745" on="0"/>
        <pt x="1350" y="506" on="1"/>
        <pt x="1350" y="0" on="1"/>
        <pt x="1026" y="0" on="1"/>
        <pt x="1026" y="500" on="1"/>
        <pt x="1026" y="668" on="0"/>
        <pt x="911" y="823" on="0"/>
        <pt x="780" y="823" on="1"/>
        <pt x="539" y="823" on="0"/>
        <pt x="539" y="512" on="1"/>
        <pt x="539" y="0" on="1"/>
        <pt x="215" y="0" on="1"/>
        <pt x="215" y="1221" on="1"/>
        <pt x="215" y="1290" on="0"/>
        <pt x="170" y="1354" on="0"/>
        <pt x="111" y="1354" on="1"/>
        <pt x="45" y="1354" on="1"/>
        <pt x="45" y="1462" on="1"/>
        <pt x="1262" y="1462" on="1"/>
        <pt x="1262" y="1317" on="1"/>
        <pt x="539" y="1317" on="1"/>
      </contour>
    </TTGlyph>
    <TTGlyph name="uni10AD" xMin="113" yMin="-358" xMax="1499" yMax="1485">
      <contour>
        <pt x="1499" y="733" on="1"/>
        <pt x="1499" y="366" on="0"/>
        <pt x="1266" y="133" on="1"/>
        <pt x="1174" y="55" on="0"/>
        <pt x="1174" y="-63" on="1"/>
        <pt x="1174" y="-118" on="0"/>
        <pt x="1239" y="-178" on="0"/>
        <pt x="1286" y="-178" on="1"/>
        <pt x="1324" y="-178" on="0"/>
        <pt x="1381" y="-159" on="0"/>
        <pt x="1411" y="-129" on="1"/>
        <pt x="1425" y="-143" on="0"/>
        <pt x="1442" y="-194" on="0"/>
        <pt x="1442" y="-215" on="1"/>
        <pt x="1442" y="-288" on="0"/>
        <pt x="1306" y="-358" on="0"/>
        <pt x="1188" y="-358" on="1"/>
        <pt x="1087" y="-358" on="0"/>
        <pt x="946" y="-233" on="0"/>
        <pt x="946" y="-150" on="1"/>
        <pt x="946" y="-71" on="0"/>
        <pt x="991" y="0" on="1"/>
        <pt x="895" y="-20" on="0"/>
        <pt x="807" y="-20" on="1"/>
        <pt x="586" y="-20" on="0"/>
        <pt x="274" y="158" on="0"/>
        <pt x="113" y="500" on="0"/>
        <pt x="113" y="735" on="1"/>
        <pt x="113" y="1094" on="0"/>
        <pt x="475" y="1485" on="0"/>
        <pt x="809" y="1485" on="1"/>
        <pt x="1132" y="1485" on="0"/>
        <pt x="1499" y="1083" on="0"/>
      </contour>
      <contour>
        <pt x="457" y="733" on="1"/>
        <pt x="457" y="416" on="0"/>
        <pt x="630" y="113" on="0"/>
        <pt x="807" y="113" on="1"/>
        <pt x="985" y="113" on="0"/>
        <pt x="1155" y="414" on="0"/>
        <pt x="1155" y="733" on="1"/>
        <pt x="1155" y="1051" on="0"/>
        <pt x="986" y="1352" on="0"/>
        <pt x="809" y="1352" on="1"/>
        <pt x="630" y="1352" on="0"/>
        <pt x="457" y="1050" on="0"/>
      </contour>
    </TTGlyph>
    <TTGlyph name="uni10AE" xMin="31" yMin="-20" xMax="1681" yMax="1462">
      <contour>
        <pt x="846" y="430" on="1"/>
        <pt x="846" y="274" on="0"/>
        <pt x="971" y="125" on="0"/>
        <pt x="1102" y="125" on="1"/>
        <pt x="1225" y="125" on="0"/>
        <pt x="1358" y="281" on="0"/>
        <pt x="1358" y="430" on="1"/>
        <pt x="1358" y="1229" on="1"/>
        <pt x="1358" y="1292" on="0"/>
        <pt x="1307" y="1354" on="0"/>
        <pt x="1241" y="1354" on="1"/>
        <pt x="1143" y="1354" on="1"/>
        <pt x="1143" y="1462" on="1"/>
        <pt x="1681" y="1462" on="1"/>
        <pt x="1681" y="446" on="1"/>
        <pt x="1681" y="213" on="0"/>
        <pt x="1396" y="-20" on="0"/>
        <pt x="1102" y="-20" on="1"/>
        <pt x="809" y="-20" on="0"/>
        <pt x="522" y="212" on="0"/>
        <pt x="522" y="446" on="1"/>
        <pt x="522" y="1317" on="1"/>
        <pt x="31" y="1317" on="1"/>
        <pt x="31" y="1462" on="1"/>
        <pt x="846" y="1462" on="1"/>
      </contour>
    </TTGlyph>
    <TTGlyph name="uni10AF" xMin="31" yMin="0" xMax="1358" yMax="1462">
      <contour>
        <pt x="752" y="1354" on="1"/>
        <pt x="644" y="1354" on="0"/>
        <pt x="549" y="1174" on="0"/>
        <pt x="549" y="969" on="1"/>
        <pt x="549" y="792" on="0"/>
        <pt x="666" y="639" on="0"/>
        <pt x="793" y="639" on="1"/>
        <pt x="1034" y="639" on="0"/>
        <pt x="1034" y="950" on="1"/>
        <pt x="1034" y="1221" on="1"/>
        <pt x="1034" y="1290" on="0"/>
        <pt x="989" y="1354" on="0"/>
        <pt x="930" y="1354" on="1"/>
        <pt x="895" y="1354" on="1"/>
        <pt x="895" y="1462" on="1"/>
        <pt x="1358" y="1462" on="1"/>
        <pt x="1358" y="0" on="1"/>
        <pt x="1034" y="0" on="1"/>
        <pt x="1034" y="383" on="1"/>
        <pt x="1034" y="471" on="0"/>
        <pt x="1051" y="631" on="1"/>
        <pt x="1036" y="631" on="1"/>
        <pt x="983" y="546" on="0"/>
        <pt x="803" y="467" on="0"/>
        <pt x="672" y="467" on="1"/>
        <pt x="451" y="467" on="0"/>
        <pt x="205" y="712" on="0"/>
        <pt x="205" y="934" on="1"/>
        <pt x="205" y="1058" on="0"/>
        <pt x="293" y="1261" on="0"/>
        <pt x="377" y="1317" on="1"/>
        <pt x="31" y="1317" on="1"/>
        <pt x="31" y="1462" on="1"/>
        <pt x="752" y="1462" on="1"/>
      </contour>
    </TTGlyph>
    <TTGlyph name="uni10B0" xMin="92" yMin="-20" xMax="1712" yMax="1462">
      <contour>
        <pt x="1251" y="1462" on="1"/>
        <pt x="1251" y="848" on="1"/>
        <pt x="1364" y="848" on="1"/>
        <pt x="1531" y="848" on="0"/>
        <pt x="1712" y="733" on="0"/>
        <pt x="1712" y="623" on="1"/>
        <pt x="1712" y="550" on="0"/>
        <pt x="1572" y="451" on="0"/>
        <pt x="1466" y="451" on="1"/>
        <pt x="1466" y="710" on="0"/>
        <pt x="1251" y="721" on="1"/>
        <pt x="1251" y="446" on="1"/>
        <pt x="1251" y="218" on="0"/>
        <pt x="956" y="-20" on="0"/>
        <pt x="678" y="-20" on="1"/>
        <pt x="92" y="-20" on="0"/>
        <pt x="92" y="446" on="1"/>
        <pt x="92" y="655" on="1"/>
        <pt x="416" y="655" on="1"/>
        <pt x="416" y="430" on="1"/>
        <pt x="416" y="274" on="0"/>
        <pt x="541" y="125" on="0"/>
        <pt x="672" y="125" on="1"/>
        <pt x="795" y="125" on="0"/>
        <pt x="928" y="281" on="0"/>
        <pt x="928" y="430" on="1"/>
        <pt x="928" y="1462" on="1"/>
      </contour>
    </TTGlyph>
    <TTGlyph name="uni10B1" xMin="33" yMin="-20" xMax="1384" yMax="1462">
      <contour>
        <pt x="1384" y="655" on="1"/>
        <pt x="1384" y="446" on="1"/>
        <pt x="1384" y="217" on="0"/>
        <pt x="1088" y="-20" on="0"/>
        <pt x="811" y="-20" on="1"/>
        <pt x="225" y="-20" on="0"/>
        <pt x="225" y="446" on="1"/>
        <pt x="225" y="1229" on="1"/>
        <pt x="225" y="1293" on="0"/>
        <pt x="177" y="1354" on="0"/>
        <pt x="121" y="1354" on="1"/>
        <pt x="33" y="1354" on="1"/>
        <pt x="33" y="1462" on="1"/>
        <pt x="549" y="1462" on="1"/>
        <pt x="549" y="430" on="1"/>
        <pt x="549" y="274" on="0"/>
        <pt x="674" y="125" on="0"/>
        <pt x="805" y="125" on="1"/>
        <pt x="928" y="125" on="0"/>
        <pt x="1061" y="281" on="0"/>
        <pt x="1061" y="430" on="1"/>
        <pt x="1061" y="655" on="1"/>
      </contour>
    </TTGlyph>
    <TTGlyph name="uni10B2" xMin="23" yMin="-262" xMax="1212" yMax="1462">
      <contour>
        <pt x="811" y="125" on="1"/>
        <pt x="982" y="125" on="0"/>
        <pt x="1159" y="22" on="0"/>
        <pt x="1159" y="-76" on="1"/>
        <pt x="1159" y="-162" on="0"/>
        <pt x="1037" y="-262" on="0"/>
        <pt x="934" y="-262" on="1"/>
        <pt x="934" y="-120" on="0"/>
        <pt x="817" y="0" on="0"/>
        <pt x="676" y="0" on="1"/>
        <pt x="215" y="0" on="1"/>
        <pt x="215" y="1229" on="1"/>
        <pt x="215" y="1295" on="0"/>
        <pt x="168" y="1354" on="0"/>
        <pt x="111" y="1354" on="1"/>
        <pt x="23" y="1354" on="1"/>
        <pt x="23" y="1462" on="1"/>
        <pt x="653" y="1462" on="1"/>
        <pt x="925" y="1462" on="0"/>
        <pt x="1212" y="1238" on="0"/>
        <pt x="1212" y="1028" on="1"/>
        <pt x="1212" y="882" on="0"/>
        <pt x="1073" y="672" on="0"/>
        <pt x="801" y="559" on="0"/>
        <pt x="608" y="559" on="1"/>
        <pt x="539" y="559" on="1"/>
        <pt x="539" y="125" on="1"/>
      </contour>
      <contour>
        <pt x="539" y="678" on="1"/>
        <pt x="588" y="678" on="1"/>
        <pt x="739" y="678" on="0"/>
        <pt x="868" y="834" on="0"/>
        <pt x="868" y="1020" on="1"/>
        <pt x="868" y="1191" on="0"/>
        <pt x="750" y="1341" on="0"/>
        <pt x="618" y="1341" on="1"/>
        <pt x="539" y="1341" on="1"/>
      </contour>
    </TTGlyph>
    <TTGlyph name="uni10B3" xMin="113" yMin="-358" xMax="1534" yMax="1485">
      <contour>
        <pt x="1499" y="733" on="1"/>
        <pt x="1499" y="394" on="0"/>
        <pt x="1323" y="190" on="1"/>
        <pt x="1423" y="155" on="0"/>
        <pt x="1534" y="18" on="0"/>
        <pt x="1534" y="-82" on="1"/>
        <pt x="1534" y="-206" on="0"/>
        <pt x="1365" y="-358" on="0"/>
        <pt x="1227" y="-358" on="1"/>
        <pt x="1163" y="-358" on="0"/>
        <pt x="1070" y="-320" on="0"/>
        <pt x="1018" y="-253" on="0"/>
        <pt x="1018" y="-215" on="1"/>
        <pt x="1018" y="-194" on="0"/>
        <pt x="1035" y="-143" on="0"/>
        <pt x="1049" y="-129" on="1"/>
        <pt x="1098" y="-178" on="0"/>
        <pt x="1194" y="-178" on="1"/>
        <pt x="1243" y="-178" on="0"/>
        <pt x="1307" y="-116" on="0"/>
        <pt x="1307" y="-63" on="1"/>
        <pt x="1307" y="-8" on="0"/>
        <pt x="1245" y="70" on="0"/>
        <pt x="1198" y="84" on="1"/>
        <pt x="1039" y="-20" on="0"/>
        <pt x="807" y="-20" on="1"/>
        <pt x="586" y="-20" on="0"/>
        <pt x="274" y="158" on="0"/>
        <pt x="113" y="500" on="0"/>
        <pt x="113" y="735" on="1"/>
        <pt x="113" y="1094" on="0"/>
        <pt x="475" y="1485" on="0"/>
        <pt x="809" y="1485" on="1"/>
        <pt x="1132" y="1485" on="0"/>
        <pt x="1499" y="1083" on="0"/>
      </contour>
      <contour>
        <pt x="457" y="733" on="1"/>
        <pt x="457" y="416" on="0"/>
        <pt x="630" y="113" on="0"/>
        <pt x="807" y="113" on="1"/>
        <pt x="985" y="113" on="0"/>
        <pt x="1155" y="414" on="0"/>
        <pt x="1155" y="733" on="1"/>
        <pt x="1155" y="1051" on="0"/>
        <pt x="986" y="1352" on="0"/>
        <pt x="809" y="1352" on="1"/>
        <pt x="630" y="1352" on="0"/>
        <pt x="457" y="1050" on="0"/>
      </contour>
    </TTGlyph>
    <TTGlyph name="uni10B4" xMin="100" yMin="0" xMax="1640" yMax="1483">
      <contour>
        <pt x="1020" y="510" on="1"/>
        <pt x="1140" y="526" on="0"/>
        <pt x="1258" y="616" on="0"/>
        <pt x="1309" y="791" on="0"/>
        <pt x="1309" y="948" on="1"/>
        <pt x="1309" y="1158" on="0"/>
        <pt x="1174" y="1348" on="0"/>
        <pt x="1020" y="1362" on="1"/>
      </contour>
      <contour>
        <pt x="721" y="1362" on="1"/>
        <pt x="572" y="1349" on="0"/>
        <pt x="432" y="1145" on="0"/>
        <pt x="432" y="948" on="1"/>
        <pt x="432" y="731" on="0"/>
        <pt x="571" y="519" on="0"/>
        <pt x="721" y="510" on="1"/>
      </contour>
      <contour>
        <pt x="864" y="1483" on="1"/>
        <pt x="1247" y="1483" on="0"/>
        <pt x="1640" y="1215" on="0"/>
        <pt x="1640" y="944" on="1"/>
        <pt x="1640" y="691" on="0"/>
        <pt x="1317" y="404" on="0"/>
        <pt x="1020" y="389" on="1"/>
        <pt x="1020" y="0" on="1"/>
        <pt x="721" y="0" on="1"/>
        <pt x="721" y="389" on="1"/>
        <pt x="432" y="401" on="0"/>
        <pt x="100" y="694" on="0"/>
        <pt x="100" y="944" on="1"/>
        <pt x="100" y="1214" on="0"/>
        <pt x="487" y="1483" on="0"/>
      </contour>
    </TTGlyph>
    <TTGlyph name="uni10B5" xMin="31" yMin="0" xMax="1317" yMax="1462">
      <contour>
        <pt x="358" y="862" on="1"/>
        <pt x="438" y="862" on="0"/>
        <pt x="512" y="872" on="1"/>
        <pt x="512" y="1221" on="1"/>
        <pt x="512" y="1290" on="0"/>
        <pt x="467" y="1354" on="0"/>
        <pt x="408" y="1354" on="1"/>
        <pt x="330" y="1354" on="1"/>
        <pt x="330" y="1462" on="1"/>
        <pt x="836" y="1462" on="1"/>
        <pt x="836" y="940" on="1"/>
        <pt x="981" y="969" on="0"/>
        <pt x="1100" y="969" on="1"/>
        <pt x="1200" y="969" on="0"/>
        <pt x="1317" y="872" on="0"/>
        <pt x="1317" y="793" on="1"/>
        <pt x="1317" y="631" on="0"/>
        <pt x="1112" y="631" on="1"/>
        <pt x="1112" y="725" on="0"/>
        <pt x="1049" y="829" on="0"/>
        <pt x="991" y="829" on="1"/>
        <pt x="925" y="829" on="0"/>
        <pt x="836" y="815" on="1"/>
        <pt x="836" y="0" on="1"/>
        <pt x="512" y="0" on="1"/>
        <pt x="512" y="745" on="1"/>
        <pt x="392" y="723" on="0"/>
        <pt x="248" y="723" on="1"/>
        <pt x="149" y="723" on="0"/>
        <pt x="31" y="818" on="0"/>
        <pt x="31" y="895" on="1"/>
        <pt x="31" y="967" on="0"/>
        <pt x="143" y="1057" on="0"/>
        <pt x="236" y="1057" on="1"/>
        <pt x="236" y="969" on="0"/>
        <pt x="295" y="862" on="0"/>
      </contour>
    </TTGlyph>
    <TTGlyph name="uni10B6" xMin="164" yMin="0" xMax="1323" yMax="1483">
      <contour>
        <pt x="999" y="0" on="1"/>
        <pt x="999" y="1032" on="1"/>
        <pt x="999" y="1188" on="0"/>
        <pt x="874" y="1337" on="0"/>
        <pt x="743" y="1337" on="1"/>
        <pt x="620" y="1337" on="0"/>
        <pt x="487" y="1181" on="0"/>
        <pt x="487" y="1032" on="1"/>
        <pt x="487" y="0" on="1"/>
        <pt x="164" y="0" on="1"/>
        <pt x="164" y="1016" on="1"/>
        <pt x="164" y="1242" on="0"/>
        <pt x="457" y="1483" on="0"/>
        <pt x="737" y="1483" on="1"/>
        <pt x="1323" y="1483" on="0"/>
        <pt x="1323" y="1016" on="1"/>
        <pt x="1323" y="0" on="1"/>
      </contour>
    </TTGlyph>
    <TTGlyph name="uni10B7" xMin="33" yMin="0" xMax="1339" yMax="1462">
      <contour>
        <pt x="1016" y="1229" on="1"/>
        <pt x="1016" y="1292" on="0"/>
        <pt x="965" y="1354" on="0"/>
        <pt x="899" y="1354" on="1"/>
        <pt x="801" y="1354" on="1"/>
        <pt x="801" y="1462" on="1"/>
        <pt x="1339" y="1462" on="1"/>
        <pt x="1339" y="0" on="1"/>
        <pt x="1016" y="0" on="1"/>
        <pt x="1016" y="362" on="1"/>
        <pt x="1016" y="426" on="0"/>
        <pt x="1032" y="610" on="1"/>
        <pt x="1018" y="610" on="1"/>
        <pt x="962" y="525" on="0"/>
        <pt x="786" y="446" on="0"/>
        <pt x="653" y="446" on="1"/>
        <pt x="432" y="446" on="0"/>
        <pt x="205" y="695" on="0"/>
        <pt x="205" y="936" on="1"/>
        <pt x="205" y="1229" on="1"/>
        <pt x="205" y="1293" on="0"/>
        <pt x="157" y="1354" on="0"/>
        <pt x="100" y="1354" on="1"/>
        <pt x="33" y="1354" on="1"/>
        <pt x="33" y="1462" on="1"/>
        <pt x="528" y="1462" on="1"/>
        <pt x="528" y="942" on="1"/>
        <pt x="528" y="774" on="0"/>
        <pt x="642" y="618" on="0"/>
        <pt x="774" y="618" on="1"/>
        <pt x="1016" y="618" on="0"/>
        <pt x="1016" y="930" on="1"/>
      </contour>
    </TTGlyph>
    <TTGlyph name="uni10B8" xMin="33" yMin="-20" xMax="1339" yMax="1462">
      <contour>
        <pt x="1339" y="446" on="1"/>
        <pt x="1339" y="215" on="0"/>
        <pt x="1053" y="-20" on="0"/>
        <pt x="778" y="-20" on="1"/>
        <pt x="486" y="-20" on="0"/>
        <pt x="205" y="211" on="0"/>
        <pt x="205" y="446" on="1"/>
        <pt x="205" y="492" on="1"/>
        <pt x="528" y="492" on="1"/>
        <pt x="528" y="430" on="1"/>
        <pt x="528" y="269" on="0"/>
        <pt x="646" y="125" on="0"/>
        <pt x="772" y="125" on="1"/>
        <pt x="1016" y="125" on="0"/>
        <pt x="1016" y="430" on="1"/>
        <pt x="1016" y="547" on="1"/>
        <pt x="1016" y="607" on="0"/>
        <pt x="1032" y="795" on="1"/>
        <pt x="1018" y="795" on="1"/>
        <pt x="961" y="708" on="0"/>
        <pt x="784" y="631" on="0"/>
        <pt x="653" y="631" on="1"/>
        <pt x="433" y="631" on="0"/>
        <pt x="205" y="878" on="0"/>
        <pt x="205" y="1120" on="1"/>
        <pt x="205" y="1229" on="1"/>
        <pt x="205" y="1293" on="0"/>
        <pt x="157" y="1354" on="0"/>
        <pt x="100" y="1354" on="1"/>
        <pt x="33" y="1354" on="1"/>
        <pt x="33" y="1462" on="1"/>
        <pt x="528" y="1462" on="1"/>
        <pt x="528" y="1126" on="1"/>
        <pt x="528" y="958" on="0"/>
        <pt x="643" y="803" on="0"/>
        <pt x="774" y="803" on="1"/>
        <pt x="1016" y="803" on="0"/>
        <pt x="1016" y="1114" on="1"/>
        <pt x="1016" y="1229" on="1"/>
        <pt x="1016" y="1292" on="0"/>
        <pt x="965" y="1354" on="0"/>
        <pt x="899" y="1354" on="1"/>
        <pt x="801" y="1354" on="1"/>
        <pt x="801" y="1462" on="1"/>
        <pt x="1339" y="1462" on="1"/>
      </contour>
    </TTGlyph>
    <TTGlyph name="uni10B9" xMin="45" yMin="0" xMax="1350" yMax="1462">
      <contour>
        <pt x="1026" y="0" on="1"/>
        <pt x="1026" y="623" on="1"/>
        <pt x="1026" y="791" on="0"/>
        <pt x="911" y="946" on="0"/>
        <pt x="780" y="946" on="1"/>
        <pt x="539" y="946" on="0"/>
        <pt x="539" y="635" on="1"/>
        <pt x="539" y="0" on="1"/>
        <pt x="215" y="0" on="1"/>
        <pt x="215" y="1221" on="1"/>
        <pt x="215" y="1290" on="0"/>
        <pt x="170" y="1354" on="0"/>
        <pt x="111" y="1354" on="1"/>
        <pt x="45" y="1354" on="1"/>
        <pt x="45" y="1462" on="1"/>
        <pt x="539" y="1462" on="1"/>
        <pt x="539" y="1202" on="1"/>
        <pt x="539" y="1154" on="0"/>
        <pt x="522" y="954" on="1"/>
        <pt x="537" y="954" on="1"/>
        <pt x="590" y="1039" on="0"/>
        <pt x="770" y="1118" on="0"/>
        <pt x="901" y="1118" on="1"/>
        <pt x="1123" y="1118" on="0"/>
        <pt x="1350" y="868" on="0"/>
        <pt x="1350" y="629" on="1"/>
        <pt x="1350" y="0" on="1"/>
      </contour>
    </TTGlyph>
    <TTGlyph name="uni10BA" xMin="113" yMin="-399" xMax="1286" yMax="1483">
      <contour>
        <pt x="870" y="143" on="1"/>
        <pt x="1104" y="143" on="0"/>
        <pt x="1249" y="338" on="1"/>
        <pt x="1265" y="326" on="0"/>
        <pt x="1284" y="276" on="0"/>
        <pt x="1284" y="250" on="1"/>
        <pt x="1284" y="128" on="0"/>
        <pt x="1133" y="-191" on="0"/>
        <pt x="916" y="-399" on="0"/>
        <pt x="817" y="-399" on="1"/>
        <pt x="742" y="-399" on="0"/>
        <pt x="655" y="-310" on="0"/>
        <pt x="655" y="-236" on="1"/>
        <pt x="655" y="-210" on="0"/>
        <pt x="669" y="-141" on="0"/>
        <pt x="678" y="-129" on="1"/>
        <pt x="714" y="-178" on="0"/>
        <pt x="784" y="-178" on="1"/>
        <pt x="881" y="-178" on="0"/>
        <pt x="1048" y="-69" on="0"/>
        <pt x="1087" y="20" on="1"/>
        <pt x="974" y="-20" on="0"/>
        <pt x="821" y="-20" on="1"/>
        <pt x="481" y="-20" on="0"/>
        <pt x="113" y="377" on="0"/>
        <pt x="113" y="733" on="1"/>
        <pt x="113" y="963" on="0"/>
        <pt x="281" y="1303" on="0"/>
        <pt x="601" y="1483" on="0"/>
        <pt x="819" y="1483" on="1"/>
        <pt x="1036" y="1483" on="0"/>
        <pt x="1286" y="1355" on="0"/>
        <pt x="1286" y="1245" on="1"/>
        <pt x="1286" y="1164" on="0"/>
        <pt x="1149" y="1067" on="0"/>
        <pt x="1030" y="1067" on="1"/>
        <pt x="1030" y="1197" on="0"/>
        <pt x="911" y="1352" on="0"/>
        <pt x="805" y="1352" on="1"/>
        <pt x="624" y="1352" on="0"/>
        <pt x="457" y="1057" on="0"/>
        <pt x="457" y="733" on="1"/>
        <pt x="457" y="421" on="0"/>
        <pt x="654" y="143" on="0"/>
      </contour>
    </TTGlyph>
    <TTGlyph name="uni10BB" xMin="61" yMin="-20" xMax="1620" yMax="1462">
      <contour>
        <pt x="836" y="1229" on="1"/>
        <pt x="836" y="1292" on="0"/>
        <pt x="791" y="1354" on="0"/>
        <pt x="731" y="1354" on="1"/>
        <pt x="645" y="1354" on="1"/>
        <pt x="645" y="1462" on="1"/>
        <pt x="1159" y="1462" on="1"/>
        <pt x="1159" y="926" on="1"/>
        <pt x="1272" y="926" on="1"/>
        <pt x="1441" y="926" on="0"/>
        <pt x="1620" y="809" on="0"/>
        <pt x="1620" y="700" on="1"/>
        <pt x="1620" y="627" on="0"/>
        <pt x="1480" y="528" on="0"/>
        <pt x="1374" y="528" on="1"/>
        <pt x="1374" y="788" on="0"/>
        <pt x="1159" y="799" on="1"/>
        <pt x="1159" y="485" on="1"/>
        <pt x="1159" y="-20" on="0"/>
        <pt x="616" y="-20" on="1"/>
        <pt x="348" y="-20" on="0"/>
        <pt x="61" y="224" on="0"/>
        <pt x="61" y="446" on="1"/>
        <pt x="61" y="684" on="0"/>
        <pt x="388" y="926" on="0"/>
        <pt x="707" y="926" on="1"/>
        <pt x="836" y="926" on="1"/>
      </contour>
      <contour>
        <pt x="836" y="793" on="1"/>
        <pt x="698" y="793" on="1"/>
        <pt x="589" y="793" on="0"/>
        <pt x="462" y="727" on="0"/>
        <pt x="406" y="586" on="0"/>
        <pt x="406" y="446" on="1"/>
        <pt x="406" y="113" on="0"/>
        <pt x="621" y="113" on="1"/>
        <pt x="726" y="113" on="0"/>
        <pt x="836" y="294" on="0"/>
        <pt x="836" y="471" on="1"/>
      </contour>
    </TTGlyph>
    <TTGlyph name="uni10BC" xMin="25" yMin="0" xMax="1212" yMax="1462">
      <contour>
        <pt x="215" y="0" on="1"/>
        <pt x="215" y="1229" on="1"/>
        <pt x="215" y="1295" on="0"/>
        <pt x="168" y="1354" on="0"/>
        <pt x="111" y="1354" on="1"/>
        <pt x="25" y="1354" on="1"/>
        <pt x="25" y="1462" on="1"/>
        <pt x="653" y="1462" on="1"/>
        <pt x="926" y="1462" on="0"/>
        <pt x="1212" y="1260" on="0"/>
        <pt x="1212" y="1069" on="1"/>
        <pt x="1212" y="867" on="0"/>
        <pt x="895" y="643" on="0"/>
        <pt x="608" y="643" on="1"/>
        <pt x="539" y="643" on="1"/>
        <pt x="539" y="492" on="1"/>
        <pt x="696" y="492" on="1"/>
        <pt x="1014" y="492" on="0"/>
        <pt x="1014" y="283" on="1"/>
        <pt x="1014" y="201" on="0"/>
        <pt x="880" y="94" on="0"/>
        <pt x="768" y="94" on="1"/>
        <pt x="768" y="231" on="0"/>
        <pt x="654" y="363" on="0"/>
        <pt x="539" y="367" on="1"/>
        <pt x="539" y="0" on="1"/>
      </contour>
      <contour>
        <pt x="539" y="762" on="1"/>
        <pt x="588" y="762" on="1"/>
        <pt x="739" y="762" on="0"/>
        <pt x="868" y="897" on="0"/>
        <pt x="868" y="1061" on="1"/>
        <pt x="868" y="1210" on="0"/>
        <pt x="750" y="1341" on="0"/>
        <pt x="618" y="1341" on="1"/>
        <pt x="539" y="1341" on="1"/>
      </contour>
    </TTGlyph>
    <TTGlyph name="uni10BD" xMin="61" yMin="-20" xMax="1098" yMax="1483">
      <contour>
        <pt x="541" y="-20" on="1"/>
        <pt x="385" y="-20" on="0"/>
        <pt x="171" y="52" on="0"/>
        <pt x="61" y="180" on="0"/>
        <pt x="61" y="266" on="1"/>
        <pt x="61" y="356" on="0"/>
        <pt x="184" y="457" on="0"/>
        <pt x="293" y="457" on="1"/>
        <pt x="293" y="292" on="0"/>
        <pt x="442" y="102" on="0"/>
        <pt x="573" y="102" on="1"/>
        <pt x="687" y="102" on="0"/>
        <pt x="827" y="225" on="0"/>
        <pt x="827" y="324" on="1"/>
        <pt x="827" y="386" on="0"/>
        <pt x="766" y="479" on="0"/>
        <pt x="633" y="564" on="0"/>
        <pt x="485" y="625" on="1"/>
        <pt x="281" y="707" on="0"/>
        <pt x="102" y="912" on="0"/>
        <pt x="102" y="1071" on="1"/>
        <pt x="102" y="1253" on="0"/>
        <pt x="380" y="1483" on="0"/>
        <pt x="604" y="1483" on="1"/>
        <pt x="809" y="1483" on="0"/>
        <pt x="1040" y="1356" on="0"/>
        <pt x="1040" y="1245" on="1"/>
        <pt x="1040" y="1168" on="0"/>
        <pt x="906" y="1075" on="0"/>
        <pt x="788" y="1075" on="1"/>
        <pt x="788" y="1150" on="0"/>
        <pt x="734" y="1281" on="0"/>
        <pt x="638" y="1358" on="0"/>
        <pt x="571" y="1358" on="1"/>
        <pt x="479" y="1358" on="0"/>
        <pt x="369" y="1254" on="0"/>
        <pt x="369" y="1169" on="1"/>
        <pt x="369" y="1100" on="0"/>
        <pt x="435" y="1003" on="0"/>
        <pt x="578" y="914" on="0"/>
        <pt x="707" y="862" on="1"/>
        <pt x="916" y="776" on="0"/>
        <pt x="1098" y="579" on="0"/>
        <pt x="1098" y="428" on="1"/>
        <pt x="1098" y="297" on="0"/>
        <pt x="962" y="93" on="0"/>
        <pt x="706" y="-20" on="0"/>
      </contour>
    </TTGlyph>
    <TTGlyph name="uni10BE" xMin="23" yMin="-262" xMax="1350" yMax="1462">
      <contour>
        <pt x="215" y="1229" on="1"/>
        <pt x="215" y="1293" on="0"/>
        <pt x="167" y="1354" on="0"/>
        <pt x="111" y="1354" on="1"/>
        <pt x="23" y="1354" on="1"/>
        <pt x="23" y="1462" on="1"/>
        <pt x="539" y="1462" on="1"/>
        <pt x="539" y="930" on="1"/>
        <pt x="539" y="618" on="0"/>
        <pt x="780" y="618" on="1"/>
        <pt x="912" y="618" on="0"/>
        <pt x="1026" y="773" on="0"/>
        <pt x="1026" y="942" on="1"/>
        <pt x="1026" y="1229" on="1"/>
        <pt x="1026" y="1292" on="0"/>
        <pt x="975" y="1354" on="0"/>
        <pt x="909" y="1354" on="1"/>
        <pt x="811" y="1354" on="1"/>
        <pt x="811" y="1462" on="1"/>
        <pt x="1350" y="1462" on="1"/>
        <pt x="1350" y="936" on="1"/>
        <pt x="1350" y="698" on="0"/>
        <pt x="1124" y="446" on="0"/>
        <pt x="901" y="446" on="1"/>
        <pt x="641" y="446" on="0"/>
        <pt x="537" y="610" on="1"/>
        <pt x="522" y="610" on="1"/>
        <pt x="539" y="415" on="0"/>
        <pt x="539" y="362" on="1"/>
        <pt x="539" y="125" on="1"/>
        <pt x="934" y="125" on="1"/>
        <pt x="1105" y="125" on="0"/>
        <pt x="1282" y="22" on="0"/>
        <pt x="1282" y="-76" on="1"/>
        <pt x="1282" y="-162" on="0"/>
        <pt x="1160" y="-262" on="0"/>
        <pt x="1057" y="-262" on="1"/>
        <pt x="1057" y="-120" on="0"/>
        <pt x="940" y="0" on="0"/>
        <pt x="799" y="0" on="1"/>
        <pt x="215" y="0" on="1"/>
      </contour>
    </TTGlyph>
    <TTGlyph name="uni10BF" xMin="33" yMin="0" xMax="1305" yMax="1462">
      <contour>
        <pt x="33" y="0" on="1"/>
        <pt x="33" y="109" on="1"/>
        <pt x="45" y="109" on="1"/>
        <pt x="122" y="109" on="0"/>
        <pt x="236" y="170" on="0"/>
        <pt x="299" y="252" on="1"/>
        <pt x="637" y="719" on="1"/>
        <pt x="233" y="1354" on="1"/>
        <pt x="94" y="1354" on="1"/>
        <pt x="94" y="1462" on="1"/>
        <pt x="1305" y="1462" on="1"/>
        <pt x="1305" y="1354" on="1"/>
        <pt x="926" y="827" on="1"/>
        <pt x="1276" y="287" on="1"/>
        <pt x="1024" y="121" on="1"/>
        <pt x="713" y="602" on="1"/>
        <pt x="512" y="303" on="1"/>
        <pt x="396" y="127" on="0"/>
        <pt x="239" y="0" on="0"/>
        <pt x="139" y="0" on="1"/>
      </contour>
      <contour>
        <pt x="586" y="1354" on="1"/>
        <pt x="852" y="946" on="1"/>
        <pt x="1008" y="1169" on="1"/>
        <pt x="1063" y="1242" on="0"/>
        <pt x="1063" y="1294" on="1"/>
        <pt x="1063" y="1322" on="0"/>
        <pt x="1016" y="1354" on="0"/>
        <pt x="952" y="1354" on="1"/>
      </contour>
    </TTGlyph>
    <TTGlyph name="uni10C0" xMin="20" yMin="-20" xMax="1698" yMax="1462">
      <contour>
        <pt x="489" y="1339" on="1"/>
        <pt x="369" y="1339" on="0"/>
        <pt x="234" y="1251" on="0"/>
        <pt x="165" y="1052" on="0"/>
        <pt x="158" y="881" on="1"/>
        <pt x="20" y="881" on="1"/>
        <pt x="20" y="1462" on="1"/>
        <pt x="862" y="1462" on="1"/>
        <pt x="862" y="430" on="1"/>
        <pt x="862" y="274" on="0"/>
        <pt x="987" y="125" on="0"/>
        <pt x="1118" y="125" on="1"/>
        <pt x="1241" y="125" on="0"/>
        <pt x="1374" y="281" on="0"/>
        <pt x="1374" y="430" on="1"/>
        <pt x="1374" y="655" on="1"/>
        <pt x="1698" y="655" on="1"/>
        <pt x="1698" y="446" on="1"/>
        <pt x="1698" y="218" on="0"/>
        <pt x="1403" y="-20" on="0"/>
        <pt x="1124" y="-20" on="1"/>
        <pt x="539" y="-20" on="0"/>
        <pt x="539" y="446" on="1"/>
        <pt x="539" y="1337" on="1"/>
      </contour>
    </TTGlyph>
    <TTGlyph name="uni10C1" xMin="45" yMin="0" xMax="1569" yMax="1462">
      <contour>
        <pt x="1569" y="647" on="1"/>
        <pt x="1569" y="502" on="1"/>
        <pt x="969" y="502" on="1"/>
        <pt x="969" y="674" on="1"/>
        <pt x="969" y="839" on="0"/>
        <pt x="870" y="987" on="0"/>
        <pt x="752" y="987" on="1"/>
        <pt x="539" y="987" on="0"/>
        <pt x="539" y="676" on="1"/>
        <pt x="539" y="0" on="1"/>
        <pt x="215" y="0" on="1"/>
        <pt x="215" y="1221" on="1"/>
        <pt x="215" y="1290" on="0"/>
        <pt x="170" y="1354" on="0"/>
        <pt x="111" y="1354" on="1"/>
        <pt x="45" y="1354" on="1"/>
        <pt x="45" y="1462" on="1"/>
        <pt x="539" y="1462" on="1"/>
        <pt x="539" y="1243" on="1"/>
        <pt x="539" y="1195" on="0"/>
        <pt x="522" y="995" on="1"/>
        <pt x="537" y="995" on="1"/>
        <pt x="590" y="1082" on="0"/>
        <pt x="753" y="1159" on="0"/>
        <pt x="874" y="1159" on="1"/>
        <pt x="1292" y="1159" on="0"/>
        <pt x="1292" y="680" on="1"/>
        <pt x="1292" y="647" on="1"/>
      </contour>
    </TTGlyph>
    <TTGlyph name="uni10C2" xMin="33" yMin="-20" xMax="1255" yMax="1462">
      <contour>
        <pt x="547" y="1315" on="1"/>
        <pt x="890" y="1315" on="0"/>
        <pt x="1255" y="972" on="0"/>
        <pt x="1255" y="655" on="1"/>
        <pt x="1255" y="340" on="0"/>
        <pt x="882" y="-20" on="0"/>
        <pt x="549" y="-20" on="1"/>
        <pt x="332" y="-20" on="0"/>
        <pt x="82" y="108" on="0"/>
        <pt x="82" y="217" on="1"/>
        <pt x="82" y="298" on="0"/>
        <pt x="219" y="395" on="0"/>
        <pt x="338" y="395" on="1"/>
        <pt x="338" y="262" on="0"/>
        <pt x="458" y="111" on="0"/>
        <pt x="563" y="111" on="1"/>
        <pt x="744" y="111" on="0"/>
        <pt x="911" y="370" on="0"/>
        <pt x="911" y="653" on="1"/>
        <pt x="911" y="921" on="0"/>
        <pt x="719" y="1151" on="0"/>
        <pt x="498" y="1151" on="1"/>
        <pt x="195" y="1151" on="1"/>
        <pt x="195" y="1221" on="1"/>
        <pt x="195" y="1290" on="0"/>
        <pt x="150" y="1354" on="0"/>
        <pt x="90" y="1354" on="1"/>
        <pt x="33" y="1354" on="1"/>
        <pt x="33" y="1462" on="1"/>
        <pt x="518" y="1462" on="1"/>
        <pt x="518" y="1315" on="1"/>
      </contour>
    </TTGlyph>
    <TTGlyph name="uni10C3" xMin="61" yMin="0" xMax="1214" yMax="1462">
      <contour>
        <pt x="569" y="1153" on="1"/>
        <pt x="481" y="1146" on="0"/>
        <pt x="406" y="1014" on="0"/>
        <pt x="406" y="854" on="1"/>
        <pt x="406" y="717" on="0"/>
        <pt x="522" y="598" on="0"/>
        <pt x="649" y="598" on="1"/>
        <pt x="891" y="598" on="0"/>
        <pt x="891" y="909" on="1"/>
        <pt x="891" y="1221" on="1"/>
        <pt x="891" y="1290" on="0"/>
        <pt x="846" y="1354" on="0"/>
        <pt x="786" y="1354" on="1"/>
        <pt x="752" y="1354" on="1"/>
        <pt x="752" y="1462" on="1"/>
        <pt x="1214" y="1462" on="1"/>
        <pt x="1214" y="0" on="1"/>
        <pt x="891" y="0" on="1"/>
        <pt x="891" y="342" on="1"/>
        <pt x="891" y="402" on="0"/>
        <pt x="907" y="590" on="1"/>
        <pt x="893" y="590" on="1"/>
        <pt x="836" y="503" on="0"/>
        <pt x="659" y="426" on="0"/>
        <pt x="528" y="426" on="1"/>
        <pt x="305" y="426" on="0"/>
        <pt x="61" y="637" on="0"/>
        <pt x="61" y="838" on="1"/>
        <pt x="61" y="1033" on="0"/>
        <pt x="324" y="1262" on="0"/>
        <pt x="549" y="1262" on="1"/>
      </contour>
    </TTGlyph>
    <TTGlyph name="uni10C4" xMin="33" yMin="0" xMax="1374" yMax="1462">
      <contour>
        <pt x="633" y="481" on="1"/>
        <pt x="422" y="513" on="0"/>
        <pt x="215" y="740" on="0"/>
        <pt x="215" y="938" on="1"/>
        <pt x="215" y="1229" on="1"/>
        <pt x="215" y="1293" on="0"/>
        <pt x="167" y="1354" on="0"/>
        <pt x="111" y="1354" on="1"/>
        <pt x="33" y="1354" on="1"/>
        <pt x="33" y="1462" on="1"/>
        <pt x="539" y="1462" on="1"/>
        <pt x="539" y="922" on="1"/>
        <pt x="539" y="767" on="0"/>
        <pt x="664" y="616" on="0"/>
        <pt x="795" y="616" on="1"/>
        <pt x="918" y="616" on="0"/>
        <pt x="1051" y="772" on="0"/>
        <pt x="1051" y="922" on="1"/>
        <pt x="1051" y="1229" on="1"/>
        <pt x="1051" y="1292" on="0"/>
        <pt x="999" y="1354" on="0"/>
        <pt x="934" y="1354" on="1"/>
        <pt x="836" y="1354" on="1"/>
        <pt x="836" y="1462" on="1"/>
        <pt x="1374" y="1462" on="1"/>
        <pt x="1374" y="938" on="1"/>
        <pt x="1374" y="744" on="0"/>
        <pt x="1160" y="512" on="0"/>
        <pt x="956" y="481" on="1"/>
        <pt x="956" y="0" on="1"/>
        <pt x="633" y="0" on="1"/>
      </contour>
    </TTGlyph>
    <TTGlyph name="uni10C5" xMin="31" yMin="-20" xMax="1544" yMax="1462">
      <contour>
        <pt x="547" y="1219" on="1"/>
        <pt x="547" y="1287" on="0"/>
        <pt x="501" y="1354" on="0"/>
        <pt x="442" y="1354" on="1"/>
        <pt x="356" y="1354" on="1"/>
        <pt x="356" y="1462" on="1"/>
        <pt x="985" y="1462" on="1"/>
        <pt x="1255" y="1462" on="0"/>
        <pt x="1544" y="1268" on="0"/>
        <pt x="1544" y="1081" on="1"/>
        <pt x="1544" y="887" on="0"/>
        <pt x="1227" y="670" on="0"/>
        <pt x="940" y="670" on="1"/>
        <pt x="870" y="670" on="1"/>
        <pt x="870" y="543" on="1"/>
        <pt x="1288" y="543" on="1"/>
        <pt x="1288" y="428" on="1"/>
        <pt x="870" y="428" on="1"/>
        <pt x="870" y="410" on="1"/>
        <pt x="870" y="206" on="0"/>
        <pt x="628" y="-20" on="0"/>
        <pt x="416" y="-20" on="1"/>
        <pt x="230" y="-20" on="0"/>
        <pt x="31" y="123" on="0"/>
        <pt x="31" y="258" on="1"/>
        <pt x="31" y="396" on="0"/>
        <pt x="301" y="543" on="0"/>
        <pt x="547" y="543" on="1"/>
      </contour>
      <contour>
        <pt x="870" y="788" on="1"/>
        <pt x="920" y="788" on="1"/>
        <pt x="1073" y="788" on="0"/>
        <pt x="1200" y="921" on="0"/>
        <pt x="1200" y="1073" on="1"/>
        <pt x="1200" y="1215" on="0"/>
        <pt x="1081" y="1341" on="0"/>
        <pt x="950" y="1341" on="1"/>
        <pt x="870" y="1341" on="1"/>
      </contour>
      <contour>
        <pt x="334" y="260" on="1"/>
        <pt x="334" y="104" on="0"/>
        <pt x="428" y="104" on="1"/>
        <pt x="547" y="104" on="0"/>
        <pt x="547" y="389" on="1"/>
        <pt x="547" y="428" on="1"/>
        <pt x="465" y="428" on="0"/>
        <pt x="374" y="395" on="0"/>
        <pt x="334" y="332" on="0"/>
      </contour>
    </TTGlyph>
    <TTGlyph name="uni10D0" xMin="117" yMin="-20" xMax="1159" yMax="1118">
      <contour>
        <pt x="1159" y="387" on="1"/>
        <pt x="1159" y="-20" on="0"/>
        <pt x="625" y="-20" on="1"/>
        <pt x="385" y="-20" on="0"/>
        <pt x="117" y="160" on="0"/>
        <pt x="117" y="322" on="1"/>
        <pt x="117" y="465" on="0"/>
        <pt x="284" y="604" on="0"/>
        <pt x="461" y="606" on="1"/>
        <pt x="440" y="563" on="0"/>
        <pt x="414" y="413" on="0"/>
        <pt x="414" y="352" on="1"/>
        <pt x="414" y="109" on="0"/>
        <pt x="629" y="109" on="1"/>
        <pt x="730" y="109" on="0"/>
        <pt x="842" y="251" on="0"/>
        <pt x="842" y="387" on="1"/>
        <pt x="842" y="503" on="0"/>
        <pt x="760" y="638" on="0"/>
        <pt x="664" y="680" on="1"/>
        <pt x="563" y="726" on="0"/>
        <pt x="450" y="806" on="0"/>
        <pt x="401" y="888" on="0"/>
        <pt x="401" y="950" on="1"/>
        <pt x="401" y="1025" on="0"/>
        <pt x="504" y="1118" on="0"/>
        <pt x="590" y="1118" on="1"/>
        <pt x="739" y="1118" on="0"/>
        <pt x="774" y="989" on="1"/>
        <pt x="760" y="990" on="1"/>
        <pt x="726" y="990" on="0"/>
        <pt x="684" y="953" on="0"/>
        <pt x="684" y="922" on="1"/>
        <pt x="684" y="879" on="0"/>
        <pt x="742" y="818" on="0"/>
        <pt x="807" y="786" on="1"/>
        <pt x="961" y="714" on="0"/>
        <pt x="1097" y="607" on="0"/>
        <pt x="1159" y="477" on="0"/>
      </contour>
    </TTGlyph>
    <TTGlyph name="uni10D1" xMin="96" yMin="-20" xMax="1159" yMax="1595">
      <contour>
        <pt x="594" y="1395" on="1"/>
        <pt x="552" y="1395" on="0"/>
        <pt x="489" y="1370" on="0"/>
        <pt x="430" y="1340" on="0"/>
        <pt x="368" y="1315" on="0"/>
        <pt x="328" y="1315" on="1"/>
        <pt x="270" y="1315" on="0"/>
        <pt x="195" y="1394" on="0"/>
        <pt x="195" y="1454" on="1"/>
        <pt x="195" y="1514" on="0"/>
        <pt x="272" y="1586" on="0"/>
        <pt x="340" y="1595" on="1"/>
        <pt x="351" y="1505" on="0"/>
        <pt x="438" y="1505" on="1"/>
        <pt x="474" y="1508" on="1"/>
        <pt x="575" y="1524" on="0"/>
        <pt x="625" y="1524" on="1"/>
        <pt x="775" y="1524" on="0"/>
        <pt x="920" y="1410" on="0"/>
        <pt x="920" y="1315" on="1"/>
        <pt x="920" y="1234" on="0"/>
        <pt x="841" y="1138" on="0"/>
        <pt x="770" y="1110" on="1"/>
        <pt x="963" y="1072" on="0"/>
        <pt x="1159" y="787" on="0"/>
        <pt x="1159" y="553" on="1"/>
        <pt x="1159" y="-20" on="0"/>
        <pt x="625" y="-20" on="1"/>
        <pt x="370" y="-20" on="0"/>
        <pt x="96" y="274" on="0"/>
        <pt x="96" y="553" on="1"/>
        <pt x="96" y="1078" on="0"/>
        <pt x="555" y="1120" on="1"/>
        <pt x="624" y="1124" on="0"/>
        <pt x="707" y="1207" on="0"/>
        <pt x="707" y="1266" on="1"/>
        <pt x="707" y="1395" on="0"/>
      </contour>
      <contour>
        <pt x="414" y="553" on="1"/>
        <pt x="414" y="321" on="0"/>
        <pt x="517" y="109" on="0"/>
        <pt x="629" y="109" on="1"/>
        <pt x="739" y="109" on="0"/>
        <pt x="842" y="318" on="0"/>
        <pt x="842" y="553" on="1"/>
        <pt x="842" y="785" on="0"/>
        <pt x="739" y="993" on="0"/>
        <pt x="627" y="993" on="1"/>
        <pt x="515" y="993" on="0"/>
        <pt x="414" y="787" on="0"/>
      </contour>
      <contour>
        <pt x="552" y="1556" on="1"/>
      </contour>
    </TTGlyph>
    <TTGlyph name="uni10D2" xMin="96" yMin="-492" xMax="1159" yMax="1118">
      <contour>
        <pt x="1159" y="82" on="1"/>
        <pt x="1159" y="-207" on="0"/>
        <pt x="887" y="-492" on="0"/>
        <pt x="625" y="-492" on="1"/>
        <pt x="369" y="-492" on="0"/>
        <pt x="96" y="-196" on="0"/>
        <pt x="96" y="82" on="1"/>
        <pt x="96" y="607" on="0"/>
        <pt x="555" y="649" on="1"/>
        <pt x="629" y="656" on="0"/>
        <pt x="707" y="762" on="0"/>
        <pt x="707" y="846" on="1"/>
        <pt x="707" y="911" on="0"/>
        <pt x="647" y="989" on="0"/>
        <pt x="594" y="989" on="1"/>
        <pt x="525" y="989" on="0"/>
        <pt x="463" y="880" on="0"/>
        <pt x="461" y="758" on="1"/>
        <pt x="372" y="760" on="0"/>
        <pt x="272" y="839" on="0"/>
        <pt x="272" y="909" on="1"/>
        <pt x="272" y="969" on="0"/>
        <pt x="349" y="1064" on="0"/>
        <pt x="492" y="1118" on="0"/>
        <pt x="596" y="1118" on="1"/>
        <pt x="752" y="1118" on="0"/>
        <pt x="920" y="986" on="0"/>
        <pt x="920" y="862" on="1"/>
        <pt x="920" y="792" on="0"/>
        <pt x="835" y="664" on="0"/>
        <pt x="770" y="639" on="1"/>
        <pt x="963" y="601" on="0"/>
        <pt x="1159" y="316" on="0"/>
      </contour>
      <contour>
        <pt x="414" y="82" on="1"/>
        <pt x="414" y="-150" on="0"/>
        <pt x="517" y="-362" on="0"/>
        <pt x="629" y="-362" on="1"/>
        <pt x="739" y="-362" on="0"/>
        <pt x="842" y="-153" on="0"/>
        <pt x="842" y="82" on="1"/>
        <pt x="842" y="314" on="0"/>
        <pt x="739" y="522" on="0"/>
        <pt x="627" y="522" on="1"/>
        <pt x="515" y="522" on="0"/>
        <pt x="414" y="316" on="0"/>
      </contour>
    </TTGlyph>
    <TTGlyph name="uni10D3" xMin="96" yMin="-492" xMax="1700" yMax="1124">
      <contour>
        <pt x="1382" y="553" on="1"/>
        <pt x="1382" y="773" on="0"/>
        <pt x="1309" y="993" on="0"/>
        <pt x="1219" y="993" on="1"/>
        <pt x="1131" y="993" on="0"/>
        <pt x="1057" y="774" on="0"/>
        <pt x="1057" y="553" on="1"/>
        <pt x="1057" y="335" on="0"/>
        <pt x="1130" y="109" on="0"/>
        <pt x="1219" y="109" on="1"/>
        <pt x="1307" y="109" on="0"/>
        <pt x="1382" y="335" on="0"/>
      </contour>
      <contour>
        <pt x="96" y="549" on="1"/>
        <pt x="96" y="823" on="0"/>
        <pt x="347" y="1124" on="0"/>
        <pt x="571" y="1124" on="1"/>
        <pt x="681" y="1124" on="0"/>
        <pt x="843" y="1038" on="0"/>
        <pt x="899" y="938" on="1"/>
        <pt x="1002" y="1124" on="0"/>
        <pt x="1223" y="1124" on="1"/>
        <pt x="1700" y="1124" on="0"/>
        <pt x="1700" y="553" on="1"/>
        <pt x="1700" y="274" on="0"/>
        <pt x="1454" y="-20" on="0"/>
        <pt x="1221" y="-20" on="1"/>
        <pt x="985" y="-20" on="0"/>
        <pt x="739" y="264" on="0"/>
        <pt x="739" y="553" on="1"/>
        <pt x="739" y="774" on="0"/>
        <pt x="666" y="993" on="0"/>
        <pt x="575" y="993" on="1"/>
        <pt x="488" y="993" on="0"/>
        <pt x="414" y="773" on="0"/>
        <pt x="414" y="553" on="1"/>
        <pt x="414" y="196" on="0"/>
        <pt x="645" y="-156" on="0"/>
        <pt x="885" y="-156" on="1"/>
        <pt x="926" y="-156" on="0"/>
        <pt x="1006" y="-145" on="1"/>
        <pt x="1085" y="-135" on="0"/>
        <pt x="1147" y="-135" on="1"/>
        <pt x="1244" y="-135" on="0"/>
        <pt x="1356" y="-226" on="0"/>
        <pt x="1356" y="-307" on="1"/>
        <pt x="1356" y="-375" on="0"/>
        <pt x="1244" y="-471" on="0"/>
        <pt x="1169" y="-475" on="1"/>
        <pt x="1137" y="-287" on="0"/>
        <pt x="725" y="-287" on="1"/>
        <pt x="555" y="-287" on="0"/>
        <pt x="355" y="-335" on="0"/>
        <pt x="295" y="-393" on="1"/>
        <pt x="217" y="-315" on="1"/>
        <pt x="246" y="-264" on="0"/>
        <pt x="395" y="-175" on="0"/>
        <pt x="463" y="-170" on="1"/>
        <pt x="277" y="-82" on="0"/>
        <pt x="96" y="269" on="0"/>
      </contour>
      <contour>
        <pt x="1358" y="-492" on="1"/>
      </contour>
    </TTGlyph>
    <TTGlyph name="uni10D4" xMin="70" yMin="-492" xMax="1110" yMax="1124">
      <contour>
        <pt x="70" y="-31" on="1"/>
        <pt x="70" y="99" on="0"/>
        <pt x="249" y="240" on="0"/>
        <pt x="416" y="240" on="1"/>
        <pt x="383" y="149" on="0"/>
        <pt x="383" y="-31" on="1"/>
        <pt x="383" y="-362" on="0"/>
        <pt x="590" y="-362" on="1"/>
        <pt x="698" y="-362" on="0"/>
        <pt x="799" y="-109" on="0"/>
        <pt x="799" y="150" on="1"/>
        <pt x="799" y="508" on="1"/>
        <pt x="799" y="749" on="0"/>
        <pt x="694" y="995" on="0"/>
        <pt x="592" y="995" on="1"/>
        <pt x="485" y="995" on="0"/>
        <pt x="381" y="728" on="0"/>
        <pt x="381" y="457" on="1"/>
        <pt x="225" y="457" on="0"/>
        <pt x="96" y="570" on="0"/>
        <pt x="96" y="709" on="1"/>
        <pt x="96" y="812" on="0"/>
        <pt x="229" y="1009" on="0"/>
        <pt x="457" y="1124" on="0"/>
        <pt x="592" y="1124" on="1"/>
        <pt x="844" y="1124" on="0"/>
        <pt x="1110" y="799" on="0"/>
        <pt x="1110" y="494" on="1"/>
        <pt x="1110" y="147" on="1"/>
        <pt x="1110" y="-169" on="0"/>
        <pt x="846" y="-492" on="0"/>
        <pt x="590" y="-492" on="1"/>
        <pt x="345" y="-492" on="0"/>
        <pt x="70" y="-248" on="0"/>
      </contour>
    </TTGlyph>
    <TTGlyph name="uni10D5" xMin="29" yMin="-492" xMax="1061" yMax="1124">
      <contour>
        <pt x="508" y="-492" on="1"/>
        <pt x="283" y="-492" on="0"/>
        <pt x="29" y="-299" on="0"/>
        <pt x="29" y="-129" on="1"/>
        <pt x="29" y="-2" on="0"/>
        <pt x="201" y="135" on="0"/>
        <pt x="365" y="135" on="1"/>
        <pt x="347" y="97" on="0"/>
        <pt x="324" y="-59" on="0"/>
        <pt x="324" y="-127" on="1"/>
        <pt x="324" y="-242" on="0"/>
        <pt x="424" y="-362" on="0"/>
        <pt x="518" y="-362" on="1"/>
        <pt x="633" y="-362" on="0"/>
        <pt x="743" y="-187" on="0"/>
        <pt x="743" y="-4" on="1"/>
        <pt x="743" y="152" on="0"/>
        <pt x="579" y="332" on="0"/>
        <pt x="428" y="332" on="1"/>
        <pt x="332" y="332" on="1"/>
        <pt x="332" y="461" on="1"/>
        <pt x="436" y="461" on="1"/>
        <pt x="561" y="461" on="0"/>
        <pt x="707" y="616" on="0"/>
        <pt x="707" y="750" on="1"/>
        <pt x="707" y="870" on="0"/>
        <pt x="620" y="995" on="0"/>
        <pt x="537" y="995" on="1"/>
        <pt x="446" y="995" on="0"/>
        <pt x="350" y="838" on="0"/>
        <pt x="350" y="682" on="1"/>
        <pt x="222" y="682" on="0"/>
        <pt x="84" y="760" on="0"/>
        <pt x="84" y="854" on="1"/>
        <pt x="84" y="930" on="0"/>
        <pt x="199" y="1054" on="0"/>
        <pt x="409" y="1124" on="0"/>
        <pt x="547" y="1124" on="1"/>
        <pt x="775" y="1124" on="0"/>
        <pt x="1024" y="935" on="0"/>
        <pt x="1024" y="760" on="1"/>
        <pt x="1024" y="491" on="0"/>
        <pt x="696" y="401" on="1"/>
        <pt x="870" y="372" on="0"/>
        <pt x="1061" y="163" on="0"/>
        <pt x="1061" y="-2" on="1"/>
        <pt x="1061" y="-239" on="0"/>
        <pt x="776" y="-492" on="0"/>
      </contour>
    </TTGlyph>
    <TTGlyph name="uni10D6" xMin="-51" yMin="-20" xMax="1278" yMax="1575">
      <contour>
        <pt x="735" y="1217" on="1"/>
        <pt x="735" y="1157" on="0"/>
        <pt x="727" y="1122" on="1"/>
        <pt x="760" y="1124" on="1"/>
        <pt x="797" y="1124" on="1"/>
        <pt x="942" y="1124" on="0"/>
        <pt x="1161" y="988" on="0"/>
        <pt x="1278" y="730" on="0"/>
        <pt x="1278" y="553" on="1"/>
        <pt x="1278" y="-20" on="0"/>
        <pt x="743" y="-20" on="1"/>
        <pt x="489" y="-20" on="0"/>
        <pt x="215" y="273" on="0"/>
        <pt x="215" y="553" on="1"/>
        <pt x="215" y="732" on="0"/>
        <pt x="268" y="856" on="1"/>
        <pt x="117" y="874" on="0"/>
        <pt x="-51" y="1065" on="0"/>
        <pt x="-51" y="1217" on="1"/>
        <pt x="-51" y="1389" on="0"/>
        <pt x="153" y="1575" on="0"/>
        <pt x="344" y="1575" on="1"/>
        <pt x="527" y="1575" on="0"/>
        <pt x="735" y="1382" on="0"/>
      </contour>
      <contour>
        <pt x="532" y="553" on="1"/>
        <pt x="532" y="321" on="0"/>
        <pt x="636" y="109" on="0"/>
        <pt x="748" y="109" on="1"/>
        <pt x="858" y="109" on="0"/>
        <pt x="961" y="318" on="0"/>
        <pt x="961" y="553" on="1"/>
        <pt x="961" y="785" on="0"/>
        <pt x="858" y="993" on="0"/>
        <pt x="745" y="993" on="1"/>
        <pt x="634" y="993" on="0"/>
        <pt x="532" y="788" on="0"/>
      </contour>
      <contour>
        <pt x="205" y="1217" on="1"/>
        <pt x="205" y="1095" on="0"/>
        <pt x="265" y="971" on="0"/>
        <pt x="342" y="971" on="1"/>
        <pt x="417" y="971" on="0"/>
        <pt x="479" y="1095" on="0"/>
        <pt x="479" y="1217" on="1"/>
        <pt x="479" y="1337" on="0"/>
        <pt x="415" y="1456" on="0"/>
        <pt x="340" y="1456" on="1"/>
        <pt x="265" y="1456" on="0"/>
        <pt x="205" y="1337" on="0"/>
      </contour>
    </TTGlyph>
    <TTGlyph name="uni10D7" xMin="96" yMin="-20" xMax="1700" yMax="1124">
      <contour>
        <pt x="573" y="1124" on="1"/>
        <pt x="794" y="1124" on="0"/>
        <pt x="897" y="938" on="1"/>
        <pt x="953" y="1038" on="0"/>
        <pt x="1115" y="1124" on="0"/>
        <pt x="1225" y="1124" on="1"/>
        <pt x="1449" y="1124" on="0"/>
        <pt x="1700" y="824" on="0"/>
        <pt x="1700" y="549" on="1"/>
        <pt x="1700" y="400" on="0"/>
        <pt x="1601" y="135" on="0"/>
        <pt x="1437" y="-20" on="0"/>
        <pt x="1350" y="-20" on="1"/>
        <pt x="1297" y="-20" on="0"/>
        <pt x="1249" y="27" on="0"/>
        <pt x="1249" y="59" on="1"/>
        <pt x="1320" y="96" on="0"/>
        <pt x="1382" y="342" on="0"/>
        <pt x="1382" y="553" on="1"/>
        <pt x="1382" y="774" on="0"/>
        <pt x="1308" y="993" on="0"/>
        <pt x="1219" y="993" on="1"/>
        <pt x="1130" y="993" on="0"/>
        <pt x="1057" y="773" on="0"/>
        <pt x="1057" y="553" on="1"/>
        <pt x="1057" y="264" on="0"/>
        <pt x="810" y="-20" on="0"/>
        <pt x="575" y="-20" on="1"/>
        <pt x="342" y="-20" on="0"/>
        <pt x="96" y="275" on="0"/>
        <pt x="96" y="553" on="1"/>
        <pt x="96" y="1124" on="0"/>
      </contour>
      <contour>
        <pt x="414" y="553" on="1"/>
        <pt x="414" y="335" on="0"/>
        <pt x="488" y="109" on="0"/>
        <pt x="575" y="109" on="1"/>
        <pt x="666" y="109" on="0"/>
        <pt x="739" y="335" on="0"/>
        <pt x="739" y="553" on="1"/>
        <pt x="739" y="773" on="0"/>
        <pt x="664" y="993" on="0"/>
        <pt x="575" y="993" on="1"/>
        <pt x="486" y="993" on="0"/>
        <pt x="414" y="773" on="0"/>
      </contour>
    </TTGlyph>
    <TTGlyph name="uni10D8" xMin="96" yMin="-20" xMax="1155" yMax="1124">
      <contour>
        <pt x="840" y="553" on="1"/>
        <pt x="840" y="785" on="0"/>
        <pt x="737" y="993" on="0"/>
        <pt x="625" y="993" on="1"/>
        <pt x="513" y="993" on="0"/>
        <pt x="412" y="787" on="0"/>
        <pt x="412" y="553" on="1"/>
        <pt x="412" y="340" on="0"/>
        <pt x="474" y="96" on="0"/>
        <pt x="545" y="59" on="1"/>
        <pt x="545" y="27" on="0"/>
        <pt x="497" y="-20" on="0"/>
        <pt x="444" y="-20" on="1"/>
        <pt x="349" y="-20" on="0"/>
        <pt x="188" y="135" on="0"/>
        <pt x="96" y="400" on="0"/>
        <pt x="96" y="549" on="1"/>
        <pt x="96" y="732" on="0"/>
        <pt x="224" y="991" on="0"/>
        <pt x="462" y="1124" on="0"/>
        <pt x="625" y="1124" on="1"/>
        <pt x="789" y="1124" on="0"/>
        <pt x="1026" y="992" on="0"/>
        <pt x="1155" y="733" on="0"/>
        <pt x="1155" y="549" on="1"/>
        <pt x="1155" y="400" on="0"/>
        <pt x="1059" y="138" on="0"/>
        <pt x="895" y="-20" on="0"/>
        <pt x="807" y="-20" on="1"/>
        <pt x="754" y="-20" on="0"/>
        <pt x="707" y="27" on="0"/>
        <pt x="707" y="59" on="1"/>
        <pt x="778" y="96" on="0"/>
        <pt x="840" y="342" on="0"/>
      </contour>
    </TTGlyph>
    <TTGlyph name="uni10D9" xMin="29" yMin="-492" xMax="1061" yMax="1124">
      <contour>
        <pt x="522" y="995" on="1"/>
        <pt x="483" y="995" on="0"/>
        <pt x="394" y="973" on="0"/>
        <pt x="379" y="958" on="1"/>
        <pt x="356" y="981" on="0"/>
        <pt x="356" y="1024" on="1"/>
        <pt x="356" y="1080" on="0"/>
        <pt x="453" y="1124" on="0"/>
        <pt x="547" y="1124" on="1"/>
        <pt x="775" y="1124" on="0"/>
        <pt x="1024" y="935" on="0"/>
        <pt x="1024" y="760" on="1"/>
        <pt x="1024" y="491" on="0"/>
        <pt x="696" y="401" on="1"/>
        <pt x="870" y="372" on="0"/>
        <pt x="1061" y="163" on="0"/>
        <pt x="1061" y="-2" on="1"/>
        <pt x="1061" y="-239" on="0"/>
        <pt x="776" y="-492" on="0"/>
        <pt x="508" y="-492" on="1"/>
        <pt x="283" y="-492" on="0"/>
        <pt x="29" y="-299" on="0"/>
        <pt x="29" y="-129" on="1"/>
        <pt x="29" y="-2" on="0"/>
        <pt x="201" y="135" on="0"/>
        <pt x="365" y="135" on="1"/>
        <pt x="347" y="97" on="0"/>
        <pt x="324" y="-59" on="0"/>
        <pt x="324" y="-127" on="1"/>
        <pt x="324" y="-242" on="0"/>
        <pt x="424" y="-362" on="0"/>
        <pt x="518" y="-362" on="1"/>
        <pt x="633" y="-362" on="0"/>
        <pt x="743" y="-187" on="0"/>
        <pt x="743" y="-4" on="1"/>
        <pt x="743" y="152" on="0"/>
        <pt x="579" y="332" on="0"/>
        <pt x="428" y="332" on="1"/>
        <pt x="362" y="332" on="1"/>
        <pt x="362" y="461" on="1"/>
        <pt x="436" y="461" on="1"/>
        <pt x="561" y="461" on="0"/>
        <pt x="707" y="616" on="0"/>
        <pt x="707" y="750" on="1"/>
        <pt x="707" y="995" on="0"/>
      </contour>
    </TTGlyph>
    <TTGlyph name="uni10DA" xMin="96" yMin="-492" xMax="2150" yMax="1124">
      <contour>
        <pt x="412" y="553" on="1"/>
        <pt x="412" y="-135" on="0"/>
        <pt x="1036" y="-135" on="1"/>
        <pt x="1105" y="-135" on="0"/>
        <pt x="1237" y="-119" on="1"/>
        <pt x="1368" y="-104" on="0"/>
        <pt x="1436" y="-104" on="1"/>
        <pt x="1541" y="-104" on="0"/>
        <pt x="1667" y="-205" on="0"/>
        <pt x="1667" y="-287" on="1"/>
        <pt x="1667" y="-356" on="0"/>
        <pt x="1573" y="-451" on="0"/>
        <pt x="1501" y="-455" on="1"/>
        <pt x="1476" y="-371" on="0"/>
        <pt x="1076" y="-266" on="0"/>
        <pt x="756" y="-266" on="1"/>
        <pt x="608" y="-266" on="0"/>
        <pt x="428" y="-318" on="0"/>
        <pt x="346" y="-393" on="1"/>
        <pt x="264" y="-315" on="1"/>
        <pt x="303" y="-251" on="0"/>
        <pt x="483" y="-152" on="0"/>
        <pt x="563" y="-147" on="1"/>
        <pt x="334" y="-44" on="0"/>
        <pt x="96" y="308" on="0"/>
        <pt x="96" y="549" on="1"/>
        <pt x="96" y="727" on="0"/>
        <pt x="208" y="986" on="0"/>
        <pt x="411" y="1124" on="0"/>
        <pt x="537" y="1124" on="1"/>
        <pt x="724" y="1124" on="0"/>
        <pt x="836" y="950" on="1"/>
        <pt x="889" y="1044" on="0"/>
        <pt x="1021" y="1124" on="0"/>
        <pt x="1122" y="1124" on="1"/>
        <pt x="1220" y="1124" on="0"/>
        <pt x="1360" y="1038" on="0"/>
        <pt x="1409" y="950" on="1"/>
        <pt x="1465" y="1044" on="0"/>
        <pt x="1614" y="1124" on="0"/>
        <pt x="1710" y="1124" on="1"/>
        <pt x="1837" y="1124" on="0"/>
        <pt x="2043" y="979" on="0"/>
        <pt x="2150" y="721" on="0"/>
        <pt x="2150" y="549" on="1"/>
        <pt x="2150" y="400" on="0"/>
        <pt x="2054" y="136" on="0"/>
        <pt x="1893" y="-20" on="0"/>
        <pt x="1808" y="-20" on="1"/>
        <pt x="1763" y="-20" on="0"/>
        <pt x="1724" y="27" on="0"/>
        <pt x="1724" y="59" on="1"/>
        <pt x="1783" y="94" on="0"/>
        <pt x="1835" y="335" on="0"/>
        <pt x="1835" y="553" on="1"/>
        <pt x="1835" y="774" on="0"/>
        <pt x="1770" y="993" on="0"/>
        <pt x="1690" y="993" on="1"/>
        <pt x="1610" y="993" on="0"/>
        <pt x="1546" y="773" on="0"/>
        <pt x="1546" y="553" on="1"/>
        <pt x="1546" y="492" on="1"/>
        <pt x="1268" y="492" on="1"/>
        <pt x="1268" y="553" on="1"/>
        <pt x="1268" y="773" on="0"/>
        <pt x="1202" y="993" on="0"/>
        <pt x="1122" y="993" on="1"/>
        <pt x="1042" y="993" on="0"/>
        <pt x="979" y="773" on="0"/>
        <pt x="979" y="553" on="1"/>
        <pt x="979" y="492" on="1"/>
        <pt x="700" y="492" on="1"/>
        <pt x="700" y="553" on="1"/>
        <pt x="700" y="773" on="0"/>
        <pt x="635" y="993" on="0"/>
        <pt x="555" y="993" on="1"/>
        <pt x="475" y="993" on="0"/>
        <pt x="412" y="773" on="0"/>
      </contour>
      <contour>
        <pt x="1851" y="-492" on="1"/>
      </contour>
    </TTGlyph>
    <TTGlyph name="uni10DB" xMin="96" yMin="-20" xMax="1159" yMax="1567">
      <contour>
        <pt x="596" y="1567" on="1"/>
        <pt x="1159" y="1567" on="0"/>
        <pt x="1159" y="735" on="1"/>
        <pt x="1159" y="372" on="0"/>
        <pt x="884" y="-20" on="0"/>
        <pt x="625" y="-20" on="1"/>
        <pt x="370" y="-20" on="0"/>
        <pt x="96" y="262" on="0"/>
        <pt x="96" y="526" on="1"/>
        <pt x="96" y="781" on="0"/>
        <pt x="359" y="1073" on="0"/>
        <pt x="588" y="1073" on="1"/>
        <pt x="664" y="1073" on="0"/>
        <pt x="777" y="1038" on="0"/>
        <pt x="834" y="993" on="1"/>
        <pt x="842" y="993" on="1"/>
        <pt x="809" y="1442" on="0"/>
        <pt x="592" y="1442" on="1"/>
        <pt x="551" y="1442" on="0"/>
        <pt x="472" y="1376" on="0"/>
        <pt x="422" y="1257" on="0"/>
        <pt x="418" y="1176" on="1"/>
        <pt x="311" y="1187" on="0"/>
        <pt x="203" y="1267" on="0"/>
        <pt x="203" y="1346" on="1"/>
        <pt x="203" y="1410" on="0"/>
        <pt x="296" y="1511" on="0"/>
        <pt x="472" y="1567" on="0"/>
      </contour>
      <contour>
        <pt x="414" y="526" on="1"/>
        <pt x="414" y="308" on="0"/>
        <pt x="518" y="109" on="0"/>
        <pt x="629" y="109" on="1"/>
        <pt x="727" y="109" on="0"/>
        <pt x="842" y="350" on="0"/>
        <pt x="842" y="563" on="1"/>
        <pt x="842" y="758" on="0"/>
        <pt x="736" y="942" on="0"/>
        <pt x="627" y="942" on="1"/>
        <pt x="515" y="942" on="0"/>
        <pt x="414" y="747" on="0"/>
      </contour>
    </TTGlyph>
    <TTGlyph name="uni10DC" xMin="106" yMin="-20" xMax="1169" yMax="1591">
      <contour>
        <pt x="852" y="553" on="1"/>
        <pt x="852" y="788" on="0"/>
        <pt x="751" y="993" on="0"/>
        <pt x="639" y="993" on="1"/>
        <pt x="529" y="993" on="0"/>
        <pt x="424" y="797" on="0"/>
        <pt x="424" y="592" on="1"/>
        <pt x="424" y="364" on="0"/>
        <pt x="539" y="109" on="0"/>
        <pt x="637" y="109" on="1"/>
        <pt x="749" y="109" on="0"/>
        <pt x="852" y="322" on="0"/>
      </contour>
      <contour>
        <pt x="432" y="1044" on="1"/>
        <pt x="483" y="1087" on="0"/>
        <pt x="601" y="1124" on="0"/>
        <pt x="678" y="1124" on="1"/>
        <pt x="907" y="1124" on="0"/>
        <pt x="1169" y="819" on="0"/>
        <pt x="1169" y="553" on="1"/>
        <pt x="1169" y="289" on="0"/>
        <pt x="887" y="-20" on="0"/>
        <pt x="641" y="-20" on="1"/>
        <pt x="387" y="-20" on="0"/>
        <pt x="106" y="352" on="0"/>
        <pt x="106" y="684" on="1"/>
        <pt x="106" y="937" on="0"/>
        <pt x="240" y="1349" on="0"/>
        <pt x="468" y="1581" on="0"/>
        <pt x="596" y="1581" on="1"/>
        <pt x="641" y="1581" on="0"/>
        <pt x="712" y="1566" on="0"/>
        <pt x="772" y="1538" on="1"/>
        <pt x="849" y="1501" on="0"/>
        <pt x="911" y="1501" on="1"/>
        <pt x="952" y="1501" on="0"/>
        <pt x="992" y="1542" on="0"/>
        <pt x="992" y="1575" on="1"/>
        <pt x="991" y="1591" on="1"/>
        <pt x="1120" y="1556" on="0"/>
        <pt x="1120" y="1407" on="1"/>
        <pt x="1120" y="1320" on="0"/>
        <pt x="1026" y="1219" on="0"/>
        <pt x="952" y="1219" on="1"/>
        <pt x="887" y="1219" on="0"/>
        <pt x="805" y="1277" on="0"/>
        <pt x="758" y="1350" on="1"/>
        <pt x="701" y="1450" on="0"/>
        <pt x="606" y="1450" on="1"/>
        <pt x="553" y="1450" on="0"/>
        <pt x="471" y="1354" on="0"/>
        <pt x="424" y="1172" on="0"/>
        <pt x="424" y="1044" on="1"/>
      </contour>
    </TTGlyph>
    <TTGlyph name="uni10DD" xMin="96" yMin="-20" xMax="1657" yMax="1124">
      <contour>
        <pt x="561" y="1124" on="1"/>
        <pt x="761" y="1124" on="0"/>
        <pt x="877" y="950" on="1"/>
        <pt x="984" y="1124" on="0"/>
        <pt x="1194" y="1124" on="1"/>
        <pt x="1329" y="1124" on="0"/>
        <pt x="1545" y="979" on="0"/>
        <pt x="1657" y="719" on="0"/>
        <pt x="1657" y="549" on="1"/>
        <pt x="1657" y="400" on="0"/>
        <pt x="1561" y="136" on="0"/>
        <pt x="1400" y="-20" on="0"/>
        <pt x="1315" y="-20" on="1"/>
        <pt x="1270" y="-20" on="0"/>
        <pt x="1231" y="27" on="0"/>
        <pt x="1231" y="59" on="1"/>
        <pt x="1289" y="96" on="0"/>
        <pt x="1341" y="336" on="0"/>
        <pt x="1341" y="553" on="1"/>
        <pt x="1341" y="773" on="0"/>
        <pt x="1268" y="993" on="0"/>
        <pt x="1178" y="993" on="1"/>
        <pt x="1087" y="993" on="0"/>
        <pt x="1016" y="773" on="0"/>
        <pt x="1016" y="553" on="1"/>
        <pt x="1016" y="451" on="1"/>
        <pt x="737" y="451" on="1"/>
        <pt x="737" y="553" on="1"/>
        <pt x="737" y="774" on="0"/>
        <pt x="664" y="993" on="0"/>
        <pt x="573" y="993" on="1"/>
        <pt x="483" y="993" on="0"/>
        <pt x="412" y="773" on="0"/>
        <pt x="412" y="553" on="1"/>
        <pt x="412" y="336" on="0"/>
        <pt x="464" y="95" on="0"/>
        <pt x="522" y="59" on="1"/>
        <pt x="522" y="27" on="0"/>
        <pt x="483" y="-20" on="0"/>
        <pt x="438" y="-20" on="1"/>
        <pt x="345" y="-20" on="0"/>
        <pt x="188" y="134" on="0"/>
        <pt x="96" y="401" on="0"/>
        <pt x="96" y="549" on="1"/>
        <pt x="96" y="726" on="0"/>
        <pt x="216" y="986" on="0"/>
        <pt x="427" y="1124" on="0"/>
      </contour>
    </TTGlyph>
    <TTGlyph name="uni10DE" xMin="49" yMin="-20" xMax="1081" yMax="1597">
      <contour>
        <pt x="623" y="1483" on="1"/>
        <pt x="816" y="1483" on="0"/>
        <pt x="1044" y="1297" on="0"/>
        <pt x="1044" y="1135" on="1"/>
        <pt x="1044" y="1001" on="0"/>
        <pt x="881" y="834" on="0"/>
        <pt x="717" y="791" on="1"/>
        <pt x="888" y="765" on="0"/>
        <pt x="1081" y="568" on="0"/>
        <pt x="1081" y="420" on="1"/>
        <pt x="1081" y="208" on="0"/>
        <pt x="797" y="-20" on="0"/>
        <pt x="528" y="-20" on="1"/>
        <pt x="304" y="-20" on="0"/>
        <pt x="49" y="168" on="0"/>
        <pt x="49" y="330" on="1"/>
        <pt x="49" y="586" on="0"/>
        <pt x="385" y="586" on="1"/>
        <pt x="370" y="553" on="0"/>
        <pt x="344" y="421" on="0"/>
        <pt x="344" y="356" on="1"/>
        <pt x="344" y="109" on="0"/>
        <pt x="539" y="109" on="1"/>
        <pt x="651" y="109" on="0"/>
        <pt x="764" y="258" on="0"/>
        <pt x="764" y="422" on="1"/>
        <pt x="764" y="721" on="0"/>
        <pt x="449" y="721" on="1"/>
        <pt x="383" y="721" on="1"/>
        <pt x="383" y="850" on="1"/>
        <pt x="457" y="850" on="1"/>
        <pt x="581" y="850" on="0"/>
        <pt x="727" y="996" on="0"/>
        <pt x="727" y="1122" on="1"/>
        <pt x="727" y="1235" on="0"/>
        <pt x="643" y="1354" on="0"/>
        <pt x="567" y="1354" on="1"/>
        <pt x="514" y="1354" on="0"/>
        <pt x="433" y="1331" on="1"/>
        <pt x="351" y="1307" on="0"/>
        <pt x="301" y="1307" on="1"/>
        <pt x="241" y="1307" on="0"/>
        <pt x="168" y="1392" on="0"/>
        <pt x="168" y="1458" on="1"/>
        <pt x="168" y="1509" on="0"/>
        <pt x="253" y="1588" on="0"/>
        <pt x="322" y="1597" on="1"/>
        <pt x="332" y="1518" on="0"/>
        <pt x="379" y="1470" on="0"/>
        <pt x="428" y="1470" on="1"/>
        <pt x="452" y="1472" on="1"/>
        <pt x="520" y="1483" on="0"/>
      </contour>
      <contour>
        <pt x="473" y="1556" on="1"/>
      </contour>
    </TTGlyph>
    <TTGlyph name="uni10DF" xMin="66" yMin="-492" xMax="1139" yMax="1098">
      <contour>
        <pt x="608" y="811" on="1"/>
        <pt x="713" y="755" on="0"/>
        <pt x="713" y="645" on="1"/>
        <pt x="713" y="530" on="0"/>
        <pt x="541" y="399" on="0"/>
        <pt x="389" y="399" on="1"/>
        <pt x="286" y="399" on="0"/>
        <pt x="142" y="454" on="0"/>
        <pt x="66" y="548" on="0"/>
        <pt x="66" y="608" on="1"/>
        <pt x="66" y="673" on="0"/>
        <pt x="180" y="758" on="0"/>
        <pt x="274" y="760" on="1"/>
        <pt x="274" y="671" on="0"/>
        <pt x="297" y="571" on="0"/>
        <pt x="345" y="528" on="0"/>
        <pt x="397" y="528" on="1"/>
        <pt x="444" y="528" on="0"/>
        <pt x="500" y="610" on="0"/>
        <pt x="500" y="682" on="1"/>
        <pt x="500" y="802" on="0"/>
        <pt x="410" y="854" on="1"/>
        <pt x="459" y="973" on="1"/>
        <pt x="540" y="938" on="0"/>
        <pt x="614" y="938" on="1"/>
        <pt x="711" y="938" on="0"/>
        <pt x="825" y="1010" on="0"/>
        <pt x="844" y="1098" on="1"/>
        <pt x="1139" y="1098" on="1"/>
        <pt x="1139" y="20" on="1"/>
        <pt x="1139" y="-220" on="0"/>
        <pt x="869" y="-492" on="0"/>
        <pt x="627" y="-492" on="1"/>
        <pt x="378" y="-492" on="0"/>
        <pt x="106" y="-300" on="0"/>
        <pt x="106" y="-119" on="1"/>
        <pt x="106" y="12" on="0"/>
        <pt x="287" y="158" on="0"/>
        <pt x="453" y="158" on="1"/>
        <pt x="420" y="67" on="0"/>
        <pt x="420" y="-92" on="1"/>
        <pt x="420" y="-228" on="0"/>
        <pt x="530" y="-362" on="0"/>
        <pt x="627" y="-362" on="1"/>
        <pt x="721" y="-362" on="0"/>
        <pt x="827" y="-196" on="0"/>
        <pt x="827" y="-45" on="1"/>
        <pt x="827" y="674" on="1"/>
        <pt x="827" y="788" on="0"/>
        <pt x="840" y="879" on="1"/>
        <pt x="827" y="879" on="1"/>
        <pt x="763" y="811" on="0"/>
      </contour>
    </TTGlyph>
    <TTGlyph name="uni10E0" xMin="96" yMin="-20" xMax="1657" yMax="1567">
      <contour>
        <pt x="561" y="1124" on="1"/>
        <pt x="668" y="1124" on="0"/>
        <pt x="833" y="1032" on="0"/>
        <pt x="877" y="950" on="1"/>
        <pt x="984" y="1124" on="0"/>
        <pt x="1194" y="1124" on="1"/>
        <pt x="1329" y="1124" on="0"/>
        <pt x="1545" y="979" on="0"/>
        <pt x="1657" y="719" on="0"/>
        <pt x="1657" y="549" on="1"/>
        <pt x="1657" y="400" on="0"/>
        <pt x="1561" y="136" on="0"/>
        <pt x="1400" y="-20" on="0"/>
        <pt x="1315" y="-20" on="1"/>
        <pt x="1270" y="-20" on="0"/>
        <pt x="1231" y="27" on="0"/>
        <pt x="1231" y="59" on="1"/>
        <pt x="1289" y="96" on="0"/>
        <pt x="1341" y="336" on="0"/>
        <pt x="1341" y="553" on="1"/>
        <pt x="1341" y="773" on="0"/>
        <pt x="1268" y="993" on="0"/>
        <pt x="1178" y="993" on="1"/>
        <pt x="1087" y="993" on="0"/>
        <pt x="1016" y="773" on="0"/>
        <pt x="1016" y="553" on="1"/>
        <pt x="1016" y="451" on="1"/>
        <pt x="737" y="451" on="1"/>
        <pt x="737" y="553" on="1"/>
        <pt x="737" y="774" on="0"/>
        <pt x="664" y="993" on="0"/>
        <pt x="573" y="993" on="1"/>
        <pt x="483" y="993" on="0"/>
        <pt x="412" y="773" on="0"/>
        <pt x="412" y="553" on="1"/>
        <pt x="412" y="336" on="0"/>
        <pt x="464" y="95" on="0"/>
        <pt x="522" y="59" on="1"/>
        <pt x="522" y="27" on="0"/>
        <pt x="483" y="-20" on="0"/>
        <pt x="438" y="-20" on="1"/>
        <pt x="345" y="-20" on="0"/>
        <pt x="188" y="134" on="0"/>
        <pt x="96" y="401" on="0"/>
        <pt x="96" y="549" on="1"/>
        <pt x="96" y="583" on="1"/>
        <pt x="98" y="616" on="1"/>
        <pt x="112" y="896" on="0"/>
        <pt x="360" y="1329" on="0"/>
        <pt x="787" y="1567" on="0"/>
        <pt x="1051" y="1567" on="1"/>
        <pt x="1178" y="1567" on="0"/>
        <pt x="1315" y="1487" on="0"/>
        <pt x="1315" y="1409" on="1"/>
        <pt x="1315" y="1341" on="0"/>
        <pt x="1226" y="1270" on="0"/>
        <pt x="1130" y="1255" on="1"/>
        <pt x="1121" y="1325" on="0"/>
        <pt x="1045" y="1405" on="0"/>
        <pt x="961" y="1405" on="1"/>
        <pt x="777" y="1405" on="0"/>
        <pt x="479" y="1239" on="0"/>
        <pt x="387" y="1083" on="1"/>
        <pt x="464" y="1124" on="0"/>
      </contour>
    </TTGlyph>
    <TTGlyph name="uni10E1" xMin="20" yMin="-20" xMax="1233" yMax="1556">
      <contour>
        <pt x="496" y="500" on="1"/>
        <pt x="496" y="133" on="0"/>
        <pt x="707" y="133" on="1"/>
        <pt x="822" y="133" on="0"/>
        <pt x="918" y="329" on="0"/>
        <pt x="918" y="559" on="1"/>
        <pt x="918" y="701" on="0"/>
        <pt x="860" y="934" on="0"/>
        <pt x="797" y="1042" on="1"/>
        <pt x="942" y="1135" on="1"/>
        <pt x="1084" y="997" on="0"/>
        <pt x="1233" y="696" on="0"/>
        <pt x="1233" y="541" on="1"/>
        <pt x="1233" y="278" on="0"/>
        <pt x="954" y="-20" on="0"/>
        <pt x="707" y="-20" on="1"/>
        <pt x="452" y="-20" on="0"/>
        <pt x="184" y="248" on="0"/>
        <pt x="184" y="504" on="1"/>
        <pt x="184" y="1323" on="1"/>
        <pt x="184" y="1383" on="0"/>
        <pt x="112" y="1448" on="0"/>
        <pt x="39" y="1448" on="1"/>
        <pt x="20" y="1448" on="1"/>
        <pt x="20" y="1556" on="1"/>
        <pt x="496" y="1556" on="1"/>
      </contour>
    </TTGlyph>
    <TTGlyph name="uni10E2" xMin="96" yMin="-492" xMax="1597" yMax="1567">
      <contour>
        <pt x="1597" y="322" on="1"/>
        <pt x="1597" y="72" on="0"/>
        <pt x="1419" y="-297" on="0"/>
        <pt x="1080" y="-492" on="0"/>
        <pt x="850" y="-492" on="1"/>
        <pt x="488" y="-492" on="0"/>
        <pt x="96" y="-69" on="0"/>
        <pt x="96" y="324" on="1"/>
        <pt x="96" y="649" on="0"/>
        <pt x="382" y="1050" on="0"/>
        <pt x="657" y="1100" on="1"/>
        <pt x="594" y="1145" on="0"/>
        <pt x="526" y="1251" on="0"/>
        <pt x="526" y="1323" on="1"/>
        <pt x="526" y="1434" on="0"/>
        <pt x="699" y="1567" on="0"/>
        <pt x="844" y="1567" on="1"/>
        <pt x="994" y="1567" on="0"/>
        <pt x="1167" y="1434" on="0"/>
        <pt x="1167" y="1317" on="1"/>
        <pt x="1167" y="1199" on="0"/>
        <pt x="1030" y="1102" on="1"/>
        <pt x="1304" y="1050" on="0"/>
        <pt x="1597" y="646" on="0"/>
      </contour>
      <contour>
        <pt x="414" y="322" on="1"/>
        <pt x="414" y="-11" on="0"/>
        <pt x="636" y="-362" on="0"/>
        <pt x="850" y="-362" on="1"/>
        <pt x="1064" y="-362" on="0"/>
        <pt x="1280" y="-14" on="0"/>
        <pt x="1280" y="322" on="1"/>
        <pt x="1280" y="634" on="0"/>
        <pt x="1167" y="930" on="0"/>
        <pt x="1030" y="977" on="1"/>
        <pt x="1151" y="880" on="0"/>
        <pt x="1151" y="727" on="1"/>
        <pt x="1151" y="604" on="0"/>
        <pt x="984" y="455" on="0"/>
        <pt x="850" y="455" on="1"/>
        <pt x="709" y="455" on="0"/>
        <pt x="543" y="607" on="0"/>
        <pt x="543" y="733" on="1"/>
        <pt x="543" y="792" on="0"/>
        <pt x="607" y="926" on="0"/>
        <pt x="659" y="975" on="1"/>
        <pt x="523" y="927" on="0"/>
        <pt x="414" y="632" on="0"/>
      </contour>
      <contour>
        <pt x="942" y="737" on="1"/>
        <pt x="942" y="903" on="0"/>
        <pt x="850" y="995" on="1"/>
        <pt x="802" y="951" on="0"/>
        <pt x="752" y="834" on="0"/>
        <pt x="752" y="739" on="1"/>
        <pt x="752" y="659" on="0"/>
        <pt x="796" y="584" on="0"/>
        <pt x="848" y="584" on="1"/>
        <pt x="894" y="584" on="0"/>
        <pt x="942" y="665" on="0"/>
      </contour>
      <contour>
        <pt x="752" y="1319" on="1"/>
        <pt x="752" y="1208" on="0"/>
        <pt x="842" y="1124" on="1"/>
        <pt x="898" y="1176" on="0"/>
        <pt x="942" y="1262" on="0"/>
        <pt x="942" y="1317" on="1"/>
        <pt x="942" y="1372" on="0"/>
        <pt x="888" y="1438" on="0"/>
        <pt x="844" y="1438" on="1"/>
        <pt x="804" y="1438" on="0"/>
        <pt x="752" y="1368" on="0"/>
      </contour>
    </TTGlyph>
    <TTGlyph name="uni10E3" xMin="70" yMin="-492" xMax="1126" yMax="1124">
      <contour>
        <pt x="1126" y="20" on="1"/>
        <pt x="1126" y="-217" on="0"/>
        <pt x="847" y="-492" on="0"/>
        <pt x="602" y="-492" on="1"/>
        <pt x="430" y="-492" on="0"/>
        <pt x="192" y="-401" on="0"/>
        <pt x="70" y="-234" on="0"/>
        <pt x="70" y="-119" on="1"/>
        <pt x="70" y="12" on="0"/>
        <pt x="250" y="158" on="0"/>
        <pt x="416" y="158" on="1"/>
        <pt x="383" y="67" on="0"/>
        <pt x="383" y="-92" on="1"/>
        <pt x="383" y="-221" on="0"/>
        <pt x="499" y="-362" on="0"/>
        <pt x="602" y="-362" on="1"/>
        <pt x="815" y="-362" on="0"/>
        <pt x="815" y="-45" on="1"/>
        <pt x="815" y="721" on="1"/>
        <pt x="815" y="870" on="0"/>
        <pt x="777" y="993" on="0"/>
        <pt x="731" y="993" on="1"/>
        <pt x="681" y="993" on="0"/>
        <pt x="645" y="871" on="0"/>
        <pt x="645" y="715" on="1"/>
        <pt x="645" y="592" on="1"/>
        <pt x="410" y="592" on="1"/>
        <pt x="410" y="715" on="1"/>
        <pt x="410" y="862" on="0"/>
        <pt x="377" y="993" on="0"/>
        <pt x="336" y="993" on="1"/>
        <pt x="294" y="993" on="0"/>
        <pt x="256" y="878" on="0"/>
        <pt x="256" y="745" on="1"/>
        <pt x="157" y="750" on="0"/>
        <pt x="70" y="835" on="0"/>
        <pt x="70" y="922" on="1"/>
        <pt x="70" y="1010" on="0"/>
        <pt x="197" y="1124" on="0"/>
        <pt x="291" y="1124" on="1"/>
        <pt x="389" y="1124" on="0"/>
        <pt x="499" y="1043" on="0"/>
        <pt x="526" y="950" on="1"/>
        <pt x="558" y="1038" on="0"/>
        <pt x="682" y="1124" on="0"/>
        <pt x="788" y="1124" on="1"/>
        <pt x="950" y="1124" on="0"/>
        <pt x="1126" y="889" on="0"/>
        <pt x="1126" y="674" on="1"/>
      </contour>
    </TTGlyph>
    <TTGlyph name="uni10E4" xMin="86" yMin="-492" xMax="1683" yMax="1124">
      <contour>
        <pt x="1042" y="-492" on="1"/>
        <pt x="768" y="-492" on="0"/>
        <pt x="475" y="-300" on="0"/>
        <pt x="475" y="-125" on="1"/>
        <pt x="475" y="-45" on="0"/>
        <pt x="600" y="45" on="0"/>
        <pt x="709" y="45" on="1"/>
        <pt x="709" y="-178" on="0"/>
        <pt x="869" y="-362" on="0"/>
        <pt x="1047" y="-362" on="1"/>
        <pt x="1366" y="-362" on="0"/>
        <pt x="1366" y="-4" on="1"/>
        <pt x="1366" y="157" on="0"/>
        <pt x="1246" y="332" on="0"/>
        <pt x="1139" y="332" on="1"/>
        <pt x="1110" y="332" on="1"/>
        <pt x="1110" y="461" on="1"/>
        <pt x="1139" y="461" on="1"/>
        <pt x="1221" y="461" on="0"/>
        <pt x="1309" y="608" on="0"/>
        <pt x="1309" y="750" on="1"/>
        <pt x="1309" y="864" on="0"/>
        <pt x="1212" y="995" on="0"/>
        <pt x="1128" y="995" on="1"/>
        <pt x="1036" y="995" on="0"/>
        <pt x="969" y="922" on="1"/>
        <pt x="1026" y="812" on="0"/>
        <pt x="1026" y="643" on="1"/>
        <pt x="1026" y="400" on="0"/>
        <pt x="802" y="162" on="0"/>
        <pt x="565" y="162" on="1"/>
        <pt x="332" y="162" on="0"/>
        <pt x="86" y="410" on="0"/>
        <pt x="86" y="643" on="1"/>
        <pt x="86" y="1124" on="0"/>
        <pt x="569" y="1124" on="1"/>
        <pt x="777" y="1124" on="0"/>
        <pt x="893" y="1020" on="1"/>
        <pt x="1008" y="1124" on="0"/>
        <pt x="1188" y="1124" on="1"/>
        <pt x="1396" y="1124" on="0"/>
        <pt x="1626" y="933" on="0"/>
        <pt x="1626" y="760" on="1"/>
        <pt x="1626" y="623" on="0"/>
        <pt x="1482" y="446" on="0"/>
        <pt x="1319" y="401" on="1"/>
        <pt x="1494" y="372" on="0"/>
        <pt x="1683" y="161" on="0"/>
        <pt x="1683" y="-2" on="1"/>
        <pt x="1683" y="-238" on="0"/>
        <pt x="1343" y="-492" on="0"/>
      </contour>
      <contour>
        <pt x="403" y="643" on="1"/>
        <pt x="403" y="471" on="0"/>
        <pt x="476" y="291" on="0"/>
        <pt x="567" y="291" on="1"/>
        <pt x="651" y="291" on="0"/>
        <pt x="729" y="457" on="0"/>
        <pt x="729" y="643" on="1"/>
        <pt x="729" y="829" on="0"/>
        <pt x="652" y="993" on="0"/>
        <pt x="567" y="993" on="1"/>
        <pt x="476" y="993" on="0"/>
        <pt x="403" y="818" on="0"/>
      </contour>
    </TTGlyph>
    <TTGlyph name="uni10E5" xMin="70" yMin="-492" xMax="1102" yMax="1556">
      <contour>
        <pt x="610" y="950" on="1"/>
        <pt x="449" y="950" on="0"/>
        <pt x="449" y="735" on="1"/>
        <pt x="449" y="627" on="0"/>
        <pt x="481" y="557" on="1"/>
        <pt x="300" y="557" on="0"/>
        <pt x="135" y="693" on="0"/>
        <pt x="135" y="831" on="1"/>
        <pt x="135" y="910" on="0"/>
        <pt x="230" y="1045" on="0"/>
        <pt x="401" y="1124" on="0"/>
        <pt x="504" y="1124" on="1"/>
        <pt x="612" y="1124" on="0"/>
        <pt x="752" y="1042" on="0"/>
        <pt x="786" y="979" on="1"/>
        <pt x="805" y="979" on="1"/>
        <pt x="788" y="1114" on="0"/>
        <pt x="788" y="1195" on="1"/>
        <pt x="791" y="1328" on="1"/>
        <pt x="791" y="1383" on="0"/>
        <pt x="718" y="1448" on="0"/>
        <pt x="645" y="1448" on="1"/>
        <pt x="621" y="1448" on="1"/>
        <pt x="621" y="1556" on="1"/>
        <pt x="1102" y="1556" on="1"/>
        <pt x="1102" y="20" on="1"/>
        <pt x="1102" y="-220" on="0"/>
        <pt x="832" y="-492" on="0"/>
        <pt x="590" y="-492" on="1"/>
        <pt x="340" y="-492" on="0"/>
        <pt x="70" y="-300" on="0"/>
        <pt x="70" y="-119" on="1"/>
        <pt x="70" y="12" on="0"/>
        <pt x="250" y="158" on="0"/>
        <pt x="416" y="158" on="1"/>
        <pt x="383" y="67" on="0"/>
        <pt x="383" y="-92" on="1"/>
        <pt x="383" y="-228" on="0"/>
        <pt x="493" y="-362" on="0"/>
        <pt x="590" y="-362" on="1"/>
        <pt x="684" y="-362" on="0"/>
        <pt x="791" y="-197" on="0"/>
        <pt x="791" y="-45" on="1"/>
        <pt x="788" y="633" on="1"/>
        <pt x="788" y="950" on="0"/>
      </contour>
    </TTGlyph>
    <TTGlyph name="uni10E6" xMin="96" yMin="-492" xMax="1657" yMax="1124">
      <contour>
        <pt x="96" y="549" on="1"/>
        <pt x="96" y="726" on="0"/>
        <pt x="216" y="986" on="0"/>
        <pt x="427" y="1124" on="0"/>
        <pt x="561" y="1124" on="1"/>
        <pt x="761" y="1124" on="0"/>
        <pt x="877" y="950" on="1"/>
        <pt x="984" y="1124" on="0"/>
        <pt x="1194" y="1124" on="1"/>
        <pt x="1329" y="1124" on="0"/>
        <pt x="1545" y="979" on="0"/>
        <pt x="1657" y="719" on="0"/>
        <pt x="1657" y="549" on="1"/>
        <pt x="1657" y="400" on="0"/>
        <pt x="1561" y="136" on="0"/>
        <pt x="1400" y="-20" on="0"/>
        <pt x="1315" y="-20" on="1"/>
        <pt x="1270" y="-20" on="0"/>
        <pt x="1231" y="27" on="0"/>
        <pt x="1231" y="59" on="1"/>
        <pt x="1289" y="96" on="0"/>
        <pt x="1341" y="336" on="0"/>
        <pt x="1341" y="553" on="1"/>
        <pt x="1341" y="773" on="0"/>
        <pt x="1268" y="993" on="0"/>
        <pt x="1178" y="993" on="1"/>
        <pt x="1087" y="993" on="0"/>
        <pt x="1016" y="773" on="0"/>
        <pt x="1016" y="553" on="1"/>
        <pt x="1016" y="451" on="1"/>
        <pt x="737" y="451" on="1"/>
        <pt x="737" y="553" on="1"/>
        <pt x="737" y="774" on="0"/>
        <pt x="664" y="993" on="0"/>
        <pt x="573" y="993" on="1"/>
        <pt x="483" y="993" on="0"/>
        <pt x="412" y="774" on="0"/>
        <pt x="412" y="553" on="1"/>
        <pt x="412" y="343" on="0"/>
        <pt x="507" y="31" on="0"/>
        <pt x="682" y="-135" on="0"/>
        <pt x="795" y="-135" on="1"/>
        <pt x="869" y="-135" on="0"/>
        <pt x="948" y="-119" on="1"/>
        <pt x="1027" y="-104" on="0"/>
        <pt x="1073" y="-104" on="1"/>
        <pt x="1164" y="-104" on="0"/>
        <pt x="1284" y="-206" on="0"/>
        <pt x="1284" y="-287" on="1"/>
        <pt x="1284" y="-356" on="0"/>
        <pt x="1190" y="-451" on="0"/>
        <pt x="1118" y="-455" on="1"/>
        <pt x="1103" y="-367" on="0"/>
        <pt x="858" y="-266" on="0"/>
        <pt x="653" y="-266" on="1"/>
        <pt x="539" y="-266" on="0"/>
        <pt x="382" y="-322" on="0"/>
        <pt x="305" y="-393" on="1"/>
        <pt x="223" y="-315" on="1"/>
        <pt x="257" y="-258" on="0"/>
        <pt x="417" y="-162" on="0"/>
        <pt x="481" y="-158" on="1"/>
        <pt x="285" y="-70" on="0"/>
        <pt x="96" y="273" on="0"/>
      </contour>
      <contour>
        <pt x="1304" y="-492" on="1"/>
      </contour>
    </TTGlyph>
    <TTGlyph name="uni10E7" xMin="70" yMin="-492" xMax="1102" yMax="1124">
      <contour>
        <pt x="791" y="385" on="1"/>
        <pt x="791" y="469" on="0"/>
        <pt x="807" y="625" on="1"/>
        <pt x="788" y="625" on="1"/>
        <pt x="750" y="554" on="0"/>
        <pt x="595" y="479" on="0"/>
        <pt x="485" y="479" on="1"/>
        <pt x="320" y="479" on="0"/>
        <pt x="117" y="671" on="0"/>
        <pt x="117" y="823" on="1"/>
        <pt x="117" y="959" on="0"/>
        <pt x="314" y="1124" on="0"/>
        <pt x="473" y="1124" on="1"/>
        <pt x="454" y="1082" on="0"/>
        <pt x="430" y="936" on="0"/>
        <pt x="430" y="868" on="1"/>
        <pt x="430" y="760" on="0"/>
        <pt x="508" y="653" on="0"/>
        <pt x="602" y="653" on="1"/>
        <pt x="696" y="653" on="0"/>
        <pt x="791" y="819" on="0"/>
        <pt x="791" y="971" on="1"/>
        <pt x="791" y="1098" on="1"/>
        <pt x="1102" y="1098" on="1"/>
        <pt x="1102" y="20" on="1"/>
        <pt x="1102" y="-220" on="0"/>
        <pt x="832" y="-492" on="0"/>
        <pt x="590" y="-492" on="1"/>
        <pt x="340" y="-492" on="0"/>
        <pt x="70" y="-300" on="0"/>
        <pt x="70" y="-119" on="1"/>
        <pt x="70" y="12" on="0"/>
        <pt x="250" y="158" on="0"/>
        <pt x="416" y="158" on="1"/>
        <pt x="383" y="67" on="0"/>
        <pt x="383" y="-92" on="1"/>
        <pt x="383" y="-228" on="0"/>
        <pt x="493" y="-362" on="0"/>
        <pt x="590" y="-362" on="1"/>
        <pt x="684" y="-362" on="0"/>
        <pt x="791" y="-197" on="0"/>
        <pt x="791" y="-45" on="1"/>
      </contour>
    </TTGlyph>
    <TTGlyph name="uni10E8" xMin="96" yMin="-20" xMax="1159" yMax="1565">
      <contour>
        <pt x="414" y="500" on="1"/>
        <pt x="414" y="297" on="0"/>
        <pt x="517" y="109" on="0"/>
        <pt x="629" y="109" on="1"/>
        <pt x="727" y="109" on="0"/>
        <pt x="842" y="333" on="0"/>
        <pt x="842" y="535" on="1"/>
        <pt x="842" y="717" on="0"/>
        <pt x="737" y="887" on="0"/>
        <pt x="627" y="887" on="1"/>
        <pt x="514" y="887" on="0"/>
        <pt x="414" y="704" on="0"/>
      </contour>
      <contour>
        <pt x="1159" y="729" on="1"/>
        <pt x="1159" y="-20" on="0"/>
        <pt x="625" y="-20" on="1"/>
        <pt x="377" y="-20" on="0"/>
        <pt x="96" y="272" on="0"/>
        <pt x="96" y="532" on="1"/>
        <pt x="96" y="672" on="0"/>
        <pt x="210" y="895" on="0"/>
        <pt x="419" y="1018" on="0"/>
        <pt x="553" y="1018" on="1"/>
        <pt x="640" y="1018" on="0"/>
        <pt x="771" y="979" on="0"/>
        <pt x="834" y="928" on="1"/>
        <pt x="842" y="928" on="1"/>
        <pt x="842" y="1124" on="0"/>
        <pt x="826" y="1337" on="0"/>
        <pt x="790" y="1434" on="0"/>
        <pt x="754" y="1434" on="1"/>
        <pt x="707" y="1434" on="0"/>
        <pt x="672" y="1309" on="0"/>
        <pt x="672" y="1155" on="1"/>
        <pt x="436" y="1155" on="1"/>
        <pt x="436" y="1299" on="0"/>
        <pt x="405" y="1434" on="0"/>
        <pt x="362" y="1434" on="1"/>
        <pt x="320" y="1434" on="0"/>
        <pt x="283" y="1317" on="0"/>
        <pt x="283" y="1186" on="1"/>
        <pt x="184" y="1191" on="0"/>
        <pt x="96" y="1275" on="0"/>
        <pt x="96" y="1362" on="1"/>
        <pt x="96" y="1450" on="0"/>
        <pt x="222" y="1565" on="0"/>
        <pt x="317" y="1565" on="1"/>
        <pt x="409" y="1565" on="0"/>
        <pt x="514" y="1493" on="0"/>
        <pt x="553" y="1391" on="1"/>
        <pt x="582" y="1481" on="0"/>
        <pt x="696" y="1565" on="0"/>
        <pt x="786" y="1565" on="1"/>
        <pt x="970" y="1565" on="0"/>
        <pt x="1159" y="1140" on="0"/>
      </contour>
    </TTGlyph>
    <TTGlyph name="uni10E9" xMin="33" yMin="-45" xMax="1186" yMax="1567">
      <contour>
        <pt x="197" y="1184" on="1"/>
        <pt x="197" y="1367" on="0"/>
        <pt x="399" y="1567" on="0"/>
        <pt x="582" y="1567" on="1"/>
        <pt x="724" y="1567" on="0"/>
        <pt x="881" y="1441" on="0"/>
        <pt x="881" y="1325" on="1"/>
        <pt x="881" y="1092" on="0"/>
        <pt x="555" y="1092" on="1"/>
        <pt x="508" y="1092" on="1"/>
        <pt x="508" y="1081" on="1"/>
        <pt x="508" y="997" on="0"/>
        <pt x="492" y="821" on="1"/>
        <pt x="510" y="821" on="1"/>
        <pt x="553" y="890" on="0"/>
        <pt x="691" y="967" on="0"/>
        <pt x="782" y="967" on="1"/>
        <pt x="969" y="967" on="0"/>
        <pt x="1186" y="715" on="0"/>
        <pt x="1186" y="492" on="1"/>
        <pt x="1186" y="325" on="0"/>
        <pt x="1030" y="33" on="0"/>
        <pt x="895" y="-45" on="1"/>
        <pt x="750" y="47" on="1"/>
        <pt x="815" y="144" on="0"/>
        <pt x="870" y="350" on="0"/>
        <pt x="870" y="475" on="1"/>
        <pt x="870" y="642" on="0"/>
        <pt x="779" y="793" on="0"/>
        <pt x="688" y="793" on="1"/>
        <pt x="594" y="793" on="0"/>
        <pt x="508" y="671" on="0"/>
        <pt x="508" y="532" on="1"/>
        <pt x="508" y="242" on="1"/>
        <pt x="508" y="192" on="0"/>
        <pt x="537" y="134" on="0"/>
        <pt x="593" y="109" on="0"/>
        <pt x="653" y="109" on="1"/>
        <pt x="662" y="109" on="1"/>
        <pt x="662" y="0" on="1"/>
        <pt x="33" y="0" on="1"/>
        <pt x="33" y="109" on="1"/>
        <pt x="41" y="109" on="1"/>
        <pt x="106" y="109" on="0"/>
        <pt x="166" y="136" on="0"/>
        <pt x="197" y="198" on="0"/>
        <pt x="197" y="250" on="1"/>
      </contour>
      <contour>
        <pt x="508" y="1214" on="1"/>
        <pt x="575" y="1214" on="1"/>
        <pt x="741" y="1214" on="0"/>
        <pt x="741" y="1325" on="1"/>
        <pt x="741" y="1379" on="0"/>
        <pt x="685" y="1440" on="0"/>
        <pt x="631" y="1440" on="1"/>
        <pt x="508" y="1440" on="0"/>
        <pt x="508" y="1257" on="1"/>
      </contour>
    </TTGlyph>
    <TTGlyph name="uni10EA" xMin="86" yMin="-492" xMax="1268" yMax="1126">
      <contour>
        <pt x="903" y="319" on="1"/>
        <pt x="1073" y="294" on="0"/>
        <pt x="1268" y="99" on="0"/>
        <pt x="1268" y="-51" on="1"/>
        <pt x="1268" y="-266" on="0"/>
        <pt x="974" y="-492" on="0"/>
        <pt x="686" y="-492" on="1"/>
        <pt x="393" y="-492" on="0"/>
        <pt x="86" y="-109" on="0"/>
        <pt x="86" y="285" on="1"/>
        <pt x="86" y="535" on="0"/>
        <pt x="233" y="935" on="0"/>
        <pt x="387" y="1102" on="1"/>
        <pt x="496" y="1036" on="1"/>
        <pt x="444" y="894" on="0"/>
        <pt x="403" y="551" on="0"/>
        <pt x="403" y="283" on="1"/>
        <pt x="403" y="-52" on="0"/>
        <pt x="533" y="-362" on="0"/>
        <pt x="682" y="-362" on="1"/>
        <pt x="806" y="-362" on="0"/>
        <pt x="950" y="-194" on="0"/>
        <pt x="950" y="-49" on="1"/>
        <pt x="950" y="111" on="0"/>
        <pt x="811" y="250" on="0"/>
        <pt x="664" y="250" on="1"/>
        <pt x="590" y="250" on="1"/>
        <pt x="590" y="379" on="1"/>
        <pt x="664" y="379" on="1"/>
        <pt x="783" y="379" on="0"/>
        <pt x="913" y="518" on="0"/>
        <pt x="913" y="651" on="1"/>
        <pt x="913" y="870" on="0"/>
        <pt x="733" y="870" on="1"/>
        <pt x="559" y="870" on="0"/>
        <pt x="559" y="1004" on="1"/>
        <pt x="559" y="1058" on="0"/>
        <pt x="645" y="1124" on="0"/>
        <pt x="713" y="1126" on="1"/>
        <pt x="713" y="1055" on="0"/>
        <pt x="768" y="999" on="0"/>
        <pt x="827" y="999" on="1"/>
        <pt x="1017" y="999" on="0"/>
        <pt x="1231" y="823" on="0"/>
        <pt x="1231" y="664" on="1"/>
        <pt x="1231" y="530" on="0"/>
        <pt x="1067" y="363" on="0"/>
      </contour>
    </TTGlyph>
    <TTGlyph name="uni10EB" xMin="96" yMin="-20" xMax="1159" yMax="1577">
      <contour>
        <pt x="588" y="1124" on="1"/>
        <pt x="667" y="1124" on="0"/>
        <pt x="783" y="1086" on="0"/>
        <pt x="834" y="1044" on="1"/>
        <pt x="842" y="1044" on="1"/>
        <pt x="820" y="1173" on="0"/>
        <pt x="704" y="1427" on="0"/>
        <pt x="647" y="1491" on="1"/>
        <pt x="745" y="1577" on="1"/>
        <pt x="959" y="1408" on="0"/>
        <pt x="1159" y="964" on="0"/>
        <pt x="1159" y="684" on="1"/>
        <pt x="1159" y="354" on="0"/>
        <pt x="880" y="-20" on="0"/>
        <pt x="625" y="-20" on="1"/>
        <pt x="370" y="-20" on="0"/>
        <pt x="96" y="274" on="0"/>
        <pt x="96" y="553" on="1"/>
        <pt x="96" y="817" on="0"/>
        <pt x="357" y="1124" on="0"/>
      </contour>
      <contour>
        <pt x="414" y="553" on="1"/>
        <pt x="414" y="321" on="0"/>
        <pt x="517" y="109" on="0"/>
        <pt x="629" y="109" on="1"/>
        <pt x="727" y="109" on="0"/>
        <pt x="842" y="364" on="0"/>
        <pt x="842" y="592" on="1"/>
        <pt x="842" y="798" on="0"/>
        <pt x="737" y="993" on="0"/>
        <pt x="627" y="993" on="1"/>
        <pt x="515" y="993" on="0"/>
        <pt x="414" y="787" on="0"/>
      </contour>
    </TTGlyph>
    <TTGlyph name="uni10EC" xMin="106" yMin="-20" xMax="1169" yMax="1565">
      <contour>
        <pt x="852" y="500" on="1"/>
        <pt x="852" y="706" on="0"/>
        <pt x="752" y="887" on="0"/>
        <pt x="639" y="887" on="1"/>
        <pt x="529" y="887" on="0"/>
        <pt x="424" y="717" on="0"/>
        <pt x="424" y="535" on="1"/>
        <pt x="424" y="334" on="0"/>
        <pt x="539" y="109" on="0"/>
        <pt x="637" y="109" on="1"/>
        <pt x="749" y="109" on="0"/>
        <pt x="852" y="296" on="0"/>
      </contour>
      <contour>
        <pt x="106" y="729" on="1"/>
        <pt x="106" y="1128" on="0"/>
        <pt x="302" y="1565" on="0"/>
        <pt x="479" y="1565" on="1"/>
        <pt x="571" y="1565" on="0"/>
        <pt x="685" y="1480" on="0"/>
        <pt x="713" y="1391" on="1"/>
        <pt x="752" y="1493" on="0"/>
        <pt x="857" y="1565" on="0"/>
        <pt x="948" y="1565" on="1"/>
        <pt x="1043" y="1565" on="0"/>
        <pt x="1169" y="1450" on="0"/>
        <pt x="1169" y="1362" on="1"/>
        <pt x="1169" y="1275" on="0"/>
        <pt x="1082" y="1191" on="0"/>
        <pt x="983" y="1186" on="1"/>
        <pt x="983" y="1320" on="0"/>
        <pt x="945" y="1434" on="0"/>
        <pt x="903" y="1434" on="1"/>
        <pt x="861" y="1434" on="0"/>
        <pt x="829" y="1301" on="0"/>
        <pt x="829" y="1155" on="1"/>
        <pt x="594" y="1155" on="1"/>
        <pt x="594" y="1310" on="0"/>
        <pt x="558" y="1434" on="0"/>
        <pt x="512" y="1434" on="1"/>
        <pt x="476" y="1434" on="0"/>
        <pt x="441" y="1340" on="0"/>
        <pt x="424" y="1136" on="0"/>
        <pt x="424" y="928" on="1"/>
        <pt x="432" y="928" on="1"/>
        <pt x="491" y="978" on="0"/>
        <pt x="624" y="1018" on="0"/>
        <pt x="713" y="1018" on="1"/>
        <pt x="846" y="1018" on="0"/>
        <pt x="1055" y="895" on="0"/>
        <pt x="1169" y="671" on="0"/>
        <pt x="1169" y="532" on="1"/>
        <pt x="1169" y="272" on="0"/>
        <pt x="890" y="-20" on="0"/>
        <pt x="641" y="-20" on="1"/>
        <pt x="106" y="-20" on="0"/>
      </contour>
    </TTGlyph>
    <TTGlyph name="uni10ED" xMin="70" yMin="-492" xMax="1112" yMax="1556">
      <contour>
        <pt x="803" y="885" on="1"/>
        <pt x="1040" y="764" on="0"/>
        <pt x="1040" y="645" on="1"/>
        <pt x="1040" y="615" on="0"/>
        <pt x="1021" y="537" on="0"/>
        <pt x="1010" y="520" on="1"/>
        <pt x="955" y="633" on="0"/>
        <pt x="803" y="721" on="1"/>
        <pt x="803" y="471" on="1"/>
        <pt x="803" y="395" on="0"/>
        <pt x="831" y="327" on="0"/>
        <pt x="874" y="297" on="1"/>
        <pt x="978" y="227" on="0"/>
        <pt x="1067" y="125" on="0"/>
        <pt x="1112" y="0" on="0"/>
        <pt x="1112" y="-84" on="1"/>
        <pt x="1112" y="-492" on="0"/>
        <pt x="578" y="-492" on="1"/>
        <pt x="336" y="-492" on="0"/>
        <pt x="70" y="-310" on="0"/>
        <pt x="70" y="-150" on="1"/>
        <pt x="70" y="-7" on="0"/>
        <pt x="236" y="133" on="0"/>
        <pt x="414" y="135" on="1"/>
        <pt x="393" y="92" on="0"/>
        <pt x="367" y="-58" on="0"/>
        <pt x="367" y="-119" on="1"/>
        <pt x="367" y="-362" on="0"/>
        <pt x="582" y="-362" on="1"/>
        <pt x="683" y="-362" on="0"/>
        <pt x="795" y="-220" on="0"/>
        <pt x="795" y="-84" on="1"/>
        <pt x="795" y="49" on="0"/>
        <pt x="743" y="192" on="0"/>
        <pt x="672" y="238" on="1"/>
        <pt x="597" y="284" on="0"/>
        <pt x="523" y="362" on="0"/>
        <pt x="492" y="459" on="0"/>
        <pt x="492" y="553" on="1"/>
        <pt x="492" y="571" on="1"/>
        <pt x="421" y="516" on="0"/>
        <pt x="346" y="516" on="1"/>
        <pt x="220" y="516" on="0"/>
        <pt x="80" y="654" on="0"/>
        <pt x="80" y="774" on="1"/>
        <pt x="80" y="889" on="0"/>
        <pt x="238" y="1024" on="0"/>
        <pt x="377" y="1024" on="1"/>
        <pt x="430" y="1024" on="0"/>
        <pt x="492" y="1012" on="1"/>
        <pt x="492" y="1317" on="1"/>
        <pt x="492" y="1366" on="0"/>
        <pt x="463" y="1423" on="0"/>
        <pt x="407" y="1448" on="0"/>
        <pt x="346" y="1448" on="1"/>
        <pt x="338" y="1448" on="1"/>
        <pt x="338" y="1556" on="1"/>
        <pt x="803" y="1556" on="1"/>
      </contour>
      <contour>
        <pt x="383" y="670" on="1"/>
        <pt x="408" y="670" on="0"/>
        <pt x="459" y="718" on="0"/>
        <pt x="492" y="802" on="0"/>
        <pt x="492" y="854" on="1"/>
        <pt x="437" y="879" on="0"/>
        <pt x="389" y="879" on="1"/>
        <pt x="352" y="879" on="0"/>
        <pt x="295" y="821" on="0"/>
        <pt x="295" y="774" on="1"/>
        <pt x="295" y="670" on="0"/>
      </contour>
    </TTGlyph>
    <TTGlyph name="uni10EE" xMin="-10" yMin="-20" xMax="1180" yMax="1556">
      <contour>
        <pt x="461" y="553" on="1"/>
        <pt x="461" y="319" on="0"/>
        <pt x="558" y="109" on="0"/>
        <pt x="662" y="109" on="1"/>
        <pt x="767" y="109" on="0"/>
        <pt x="862" y="321" on="0"/>
        <pt x="862" y="555" on="1"/>
        <pt x="862" y="764" on="0"/>
        <pt x="773" y="971" on="0"/>
        <pt x="670" y="971" on="1"/>
        <pt x="557" y="971" on="0"/>
        <pt x="461" y="782" on="0"/>
      </contour>
      <contour>
        <pt x="150" y="1311" on="1"/>
        <pt x="150" y="1381" on="0"/>
        <pt x="84" y="1448" on="0"/>
        <pt x="-2" y="1448" on="1"/>
        <pt x="-10" y="1448" on="1"/>
        <pt x="-10" y="1556" on="1"/>
        <pt x="461" y="1556" on="1"/>
        <pt x="461" y="1206" on="1"/>
        <pt x="461" y="1158" on="0"/>
        <pt x="444" y="958" on="1"/>
        <pt x="459" y="958" on="1"/>
        <pt x="554" y="1122" on="0"/>
        <pt x="766" y="1122" on="1"/>
        <pt x="1180" y="1122" on="0"/>
        <pt x="1180" y="553" on="1"/>
        <pt x="1180" y="264" on="0"/>
        <pt x="914" y="-20" on="0"/>
        <pt x="659" y="-20" on="1"/>
        <pt x="412" y="-20" on="0"/>
        <pt x="150" y="271" on="0"/>
        <pt x="150" y="553" on="1"/>
      </contour>
    </TTGlyph>
    <TTGlyph name="uni10EF" xMin="66" yMin="-492" xMax="1108" yMax="1098">
      <contour>
        <pt x="426" y="791" on="1"/>
        <pt x="426" y="858" on="1"/>
        <pt x="426" y="907" on="0"/>
        <pt x="397" y="964" on="0"/>
        <pt x="340" y="989" on="0"/>
        <pt x="281" y="989" on="1"/>
        <pt x="272" y="989" on="1"/>
        <pt x="272" y="1098" on="1"/>
        <pt x="737" y="1098" on="1"/>
        <pt x="737" y="694" on="1"/>
        <pt x="1053" y="567" on="1"/>
        <pt x="1053" y="424" on="1"/>
        <pt x="737" y="551" on="1"/>
        <pt x="737" y="471" on="1"/>
        <pt x="737" y="406" on="0"/>
        <pt x="787" y="332" on="0"/>
        <pt x="848" y="297" on="1"/>
        <pt x="956" y="237" on="0"/>
        <pt x="1059" y="135" on="0"/>
        <pt x="1108" y="6" on="0"/>
        <pt x="1108" y="-84" on="1"/>
        <pt x="1108" y="-492" on="0"/>
        <pt x="573" y="-492" on="1"/>
        <pt x="332" y="-492" on="0"/>
        <pt x="66" y="-310" on="0"/>
        <pt x="66" y="-150" on="1"/>
        <pt x="66" y="-7" on="0"/>
        <pt x="232" y="133" on="0"/>
        <pt x="410" y="135" on="1"/>
        <pt x="388" y="88" on="0"/>
        <pt x="362" y="-59" on="0"/>
        <pt x="362" y="-119" on="1"/>
        <pt x="362" y="-362" on="0"/>
        <pt x="578" y="-362" on="1"/>
        <pt x="680" y="-362" on="0"/>
        <pt x="791" y="-216" on="0"/>
        <pt x="791" y="-84" on="1"/>
        <pt x="791" y="55" on="0"/>
        <pt x="724" y="195" on="0"/>
        <pt x="643" y="238" on="1"/>
        <pt x="512" y="305" on="0"/>
        <pt x="426" y="430" on="0"/>
        <pt x="426" y="553" on="1"/>
        <pt x="426" y="647" on="1"/>
        <pt x="147" y="762" on="1"/>
        <pt x="147" y="905" on="1"/>
      </contour>
    </TTGlyph>
    <TTGlyph name="uni10F0" xMin="49" yMin="-20" xMax="1100" yMax="1597">
      <contour>
        <pt x="737" y="1206" on="1"/>
        <pt x="737" y="1354" on="0"/>
        <pt x="569" y="1354" on="1"/>
        <pt x="505" y="1354" on="0"/>
        <pt x="407" y="1331" on="1"/>
        <pt x="308" y="1307" on="0"/>
        <pt x="262" y="1307" on="1"/>
        <pt x="129" y="1307" on="0"/>
        <pt x="129" y="1458" on="1"/>
        <pt x="129" y="1509" on="0"/>
        <pt x="214" y="1588" on="0"/>
        <pt x="283" y="1597" on="1"/>
        <pt x="293" y="1518" on="0"/>
        <pt x="340" y="1470" on="0"/>
        <pt x="389" y="1470" on="1"/>
        <pt x="424" y="1470" on="0"/>
        <pt x="486" y="1477" on="1"/>
        <pt x="548" y="1483" on="0"/>
        <pt x="625" y="1483" on="1"/>
        <pt x="847" y="1483" on="0"/>
        <pt x="1055" y="1354" on="0"/>
        <pt x="1055" y="1227" on="1"/>
        <pt x="1055" y="1127" on="0"/>
        <pt x="892" y="1016" on="0"/>
        <pt x="698" y="987" on="1"/>
        <pt x="886" y="981" on="0"/>
        <pt x="1055" y="866" on="0"/>
        <pt x="1055" y="745" on="1"/>
        <pt x="1055" y="651" on="0"/>
        <pt x="904" y="539" on="0"/>
        <pt x="735" y="516" on="1"/>
        <pt x="1100" y="480" on="0"/>
        <pt x="1100" y="252" on="1"/>
        <pt x="1100" y="118" on="0"/>
        <pt x="810" y="-20" on="0"/>
        <pt x="547" y="-20" on="1"/>
        <pt x="403" y="-20" on="0"/>
        <pt x="174" y="43" on="0"/>
        <pt x="49" y="158" on="0"/>
        <pt x="49" y="229" on="1"/>
        <pt x="49" y="314" on="0"/>
        <pt x="196" y="401" on="0"/>
        <pt x="336" y="401" on="1"/>
        <pt x="336" y="245" on="0"/>
        <pt x="434" y="109" on="0"/>
        <pt x="547" y="109" on="1"/>
        <pt x="782" y="109" on="0"/>
        <pt x="782" y="264" on="1"/>
        <pt x="782" y="352" on="0"/>
        <pt x="643" y="446" on="0"/>
        <pt x="516" y="446" on="1"/>
        <pt x="395" y="446" on="1"/>
        <pt x="395" y="575" on="1"/>
        <pt x="475" y="575" on="1"/>
        <pt x="598" y="575" on="0"/>
        <pt x="737" y="660" on="0"/>
        <pt x="737" y="737" on="1"/>
        <pt x="737" y="825" on="0"/>
        <pt x="607" y="918" on="0"/>
        <pt x="479" y="918" on="1"/>
        <pt x="395" y="918" on="1"/>
        <pt x="395" y="1047" on="1"/>
        <pt x="479" y="1047" on="1"/>
        <pt x="611" y="1047" on="0"/>
        <pt x="737" y="1137" on="0"/>
      </contour>
      <contour>
        <pt x="561" y="1556" on="1"/>
      </contour>
    </TTGlyph>
    <TTGlyph name="uni10F1" xMin="96" yMin="-20" xMax="1327" yMax="1579">
      <contour>
        <pt x="473" y="1561" on="1"/>
        <pt x="588" y="1561" on="0"/>
        <pt x="715" y="1353" on="0"/>
        <pt x="715" y="1153" on="1"/>
        <pt x="715" y="939" on="0"/>
        <pt x="551" y="682" on="0"/>
        <pt x="395" y="649" on="1"/>
        <pt x="402" y="451" on="0"/>
        <pt x="475" y="215" on="0"/>
        <pt x="611" y="109" on="0"/>
        <pt x="745" y="109" on="1"/>
        <pt x="1010" y="109" on="0"/>
        <pt x="1010" y="264" on="1"/>
        <pt x="1010" y="354" on="0"/>
        <pt x="878" y="446" on="0"/>
        <pt x="754" y="446" on="1"/>
        <pt x="739" y="446" on="1"/>
        <pt x="739" y="575" on="1"/>
        <pt x="754" y="575" on="1"/>
        <pt x="985" y="575" on="0"/>
        <pt x="985" y="737" on="1"/>
        <pt x="985" y="833" on="0"/>
        <pt x="898" y="918" on="0"/>
        <pt x="803" y="918" on="1"/>
        <pt x="788" y="918" on="1"/>
        <pt x="788" y="1047" on="1"/>
        <pt x="803" y="1047" on="1"/>
        <pt x="985" y="1047" on="0"/>
        <pt x="985" y="1206" on="1"/>
        <pt x="985" y="1259" on="0"/>
        <pt x="933" y="1319" on="0"/>
        <pt x="876" y="1337" on="1"/>
        <pt x="817" y="1355" on="0"/>
        <pt x="766" y="1420" on="0"/>
        <pt x="766" y="1475" on="1"/>
        <pt x="766" y="1518" on="0"/>
        <pt x="830" y="1579" on="0"/>
        <pt x="883" y="1579" on="1"/>
        <pt x="931" y="1579" on="0"/>
        <pt x="958" y="1567" on="1"/>
        <pt x="943" y="1556" on="0"/>
        <pt x="926" y="1528" on="0"/>
        <pt x="926" y="1497" on="1"/>
        <pt x="926" y="1451" on="0"/>
        <pt x="1005" y="1402" on="0"/>
        <pt x="1115" y="1383" on="1"/>
        <pt x="1209" y="1366" on="0"/>
        <pt x="1303" y="1281" on="0"/>
        <pt x="1303" y="1206" on="1"/>
        <pt x="1303" y="1108" on="0"/>
        <pt x="1152" y="1010" on="0"/>
        <pt x="967" y="987" on="1"/>
        <pt x="1303" y="975" on="0"/>
        <pt x="1303" y="745" on="1"/>
        <pt x="1303" y="651" on="0"/>
        <pt x="1152" y="539" on="0"/>
        <pt x="983" y="516" on="1"/>
        <pt x="1162" y="498" on="0"/>
        <pt x="1327" y="368" on="0"/>
        <pt x="1327" y="252" on="1"/>
        <pt x="1327" y="122" on="0"/>
        <pt x="1034" y="-20" on="0"/>
        <pt x="748" y="-20" on="1"/>
        <pt x="407" y="-20" on="0"/>
        <pt x="96" y="352" on="0"/>
        <pt x="96" y="756" on="1"/>
        <pt x="96" y="1004" on="0"/>
        <pt x="192" y="1368" on="0"/>
        <pt x="364" y="1561" on="0"/>
      </contour>
      <contour>
        <pt x="481" y="1432" on="1"/>
        <pt x="433" y="1432" on="0"/>
        <pt x="393" y="1088" on="0"/>
        <pt x="393" y="778" on="1"/>
        <pt x="469" y="804" on="0"/>
        <pt x="547" y="980" on="0"/>
        <pt x="547" y="1147" on="1"/>
        <pt x="547" y="1432" on="0"/>
      </contour>
    </TTGlyph>
    <TTGlyph name="uni10F2" xMin="41" yMin="-168" xMax="1231" yMax="1124">
      <contour>
        <pt x="1231" y="0" on="1"/>
        <pt x="1231" y="-63" on="0"/>
        <pt x="1139" y="-168" on="0"/>
        <pt x="1087" y="-168" on="1"/>
        <pt x="1020" y="-168" on="0"/>
        <pt x="862" y="-116" on="0"/>
        <pt x="750" y="-56" on="1"/>
        <pt x="639" y="0" on="1"/>
        <pt x="529" y="-56" on="1"/>
        <pt x="418" y="-115" on="0"/>
        <pt x="253" y="-168" on="0"/>
        <pt x="184" y="-168" on="1"/>
        <pt x="134" y="-168" on="0"/>
        <pt x="41" y="-64" on="0"/>
        <pt x="41" y="0" on="1"/>
        <pt x="233" y="3" on="0"/>
        <pt x="444" y="100" on="1"/>
        <pt x="104" y="332" on="0"/>
        <pt x="104" y="655" on="1"/>
        <pt x="104" y="797" on="0"/>
        <pt x="230" y="1010" on="0"/>
        <pt x="471" y="1124" on="0"/>
        <pt x="639" y="1124" on="1"/>
        <pt x="796" y="1124" on="0"/>
        <pt x="1037" y="1006" on="0"/>
        <pt x="1167" y="789" on="0"/>
        <pt x="1167" y="649" on="1"/>
        <pt x="1167" y="476" on="0"/>
        <pt x="982" y="189" on="0"/>
        <pt x="813" y="100" on="1"/>
        <pt x="961" y="42" on="0"/>
        <pt x="1150" y="1" on="0"/>
      </contour>
      <contour>
        <pt x="422" y="653" on="1"/>
        <pt x="422" y="509" on="0"/>
        <pt x="521" y="304" on="0"/>
        <pt x="629" y="217" on="1"/>
        <pt x="744" y="296" on="0"/>
        <pt x="850" y="504" on="0"/>
        <pt x="850" y="653" on="1"/>
        <pt x="850" y="815" on="0"/>
        <pt x="741" y="993" on="0"/>
        <pt x="635" y="993" on="1"/>
        <pt x="533" y="993" on="0"/>
        <pt x="422" y="814" on="0"/>
      </contour>
    </TTGlyph>
    <TTGlyph name="uni10F3" xMin="29" yMin="-492" xMax="1081" yMax="1098">
      <contour>
        <pt x="696" y="451" on="1"/>
        <pt x="880" y="418" on="0"/>
        <pt x="1081" y="193" on="0"/>
        <pt x="1081" y="25" on="1"/>
        <pt x="1081" y="-223" on="0"/>
        <pt x="791" y="-492" on="0"/>
        <pt x="518" y="-492" on="1"/>
        <pt x="292" y="-492" on="0"/>
        <pt x="29" y="-297" on="0"/>
        <pt x="29" y="-129" on="1"/>
        <pt x="29" y="-2" on="0"/>
        <pt x="201" y="135" on="0"/>
        <pt x="365" y="135" on="1"/>
        <pt x="347" y="97" on="0"/>
        <pt x="324" y="-59" on="0"/>
        <pt x="324" y="-127" on="1"/>
        <pt x="324" y="-239" on="0"/>
        <pt x="433" y="-362" on="0"/>
        <pt x="528" y="-362" on="1"/>
        <pt x="764" y="-362" on="0"/>
        <pt x="764" y="20" on="1"/>
        <pt x="764" y="176" on="0"/>
        <pt x="596" y="360" on="0"/>
        <pt x="459" y="360" on="1"/>
        <pt x="332" y="360" on="1"/>
        <pt x="332" y="489" on="1"/>
        <pt x="442" y="489" on="1"/>
        <pt x="581" y="489" on="0"/>
        <pt x="707" y="680" on="0"/>
        <pt x="707" y="872" on="1"/>
        <pt x="344" y="872" on="1"/>
        <pt x="273" y="872" on="0"/>
        <pt x="211" y="811" on="0"/>
        <pt x="211" y="727" on="1"/>
        <pt x="211" y="719" on="1"/>
        <pt x="102" y="719" on="1"/>
        <pt x="119" y="1098" on="1"/>
        <pt x="993" y="1098" on="1"/>
        <pt x="993" y="940" on="1"/>
        <pt x="993" y="741" on="0"/>
        <pt x="843" y="491" on="0"/>
      </contour>
    </TTGlyph>
    <TTGlyph name="uni10F4" xMin="29" yMin="-492" xMax="1061" yMax="1567">
      <contour>
        <pt x="707" y="682" on="1"/>
        <pt x="707" y="787" on="0"/>
        <pt x="616" y="897" on="0"/>
        <pt x="498" y="934" on="1"/>
        <pt x="343" y="985" on="0"/>
        <pt x="207" y="1065" on="0"/>
        <pt x="143" y="1169" on="0"/>
        <pt x="143" y="1241" on="1"/>
        <pt x="143" y="1397" on="0"/>
        <pt x="386" y="1567" on="0"/>
        <pt x="608" y="1567" on="1"/>
        <pt x="788" y="1567" on="0"/>
        <pt x="985" y="1455" on="0"/>
        <pt x="985" y="1354" on="1"/>
        <pt x="985" y="1196" on="0"/>
        <pt x="797" y="1196" on="1"/>
        <pt x="797" y="1317" on="0"/>
        <pt x="685" y="1450" on="0"/>
        <pt x="575" y="1450" on="1"/>
        <pt x="499" y="1450" on="0"/>
        <pt x="387" y="1364" on="0"/>
        <pt x="387" y="1303" on="1"/>
        <pt x="387" y="1212" on="0"/>
        <pt x="500" y="1108" on="0"/>
        <pt x="621" y="1073" on="1"/>
        <pt x="829" y="1024" on="0"/>
        <pt x="1024" y="841" on="0"/>
        <pt x="1024" y="692" on="1"/>
        <pt x="1024" y="555" on="0"/>
        <pt x="860" y="379" on="0"/>
        <pt x="696" y="334" on="1"/>
        <pt x="867" y="308" on="0"/>
        <pt x="1061" y="113" on="0"/>
        <pt x="1061" y="-39" on="1"/>
        <pt x="1061" y="-260" on="0"/>
        <pt x="774" y="-492" on="0"/>
        <pt x="508" y="-492" on="1"/>
        <pt x="285" y="-492" on="0"/>
        <pt x="29" y="-309" on="0"/>
        <pt x="29" y="-145" on="1"/>
        <pt x="29" y="-25" on="0"/>
        <pt x="203" y="106" on="0"/>
        <pt x="365" y="106" on="1"/>
        <pt x="347" y="70" on="0"/>
        <pt x="324" y="-79" on="0"/>
        <pt x="324" y="-141" on="1"/>
        <pt x="324" y="-250" on="0"/>
        <pt x="425" y="-362" on="0"/>
        <pt x="518" y="-362" on="1"/>
        <pt x="630" y="-362" on="0"/>
        <pt x="743" y="-208" on="0"/>
        <pt x="743" y="-39" on="1"/>
        <pt x="743" y="103" on="0"/>
        <pt x="576" y="264" on="0"/>
        <pt x="428" y="264" on="1"/>
        <pt x="332" y="264" on="1"/>
        <pt x="332" y="393" on="1"/>
        <pt x="436" y="393" on="1"/>
        <pt x="561" y="393" on="0"/>
        <pt x="707" y="548" on="0"/>
      </contour>
    </TTGlyph>
    <TTGlyph name="uni10F5" xMin="94" yMin="-20" xMax="1368" yMax="1567">
      <contour>
        <pt x="608" y="109" on="1"/>
        <pt x="717" y="109" on="0"/>
        <pt x="811" y="265" on="0"/>
        <pt x="811" y="453" on="1"/>
        <pt x="811" y="582" on="1"/>
        <pt x="643" y="582" on="1"/>
        <pt x="522" y="582" on="0"/>
        <pt x="410" y="469" on="0"/>
        <pt x="410" y="342" on="1"/>
        <pt x="410" y="223" on="0"/>
        <pt x="499" y="109" on="0"/>
      </contour>
      <contour>
        <pt x="1368" y="727" on="1"/>
        <pt x="1368" y="582" on="1"/>
        <pt x="1122" y="582" on="1"/>
        <pt x="1122" y="463" on="1"/>
        <pt x="1122" y="225" on="0"/>
        <pt x="865" y="-20" on="0"/>
        <pt x="608" y="-20" on="1"/>
        <pt x="346" y="-20" on="0"/>
        <pt x="94" y="163" on="0"/>
        <pt x="94" y="346" on="1"/>
        <pt x="94" y="542" on="0"/>
        <pt x="363" y="727" on="0"/>
        <pt x="637" y="727" on="1"/>
        <pt x="811" y="727" on="1"/>
        <pt x="811" y="881" on="1"/>
        <pt x="637" y="881" on="1"/>
        <pt x="362" y="881" on="0"/>
        <pt x="94" y="1050" on="0"/>
        <pt x="94" y="1231" on="1"/>
        <pt x="94" y="1406" on="0"/>
        <pt x="354" y="1567" on="0"/>
        <pt x="608" y="1567" on="1"/>
        <pt x="863" y="1567" on="0"/>
        <pt x="1122" y="1348" on="0"/>
        <pt x="1122" y="1133" on="1"/>
        <pt x="1122" y="1026" on="1"/>
        <pt x="1368" y="1026" on="1"/>
        <pt x="1368" y="881" on="1"/>
        <pt x="1122" y="881" on="1"/>
        <pt x="1122" y="727" on="1"/>
      </contour>
      <contour>
        <pt x="608" y="1438" on="1"/>
        <pt x="499" y="1438" on="0"/>
        <pt x="410" y="1338" on="0"/>
        <pt x="410" y="1235" on="1"/>
        <pt x="410" y="1125" on="0"/>
        <pt x="522" y="1026" on="0"/>
        <pt x="643" y="1026" on="1"/>
        <pt x="811" y="1026" on="1"/>
        <pt x="811" y="1139" on="1"/>
        <pt x="811" y="1303" on="0"/>
        <pt x="715" y="1438" on="0"/>
      </contour>
    </TTGlyph>
    <TTGlyph name="uni10F6" xMin="94" yMin="-492" xMax="1839" yMax="1124">
      <contour>
        <pt x="569" y="1124" on="1"/>
        <pt x="710" y="1124" on="0"/>
        <pt x="902" y="1010" on="0"/>
        <pt x="961" y="893" on="1"/>
        <pt x="1027" y="1014" on="0"/>
        <pt x="1219" y="1124" on="0"/>
        <pt x="1360" y="1124" on="1"/>
        <pt x="1593" y="1124" on="0"/>
        <pt x="1839" y="830" on="0"/>
        <pt x="1839" y="553" on="1"/>
        <pt x="1839" y="-20" on="0"/>
        <pt x="1425" y="-20" on="1"/>
        <pt x="1222" y="-20" on="0"/>
        <pt x="1120" y="143" on="1"/>
        <pt x="1106" y="143" on="1"/>
        <pt x="1117" y="-6" on="1"/>
        <pt x="1122" y="-106" on="1"/>
        <pt x="1122" y="-492" on="1"/>
        <pt x="811" y="-492" on="1"/>
        <pt x="811" y="-106" on="1"/>
        <pt x="814" y="-47" on="1"/>
        <pt x="827" y="143" on="1"/>
        <pt x="813" y="143" on="1"/>
        <pt x="715" y="-20" on="0"/>
        <pt x="508" y="-20" on="1"/>
        <pt x="94" y="-20" on="0"/>
        <pt x="94" y="553" on="1"/>
        <pt x="94" y="830" on="0"/>
        <pt x="338" y="1124" on="0"/>
      </contour>
      <contour>
        <pt x="811" y="549" on="1"/>
        <pt x="811" y="769" on="0"/>
        <pt x="721" y="993" on="0"/>
        <pt x="610" y="993" on="1"/>
        <pt x="507" y="993" on="0"/>
        <pt x="413" y="790" on="0"/>
        <pt x="410" y="549" on="1"/>
        <pt x="410" y="344" on="0"/>
        <pt x="497" y="131" on="0"/>
        <pt x="600" y="131" on="1"/>
        <pt x="710" y="131" on="0"/>
        <pt x="811" y="322" on="0"/>
      </contour>
      <contour>
        <pt x="1122" y="549" on="1"/>
        <pt x="1122" y="322" on="0"/>
        <pt x="1223" y="131" on="0"/>
        <pt x="1333" y="131" on="1"/>
        <pt x="1436" y="131" on="0"/>
        <pt x="1524" y="343" on="0"/>
        <pt x="1524" y="549" on="1"/>
        <pt x="1522" y="788" on="0"/>
        <pt x="1426" y="993" on="0"/>
        <pt x="1323" y="993" on="1"/>
        <pt x="1213" y="993" on="0"/>
        <pt x="1122" y="769" on="0"/>
      </contour>
    </TTGlyph>
    <TTGlyph name="uni10F7" xMin="33" yMin="-492" xMax="1040" yMax="1124">
      <contour>
        <pt x="307" y="696" on="1"/>
        <pt x="195" y="696" on="0"/>
        <pt x="98" y="768" on="0"/>
        <pt x="98" y="838" on="1"/>
        <pt x="98" y="918" on="0"/>
        <pt x="204" y="1048" on="0"/>
        <pt x="405" y="1124" on="0"/>
        <pt x="551" y="1124" on="1"/>
        <pt x="754" y="1124" on="0"/>
        <pt x="1001" y="906" on="0"/>
        <pt x="1001" y="719" on="1"/>
        <pt x="1001" y="536" on="0"/>
        <pt x="822" y="300" on="0"/>
        <pt x="621" y="211" on="1"/>
        <pt x="415" y="118" on="0"/>
        <pt x="279" y="-23" on="0"/>
        <pt x="279" y="-123" on="1"/>
        <pt x="279" y="-235" on="0"/>
        <pt x="413" y="-369" on="0"/>
        <pt x="532" y="-371" on="1"/>
        <pt x="667" y="-371" on="0"/>
        <pt x="825" y="-163" on="0"/>
        <pt x="825" y="14" on="1"/>
        <pt x="933" y="14" on="0"/>
        <pt x="1040" y="-87" on="0"/>
        <pt x="1040" y="-178" on="1"/>
        <pt x="1040" y="-274" on="0"/>
        <pt x="916" y="-415" on="0"/>
        <pt x="681" y="-492" on="0"/>
        <pt x="512" y="-492" on="1"/>
        <pt x="374" y="-492" on="0"/>
        <pt x="153" y="-381" on="0"/>
        <pt x="33" y="-184" on="0"/>
        <pt x="33" y="-61" on="1"/>
        <pt x="33" y="114" on="0"/>
        <pt x="223" y="349" on="0"/>
        <pt x="440" y="444" on="1"/>
        <pt x="559" y="497" on="0"/>
        <pt x="697" y="596" on="0"/>
        <pt x="758" y="701" on="0"/>
        <pt x="758" y="788" on="1"/>
        <pt x="758" y="888" on="0"/>
        <pt x="640" y="1008" on="0"/>
        <pt x="549" y="1008" on="1"/>
        <pt x="430" y="1008" on="0"/>
        <pt x="307" y="845" on="0"/>
      </contour>
    </TTGlyph>
    <TTGlyph name="uni10F8" xMin="190" yMin="-492" xMax="1223" yMax="1124">
      <contour>
        <pt x="502" y="-45" on="1"/>
        <pt x="502" y="-195" on="0"/>
        <pt x="608" y="-362" on="0"/>
        <pt x="702" y="-362" on="1"/>
        <pt x="799" y="-362" on="0"/>
        <pt x="909" y="-228" on="0"/>
        <pt x="909" y="-92" on="1"/>
        <pt x="909" y="64" on="0"/>
        <pt x="877" y="158" on="1"/>
        <pt x="1042" y="158" on="0"/>
        <pt x="1223" y="11" on="0"/>
        <pt x="1223" y="-119" on="1"/>
        <pt x="1223" y="-300" on="0"/>
        <pt x="952" y="-492" on="0"/>
        <pt x="702" y="-492" on="1"/>
        <pt x="460" y="-492" on="0"/>
        <pt x="190" y="-220" on="0"/>
        <pt x="190" y="20" on="1"/>
        <pt x="190" y="1098" on="1"/>
        <pt x="502" y="1098" on="1"/>
        <pt x="502" y="971" on="1"/>
        <pt x="502" y="819" on="0"/>
        <pt x="596" y="653" on="0"/>
        <pt x="690" y="653" on="1"/>
        <pt x="784" y="653" on="0"/>
        <pt x="862" y="760" on="0"/>
        <pt x="862" y="868" on="1"/>
        <pt x="862" y="944" on="0"/>
        <pt x="835" y="1091" on="0"/>
        <pt x="819" y="1124" on="1"/>
        <pt x="979" y="1124" on="0"/>
        <pt x="1176" y="959" on="0"/>
        <pt x="1176" y="823" on="1"/>
        <pt x="1176" y="670" on="0"/>
        <pt x="973" y="479" on="0"/>
        <pt x="807" y="479" on="1"/>
        <pt x="588" y="479" on="0"/>
        <pt x="504" y="625" on="1"/>
        <pt x="485" y="625" on="1"/>
        <pt x="502" y="459" on="0"/>
        <pt x="502" y="385" on="1"/>
      </contour>
    </TTGlyph>
    <TTGlyph name="uni10F9" xMin="96" yMin="-492" xMax="1159" yMax="1118">
      <contour>
        <pt x="96" y="545" on="1"/>
        <pt x="96" y="1118" on="0"/>
        <pt x="631" y="1118" on="1"/>
        <pt x="885" y="1118" on="0"/>
        <pt x="1159" y="825" on="0"/>
        <pt x="1159" y="545" on="1"/>
        <pt x="1159" y="277" on="0"/>
        <pt x="928" y="-1" on="0"/>
        <pt x="700" y="-23" on="1"/>
        <pt x="627" y="-30" on="0"/>
        <pt x="549" y="-137" on="0"/>
        <pt x="549" y="-219" on="1"/>
        <pt x="549" y="-289" on="0"/>
        <pt x="611" y="-362" on="0"/>
        <pt x="662" y="-362" on="1"/>
        <pt x="735" y="-362" on="0"/>
        <pt x="792" y="-248" on="0"/>
        <pt x="795" y="-131" on="1"/>
        <pt x="885" y="-133" on="0"/>
        <pt x="983" y="-213" on="0"/>
        <pt x="983" y="-283" on="1"/>
        <pt x="983" y="-343" on="0"/>
        <pt x="907" y="-437" on="0"/>
        <pt x="763" y="-492" on="0"/>
        <pt x="659" y="-492" on="1"/>
        <pt x="503" y="-492" on="0"/>
        <pt x="336" y="-359" on="0"/>
        <pt x="336" y="-236" on="1"/>
        <pt x="336" y="-164" on="0"/>
        <pt x="422" y="-38" on="0"/>
        <pt x="485" y="-12" on="1"/>
        <pt x="295" y="26" on="0"/>
        <pt x="96" y="308" on="0"/>
      </contour>
      <contour>
        <pt x="842" y="545" on="1"/>
        <pt x="842" y="777" on="0"/>
        <pt x="739" y="989" on="0"/>
        <pt x="627" y="989" on="1"/>
        <pt x="516" y="989" on="0"/>
        <pt x="414" y="779" on="0"/>
        <pt x="414" y="545" on="1"/>
        <pt x="414" y="314" on="0"/>
        <pt x="516" y="104" on="0"/>
        <pt x="629" y="104" on="1"/>
        <pt x="740" y="104" on="0"/>
        <pt x="842" y="312" on="0"/>
      </contour>
    </TTGlyph>
    <TTGlyph name="uni10FA" xMin="96" yMin="-270" xMax="1133" yMax="1124">
      <contour>
        <pt x="412" y="553" on="1"/>
        <pt x="412" y="359" on="0"/>
        <pt x="544" y="156" on="0"/>
        <pt x="692" y="131" on="1"/>
        <pt x="822" y="110" on="0"/>
        <pt x="985" y="48" on="0"/>
        <pt x="1059" y="-35" on="0"/>
        <pt x="1059" y="-102" on="1"/>
        <pt x="1059" y="-174" on="0"/>
        <pt x="949" y="-264" on="0"/>
        <pt x="852" y="-270" on="1"/>
        <pt x="834" y="-161" on="0"/>
        <pt x="760" y="-54" on="0"/>
        <pt x="628" y="0" on="0"/>
        <pt x="526" y="0" on="1"/>
        <pt x="429" y="0" on="0"/>
        <pt x="282" y="-56" on="0"/>
        <pt x="203" y="-127" on="1"/>
        <pt x="121" y="-49" on="1"/>
        <pt x="156" y="8" on="0"/>
        <pt x="323" y="105" on="0"/>
        <pt x="389" y="109" on="1"/>
        <pt x="96" y="195" on="0"/>
        <pt x="96" y="600" on="1"/>
        <pt x="96" y="843" on="0"/>
        <pt x="380" y="1124" on="0"/>
        <pt x="625" y="1124" on="1"/>
        <pt x="870" y="1124" on="0"/>
        <pt x="1133" y="891" on="0"/>
        <pt x="1133" y="662" on="1"/>
        <pt x="1133" y="529" on="0"/>
        <pt x="958" y="383" on="0"/>
        <pt x="788" y="381" on="1"/>
        <pt x="807" y="429" on="0"/>
        <pt x="836" y="594" on="0"/>
        <pt x="836" y="627" on="1"/>
        <pt x="836" y="821" on="0"/>
        <pt x="739" y="993" on="0"/>
        <pt x="630" y="993" on="1"/>
        <pt x="625" y="993" on="1"/>
        <pt x="513" y="993" on="0"/>
        <pt x="412" y="787" on="0"/>
      </contour>
    </TTGlyph>
    <TTGlyph name="uni10FB" xMin="143" yMin="-16" xMax="1073" yMax="1116">
      <contour>
        <pt x="143" y="147" on="1"/>
        <pt x="143" y="311" on="0"/>
        <pt x="311" y="311" on="1"/>
        <pt x="479" y="311" on="0"/>
        <pt x="479" y="147" on="1"/>
        <pt x="479" y="67" on="0"/>
        <pt x="392" y="-16" on="0"/>
        <pt x="311" y="-16" on="1"/>
        <pt x="143" y="-16" on="0"/>
      </contour>
      <contour>
        <pt x="143" y="952" on="1"/>
        <pt x="143" y="1116" on="0"/>
        <pt x="311" y="1116" on="1"/>
        <pt x="479" y="1116" on="0"/>
        <pt x="479" y="952" on="1"/>
        <pt x="479" y="871" on="0"/>
        <pt x="391" y="788" on="0"/>
        <pt x="311" y="788" on="1"/>
        <pt x="143" y="788" on="0"/>
      </contour>
      <contour>
        <pt x="737" y="551" on="1"/>
        <pt x="737" y="715" on="0"/>
        <pt x="905" y="715" on="1"/>
        <pt x="1073" y="715" on="0"/>
        <pt x="1073" y="551" on="1"/>
        <pt x="1073" y="470" on="0"/>
        <pt x="985" y="387" on="0"/>
        <pt x="905" y="387" on="1"/>
        <pt x="737" y="387" on="0"/>
      </contour>
    </TTGlyph>
    <TTGlyph name="uni10FC" xMin="72" yMin="887" xMax="825" yMax="1892">
      <contour>
        <pt x="588" y="1229" on="1"/>
        <pt x="588" y="1346" on="0"/>
        <pt x="526" y="1468" on="0"/>
        <pt x="451" y="1468" on="1"/>
        <pt x="309" y="1468" on="0"/>
        <pt x="309" y="1251" on="1"/>
        <pt x="309" y="1133" on="0"/>
        <pt x="383" y="989" on="0"/>
        <pt x="446" y="989" on="1"/>
        <pt x="523" y="989" on="0"/>
        <pt x="588" y="1115" on="0"/>
      </contour>
      <contour>
        <pt x="418" y="1778" on="1"/>
        <pt x="375" y="1778" on="0"/>
        <pt x="313" y="1641" on="0"/>
        <pt x="309" y="1536" on="1"/>
        <pt x="369" y="1571" on="0"/>
        <pt x="469" y="1571" on="1"/>
        <pt x="646" y="1571" on="0"/>
        <pt x="825" y="1397" on="0"/>
        <pt x="825" y="1229" on="1"/>
        <pt x="825" y="1059" on="0"/>
        <pt x="633" y="887" on="0"/>
        <pt x="451" y="887" on="1"/>
        <pt x="254" y="887" on="0"/>
        <pt x="72" y="1108" on="0"/>
        <pt x="72" y="1325" on="1"/>
        <pt x="72" y="1488" on="0"/>
        <pt x="159" y="1739" on="0"/>
        <pt x="319" y="1880" on="0"/>
        <pt x="420" y="1880" on="1"/>
        <pt x="475" y="1880" on="0"/>
        <pt x="537" y="1855" on="1"/>
        <pt x="592" y="1833" on="0"/>
        <pt x="635" y="1833" on="1"/>
        <pt x="670" y="1833" on="0"/>
        <pt x="670" y="1892" on="1"/>
        <pt x="795" y="1869" on="0"/>
        <pt x="795" y="1769" on="1"/>
        <pt x="795" y="1714" on="0"/>
        <pt x="717" y="1651" on="0"/>
        <pt x="659" y="1651" on="1"/>
        <pt x="613" y="1651" on="0"/>
        <pt x="548" y="1686" on="0"/>
        <pt x="508" y="1731" on="1"/>
        <pt x="468" y="1778" on="0"/>
      </contour>
    </TTGlyph>
    <TTGlyph name="uni2D00" xMin="20" yMin="-20" xMax="1036" yMax="1098">
      <contour>
        <pt x="1036" y="1098" on="1"/>
        <pt x="1036" y="958" on="1"/>
        <pt x="631" y="958" on="1"/>
        <pt x="631" y="365" on="1"/>
        <pt x="631" y="243" on="0"/>
        <pt x="710" y="145" on="0"/>
        <pt x="801" y="145" on="1"/>
        <pt x="879" y="145" on="0"/>
        <pt x="979" y="164" on="1"/>
        <pt x="979" y="31" on="1"/>
        <pt x="942" y="15" on="0"/>
        <pt x="779" y="-20" on="0"/>
        <pt x="657" y="-20" on="1"/>
        <pt x="477" y="-20" on="0"/>
        <pt x="319" y="164" on="0"/>
        <pt x="319" y="358" on="1"/>
        <pt x="319" y="958" on="1"/>
        <pt x="254" y="958" on="1"/>
        <pt x="133" y="958" on="0"/>
        <pt x="20" y="938" on="1"/>
        <pt x="20" y="1061" on="1"/>
        <pt x="168" y="1098" on="0"/>
        <pt x="305" y="1098" on="1"/>
      </contour>
    </TTGlyph>
    <TTGlyph name="uni2D01" xMin="53" yMin="-492" xMax="1274" yMax="1098">
      <contour>
        <pt x="426" y="-82" on="1"/>
        <pt x="426" y="-367" on="0"/>
        <pt x="680" y="-367" on="1"/>
        <pt x="819" y="-367" on="0"/>
        <pt x="963" y="-206" on="0"/>
        <pt x="963" y="-53" on="1"/>
        <pt x="963" y="26" on="0"/>
        <pt x="915" y="142" on="1"/>
        <pt x="904" y="168" on="0"/>
        <pt x="899" y="195" on="1"/>
        <pt x="889" y="195" on="1"/>
        <pt x="838" y="106" on="0"/>
        <pt x="746" y="21" on="0"/>
        <pt x="620" y="-20" on="0"/>
        <pt x="528" y="-20" on="1"/>
        <pt x="197" y="-20" on="0"/>
        <pt x="197" y="385" on="1"/>
        <pt x="197" y="844" on="1"/>
        <pt x="197" y="926" on="0"/>
        <pt x="142" y="989" on="0"/>
        <pt x="61" y="989" on="1"/>
        <pt x="53" y="989" on="1"/>
        <pt x="53" y="1098" on="1"/>
        <pt x="508" y="1098" on="1"/>
        <pt x="508" y="442" on="1"/>
        <pt x="508" y="290" on="0"/>
        <pt x="584" y="154" on="0"/>
        <pt x="664" y="154" on="1"/>
        <pt x="850" y="154" on="0"/>
        <pt x="850" y="465" on="1"/>
        <pt x="850" y="858" on="1"/>
        <pt x="850" y="907" on="0"/>
        <pt x="822" y="963" on="0"/>
        <pt x="768" y="989" on="0"/>
        <pt x="707" y="989" on="1"/>
        <pt x="696" y="989" on="1"/>
        <pt x="696" y="1098" on="1"/>
        <pt x="1161" y="1098" on="1"/>
        <pt x="1161" y="428" on="1"/>
        <pt x="1161" y="366" on="0"/>
        <pt x="1196" y="265" on="0"/>
        <pt x="1239" y="166" on="0"/>
        <pt x="1274" y="55" on="0"/>
        <pt x="1274" y="-18" on="1"/>
        <pt x="1274" y="-248" on="0"/>
        <pt x="966" y="-492" on="0"/>
        <pt x="684" y="-492" on="1"/>
        <pt x="526" y="-492" on="0"/>
        <pt x="290" y="-431" on="0"/>
        <pt x="162" y="-322" on="0"/>
        <pt x="162" y="-256" on="1"/>
        <pt x="162" y="-82" on="0"/>
      </contour>
    </TTGlyph>
    <TTGlyph name="uni2D02" xMin="-20" yMin="-492" xMax="1325" yMax="1124">
      <contour>
        <pt x="555" y="952" on="1"/>
        <pt x="655" y="1124" on="0"/>
        <pt x="874" y="1124" on="1"/>
        <pt x="1212" y="1124" on="0"/>
        <pt x="1212" y="729" on="1"/>
        <pt x="1212" y="389" on="1"/>
        <pt x="1212" y="343" on="0"/>
        <pt x="1239" y="256" on="0"/>
        <pt x="1269" y="199" on="1"/>
        <pt x="1325" y="90" on="0"/>
        <pt x="1325" y="-18" on="1"/>
        <pt x="1325" y="-248" on="0"/>
        <pt x="1017" y="-492" on="0"/>
        <pt x="735" y="-492" on="1"/>
        <pt x="577" y="-492" on="0"/>
        <pt x="341" y="-431" on="0"/>
        <pt x="213" y="-322" on="0"/>
        <pt x="213" y="-256" on="1"/>
        <pt x="213" y="-82" on="0"/>
        <pt x="477" y="-82" on="1"/>
        <pt x="477" y="-367" on="0"/>
        <pt x="731" y="-367" on="1"/>
        <pt x="870" y="-367" on="0"/>
        <pt x="1014" y="-206" on="0"/>
        <pt x="1014" y="-53" on="1"/>
        <pt x="1014" y="52" on="0"/>
        <pt x="958" y="167" on="1"/>
        <pt x="927" y="228" on="0"/>
        <pt x="901" y="318" on="0"/>
        <pt x="901" y="369" on="1"/>
        <pt x="901" y="674" on="1"/>
        <pt x="901" y="820" on="0"/>
        <pt x="820" y="950" on="0"/>
        <pt x="737" y="950" on="1"/>
        <pt x="651" y="950" on="0"/>
        <pt x="559" y="788" on="0"/>
        <pt x="559" y="633" on="1"/>
        <pt x="559" y="242" on="1"/>
        <pt x="559" y="170" on="0"/>
        <pt x="618" y="109" on="0"/>
        <pt x="702" y="109" on="1"/>
        <pt x="713" y="109" on="1"/>
        <pt x="713" y="0" on="1"/>
        <pt x="84" y="0" on="1"/>
        <pt x="84" y="109" on="1"/>
        <pt x="92" y="109" on="1"/>
        <pt x="157" y="109" on="0"/>
        <pt x="217" y="136" on="0"/>
        <pt x="248" y="198" on="0"/>
        <pt x="248" y="250" on="1"/>
        <pt x="248" y="799" on="1"/>
        <pt x="248" y="891" on="0"/>
        <pt x="189" y="981" on="0"/>
        <pt x="125" y="981" on="1"/>
        <pt x="54" y="981" on="0"/>
        <pt x="-20" y="958" on="1"/>
        <pt x="-20" y="1073" on="1"/>
        <pt x="36" y="1097" on="0"/>
        <pt x="202" y="1124" on="0"/>
        <pt x="270" y="1124" on="1"/>
        <pt x="375" y="1124" on="0"/>
        <pt x="514" y="1047" on="0"/>
        <pt x="545" y="952" on="1"/>
      </contour>
    </TTGlyph>
    <TTGlyph name="uni2D03" xMin="96" yMin="-20" xMax="1159" yMax="1462">
      <contour>
        <pt x="549" y="950" on="1"/>
        <pt x="430" y="1079" on="0"/>
        <pt x="430" y="1278" on="1"/>
        <pt x="430" y="1323" on="1"/>
        <pt x="350" y="1323" on="1"/>
        <pt x="230" y="1323" on="0"/>
        <pt x="117" y="1303" on="1"/>
        <pt x="117" y="1425" on="1"/>
        <pt x="197" y="1446" on="0"/>
        <pt x="318" y="1462" on="0"/>
        <pt x="401" y="1462" on="1"/>
        <pt x="1092" y="1462" on="1"/>
        <pt x="1092" y="1323" on="1"/>
        <pt x="676" y="1323" on="1"/>
        <pt x="676" y="1305" on="1"/>
        <pt x="676" y="1216" on="0"/>
        <pt x="752" y="1099" on="0"/>
        <pt x="864" y="1014" on="1"/>
        <pt x="982" y="921" on="0"/>
        <pt x="1100" y="765" on="0"/>
        <pt x="1159" y="582" on="0"/>
        <pt x="1159" y="467" on="1"/>
        <pt x="1159" y="243" on="0"/>
        <pt x="872" y="-20" on="0"/>
        <pt x="625" y="-20" on="1"/>
        <pt x="385" y="-20" on="0"/>
        <pt x="96" y="228" on="0"/>
        <pt x="96" y="438" on="1"/>
        <pt x="96" y="625" on="0"/>
        <pt x="326" y="888" on="0"/>
      </contour>
      <contour>
        <pt x="641" y="860" on="1"/>
        <pt x="537" y="808" on="0"/>
        <pt x="414" y="576" on="0"/>
        <pt x="414" y="430" on="1"/>
        <pt x="414" y="278" on="0"/>
        <pt x="531" y="109" on="0"/>
        <pt x="629" y="109" on="1"/>
        <pt x="731" y="109" on="0"/>
        <pt x="842" y="287" on="0"/>
        <pt x="842" y="442" on="1"/>
        <pt x="842" y="531" on="0"/>
        <pt x="804" y="669" on="0"/>
        <pt x="730" y="782" on="0"/>
      </contour>
    </TTGlyph>
    <TTGlyph name="uni2D04" xMin="-20" yMin="-502" xMax="1327" yMax="1124">
      <contour>
        <pt x="1212" y="74" on="1"/>
        <pt x="1212" y="-106" on="0"/>
        <pt x="1257" y="-301" on="0"/>
        <pt x="1327" y="-399" on="1"/>
        <pt x="1198" y="-502" on="1"/>
        <pt x="1047" y="-386" on="0"/>
        <pt x="901" y="-102" on="0"/>
        <pt x="901" y="92" on="1"/>
        <pt x="901" y="674" on="1"/>
        <pt x="901" y="820" on="0"/>
        <pt x="820" y="950" on="0"/>
        <pt x="737" y="950" on="1"/>
        <pt x="651" y="950" on="0"/>
        <pt x="559" y="788" on="0"/>
        <pt x="559" y="633" on="1"/>
        <pt x="559" y="242" on="1"/>
        <pt x="559" y="170" on="0"/>
        <pt x="618" y="109" on="0"/>
        <pt x="702" y="109" on="1"/>
        <pt x="713" y="109" on="1"/>
        <pt x="713" y="0" on="1"/>
        <pt x="84" y="0" on="1"/>
        <pt x="84" y="109" on="1"/>
        <pt x="92" y="109" on="1"/>
        <pt x="157" y="109" on="0"/>
        <pt x="217" y="136" on="0"/>
        <pt x="248" y="198" on="0"/>
        <pt x="248" y="250" on="1"/>
        <pt x="248" y="799" on="1"/>
        <pt x="248" y="891" on="0"/>
        <pt x="189" y="981" on="0"/>
        <pt x="125" y="981" on="1"/>
        <pt x="54" y="981" on="0"/>
        <pt x="-20" y="958" on="1"/>
        <pt x="-20" y="1073" on="1"/>
        <pt x="36" y="1097" on="0"/>
        <pt x="202" y="1124" on="0"/>
        <pt x="270" y="1124" on="1"/>
        <pt x="375" y="1124" on="0"/>
        <pt x="518" y="1045" on="0"/>
        <pt x="549" y="950" on="1"/>
        <pt x="559" y="950" on="1"/>
        <pt x="594" y="1015" on="0"/>
        <pt x="677" y="1090" on="0"/>
        <pt x="782" y="1124" on="0"/>
        <pt x="874" y="1124" on="1"/>
        <pt x="1212" y="1124" on="0"/>
        <pt x="1212" y="729" on="1"/>
      </contour>
    </TTGlyph>
    <TTGlyph name="uni2D05" xMin="-20" yMin="-502" xMax="2009" yMax="1124">
      <contour>
        <pt x="1212" y="74" on="1"/>
        <pt x="1212" y="-106" on="0"/>
        <pt x="1257" y="-301" on="0"/>
        <pt x="1327" y="-399" on="1"/>
        <pt x="1198" y="-502" on="1"/>
        <pt x="1047" y="-386" on="0"/>
        <pt x="901" y="-102" on="0"/>
        <pt x="901" y="92" on="1"/>
        <pt x="901" y="674" on="1"/>
        <pt x="901" y="820" on="0"/>
        <pt x="820" y="950" on="0"/>
        <pt x="737" y="950" on="1"/>
        <pt x="651" y="950" on="0"/>
        <pt x="559" y="788" on="0"/>
        <pt x="559" y="633" on="1"/>
        <pt x="559" y="242" on="1"/>
        <pt x="559" y="171" on="0"/>
        <pt x="620" y="109" on="0"/>
        <pt x="705" y="109" on="1"/>
        <pt x="713" y="109" on="1"/>
        <pt x="713" y="0" on="1"/>
        <pt x="84" y="0" on="1"/>
        <pt x="84" y="109" on="1"/>
        <pt x="92" y="109" on="1"/>
        <pt x="182" y="109" on="0"/>
        <pt x="248" y="176" on="0"/>
        <pt x="248" y="250" on="1"/>
        <pt x="248" y="799" on="1"/>
        <pt x="248" y="891" on="0"/>
        <pt x="189" y="981" on="0"/>
        <pt x="125" y="981" on="1"/>
        <pt x="54" y="981" on="0"/>
        <pt x="-20" y="958" on="1"/>
        <pt x="-20" y="1073" on="1"/>
        <pt x="36" y="1097" on="0"/>
        <pt x="202" y="1124" on="0"/>
        <pt x="270" y="1124" on="1"/>
        <pt x="375" y="1124" on="0"/>
        <pt x="520" y="1047" on="0"/>
        <pt x="551" y="952" on="1"/>
        <pt x="561" y="952" on="1"/>
        <pt x="595" y="1017" on="0"/>
        <pt x="678" y="1091" on="0"/>
        <pt x="780" y="1124" on="0"/>
        <pt x="874" y="1124" on="1"/>
        <pt x="1114" y="1124" on="0"/>
        <pt x="1184" y="952" on="1"/>
        <pt x="1202" y="952" on="1"/>
        <pt x="1236" y="1016" on="0"/>
        <pt x="1323" y="1090" on="0"/>
        <pt x="1432" y="1124" on="0"/>
        <pt x="1528" y="1124" on="1"/>
        <pt x="1866" y="1124" on="0"/>
        <pt x="1866" y="729" on="1"/>
        <pt x="1866" y="254" on="1"/>
        <pt x="1866" y="170" on="0"/>
        <pt x="1921" y="109" on="0"/>
        <pt x="2001" y="109" on="1"/>
        <pt x="2009" y="109" on="1"/>
        <pt x="2009" y="0" on="1"/>
        <pt x="1554" y="0" on="1"/>
        <pt x="1554" y="674" on="1"/>
        <pt x="1554" y="806" on="0"/>
        <pt x="1481" y="950" on="0"/>
        <pt x="1391" y="950" on="1"/>
        <pt x="1306" y="950" on="0"/>
        <pt x="1212" y="794" on="0"/>
        <pt x="1212" y="657" on="1"/>
      </contour>
    </TTGlyph>
    <TTGlyph name="uni2D06" xMin="-63" yMin="-20" xMax="1233" yMax="1567">
      <contour>
        <pt x="1233" y="553" on="1"/>
        <pt x="1233" y="274" on="0"/>
        <pt x="961" y="-20" on="0"/>
        <pt x="702" y="-20" on="1"/>
        <pt x="461" y="-20" on="0"/>
        <pt x="205" y="270" on="0"/>
        <pt x="205" y="553" on="1"/>
        <pt x="205" y="1262" on="1"/>
        <pt x="205" y="1423" on="0"/>
        <pt x="82" y="1423" on="1"/>
        <pt x="15" y="1423" on="0"/>
        <pt x="-63" y="1401" on="1"/>
        <pt x="-63" y="1516" on="1"/>
        <pt x="-13" y="1538" on="0"/>
        <pt x="144" y="1567" on="0"/>
        <pt x="217" y="1567" on="1"/>
        <pt x="375" y="1567" on="0"/>
        <pt x="516" y="1414" on="0"/>
        <pt x="516" y="1249" on="1"/>
        <pt x="516" y="1206" on="1"/>
        <pt x="516" y="1146" on="0"/>
        <pt x="500" y="958" on="1"/>
        <pt x="514" y="958" on="1"/>
        <pt x="609" y="1122" on="0"/>
        <pt x="821" y="1122" on="1"/>
        <pt x="1233" y="1122" on="0"/>
      </contour>
      <contour>
        <pt x="918" y="553" on="1"/>
        <pt x="918" y="763" on="0"/>
        <pt x="828" y="971" on="0"/>
        <pt x="725" y="971" on="1"/>
        <pt x="612" y="971" on="0"/>
        <pt x="516" y="782" on="0"/>
        <pt x="516" y="553" on="1"/>
        <pt x="516" y="320" on="0"/>
        <pt x="607" y="109" on="0"/>
        <pt x="705" y="109" on="1"/>
        <pt x="810" y="109" on="0"/>
        <pt x="918" y="333" on="0"/>
      </contour>
    </TTGlyph>
    <TTGlyph name="uni2D07" xMin="43" yMin="-20" xMax="1958" yMax="1124">
      <contour>
        <pt x="1161" y="244" on="1"/>
        <pt x="1161" y="174" on="0"/>
        <pt x="1218" y="109" on="0"/>
        <pt x="1298" y="109" on="1"/>
        <pt x="1315" y="109" on="1"/>
        <pt x="1315" y="0" on="1"/>
        <pt x="907" y="0" on="1"/>
        <pt x="862" y="145" on="1"/>
        <pt x="852" y="145" on="1"/>
        <pt x="801" y="59" on="0"/>
        <pt x="656" y="-20" on="0"/>
        <pt x="528" y="-20" on="1"/>
        <pt x="197" y="-20" on="0"/>
        <pt x="197" y="385" on="1"/>
        <pt x="197" y="862" on="1"/>
        <pt x="197" y="933" on="0"/>
        <pt x="136" y="995" on="0"/>
        <pt x="51" y="995" on="1"/>
        <pt x="43" y="995" on="1"/>
        <pt x="43" y="1098" on="1"/>
        <pt x="473" y="1098" on="1"/>
        <pt x="500" y="952" on="1"/>
        <pt x="510" y="952" on="1"/>
        <pt x="544" y="1017" on="0"/>
        <pt x="627" y="1091" on="0"/>
        <pt x="729" y="1124" on="0"/>
        <pt x="823" y="1124" on="1"/>
        <pt x="1061" y="1124" on="0"/>
        <pt x="1133" y="952" on="1"/>
        <pt x="1151" y="952" on="1"/>
        <pt x="1185" y="1016" on="0"/>
        <pt x="1272" y="1090" on="0"/>
        <pt x="1381" y="1124" on="0"/>
        <pt x="1477" y="1124" on="1"/>
        <pt x="1815" y="1124" on="0"/>
        <pt x="1815" y="729" on="1"/>
        <pt x="1815" y="254" on="1"/>
        <pt x="1815" y="170" on="0"/>
        <pt x="1870" y="109" on="0"/>
        <pt x="1950" y="109" on="1"/>
        <pt x="1958" y="109" on="1"/>
        <pt x="1958" y="0" on="1"/>
        <pt x="1503" y="0" on="1"/>
        <pt x="1503" y="674" on="1"/>
        <pt x="1503" y="820" on="0"/>
        <pt x="1422" y="950" on="0"/>
        <pt x="1339" y="950" on="1"/>
        <pt x="1255" y="950" on="0"/>
        <pt x="1161" y="798" on="0"/>
        <pt x="1161" y="657" on="1"/>
      </contour>
      <contour>
        <pt x="508" y="442" on="1"/>
        <pt x="508" y="290" on="0"/>
        <pt x="584" y="154" on="0"/>
        <pt x="664" y="154" on="1"/>
        <pt x="850" y="154" on="0"/>
        <pt x="850" y="465" on="1"/>
        <pt x="850" y="674" on="1"/>
        <pt x="850" y="820" on="0"/>
        <pt x="769" y="950" on="0"/>
        <pt x="686" y="950" on="1"/>
        <pt x="600" y="950" on="0"/>
        <pt x="508" y="788" on="0"/>
        <pt x="508" y="633" on="1"/>
      </contour>
    </TTGlyph>
    <TTGlyph name="uni2D08" xMin="-20" yMin="0" xMax="907" yMax="1124">
      <contour>
        <pt x="754" y="242" on="1"/>
        <pt x="754" y="170" on="0"/>
        <pt x="813" y="109" on="0"/>
        <pt x="897" y="109" on="1"/>
        <pt x="907" y="109" on="1"/>
        <pt x="907" y="0" on="1"/>
        <pt x="279" y="0" on="1"/>
        <pt x="279" y="109" on="1"/>
        <pt x="287" y="109" on="1"/>
        <pt x="351" y="109" on="0"/>
        <pt x="411" y="136" on="0"/>
        <pt x="442" y="198" on="0"/>
        <pt x="442" y="250" on="1"/>
        <pt x="442" y="725" on="1"/>
        <pt x="442" y="859" on="0"/>
        <pt x="348" y="981" on="0"/>
        <pt x="229" y="981" on="1"/>
        <pt x="182" y="981" on="0"/>
        <pt x="33" y="968" on="0"/>
        <pt x="-20" y="958" on="1"/>
        <pt x="-20" y="1073" on="1"/>
        <pt x="48" y="1096" on="0"/>
        <pt x="273" y="1124" on="0"/>
        <pt x="369" y="1124" on="1"/>
        <pt x="574" y="1124" on="0"/>
        <pt x="754" y="939" on="0"/>
        <pt x="754" y="729" on="1"/>
      </contour>
    </TTGlyph>
    <TTGlyph name="uni2D09" xMin="27" yMin="-502" xMax="1335" yMax="1556">
      <contour>
        <pt x="696" y="131" on="1"/>
        <pt x="810" y="131" on="0"/>
        <pt x="909" y="335" on="0"/>
        <pt x="909" y="553" on="1"/>
        <pt x="909" y="763" on="0"/>
        <pt x="820" y="971" on="0"/>
        <pt x="717" y="971" on="1"/>
        <pt x="604" y="971" on="0"/>
        <pt x="508" y="782" on="0"/>
        <pt x="508" y="553" on="1"/>
        <pt x="508" y="327" on="0"/>
        <pt x="596" y="131" on="0"/>
      </contour>
      <contour>
        <pt x="508" y="1206" on="1"/>
        <pt x="508" y="1146" on="0"/>
        <pt x="492" y="958" on="1"/>
        <pt x="506" y="958" on="1"/>
        <pt x="601" y="1122" on="0"/>
        <pt x="813" y="1122" on="1"/>
        <pt x="1019" y="1122" on="0"/>
        <pt x="1221" y="840" on="0"/>
        <pt x="1221" y="553" on="1"/>
        <pt x="1221" y="137" on="1"/>
        <pt x="1221" y="-85" on="0"/>
        <pt x="1268" y="-305" on="0"/>
        <pt x="1335" y="-399" on="1"/>
        <pt x="1206" y="-502" on="1"/>
        <pt x="1064" y="-393" on="0"/>
        <pt x="909" y="-133" on="0"/>
        <pt x="909" y="12" on="1"/>
        <pt x="909" y="82" on="0"/>
        <pt x="922" y="145" on="1"/>
        <pt x="911" y="145" on="1"/>
        <pt x="860" y="57" on="0"/>
        <pt x="724" y="-20" on="0"/>
        <pt x="602" y="-20" on="1"/>
        <pt x="396" y="-20" on="0"/>
        <pt x="197" y="264" on="0"/>
        <pt x="197" y="553" on="1"/>
        <pt x="197" y="1317" on="1"/>
        <pt x="197" y="1366" on="0"/>
        <pt x="166" y="1423" on="0"/>
        <pt x="109" y="1448" on="0"/>
        <pt x="49" y="1448" on="1"/>
        <pt x="27" y="1448" on="1"/>
        <pt x="27" y="1556" on="1"/>
        <pt x="508" y="1556" on="1"/>
      </contour>
    </TTGlyph>
    <TTGlyph name="uni2D0A" xMin="41" yMin="-20" xMax="1966" yMax="1124">
      <contour>
        <pt x="1169" y="442" on="1"/>
        <pt x="1169" y="290" on="0"/>
        <pt x="1245" y="154" on="0"/>
        <pt x="1325" y="154" on="1"/>
        <pt x="1511" y="154" on="0"/>
        <pt x="1511" y="465" on="1"/>
        <pt x="1511" y="674" on="1"/>
        <pt x="1511" y="806" on="0"/>
        <pt x="1438" y="950" on="0"/>
        <pt x="1348" y="950" on="1"/>
        <pt x="1263" y="950" on="0"/>
        <pt x="1169" y="794" on="0"/>
        <pt x="1169" y="657" on="1"/>
      </contour>
      <contour>
        <pt x="858" y="674" on="1"/>
        <pt x="858" y="820" on="0"/>
        <pt x="777" y="950" on="0"/>
        <pt x="694" y="950" on="1"/>
        <pt x="608" y="950" on="0"/>
        <pt x="516" y="788" on="0"/>
        <pt x="516" y="633" on="1"/>
        <pt x="516" y="242" on="1"/>
        <pt x="516" y="171" on="0"/>
        <pt x="577" y="109" on="0"/>
        <pt x="662" y="109" on="1"/>
        <pt x="670" y="109" on="1"/>
        <pt x="670" y="0" on="1"/>
        <pt x="41" y="0" on="1"/>
        <pt x="41" y="109" on="1"/>
        <pt x="49" y="109" on="1"/>
        <pt x="139" y="109" on="0"/>
        <pt x="205" y="176" on="0"/>
        <pt x="205" y="250" on="1"/>
        <pt x="205" y="862" on="1"/>
        <pt x="205" y="933" on="0"/>
        <pt x="144" y="995" on="0"/>
        <pt x="59" y="995" on="1"/>
        <pt x="51" y="995" on="1"/>
        <pt x="51" y="1098" on="1"/>
        <pt x="481" y="1098" on="1"/>
        <pt x="508" y="952" on="1"/>
        <pt x="518" y="952" on="1"/>
        <pt x="552" y="1017" on="0"/>
        <pt x="635" y="1091" on="0"/>
        <pt x="737" y="1124" on="0"/>
        <pt x="831" y="1124" on="1"/>
        <pt x="1071" y="1124" on="0"/>
        <pt x="1141" y="952" on="1"/>
        <pt x="1159" y="952" on="1"/>
        <pt x="1193" y="1016" on="0"/>
        <pt x="1280" y="1090" on="0"/>
        <pt x="1389" y="1124" on="0"/>
        <pt x="1485" y="1124" on="1"/>
        <pt x="1823" y="1124" on="0"/>
        <pt x="1823" y="729" on="1"/>
        <pt x="1823" y="238" on="1"/>
        <pt x="1823" y="189" on="0"/>
        <pt x="1847" y="134" on="0"/>
        <pt x="1896" y="109" on="0"/>
        <pt x="1956" y="109" on="1"/>
        <pt x="1966" y="109" on="1"/>
        <pt x="1966" y="0" on="1"/>
        <pt x="1569" y="0" on="1"/>
        <pt x="1524" y="145" on="1"/>
        <pt x="1513" y="145" on="1"/>
        <pt x="1466" y="61" on="0"/>
        <pt x="1319" y="-20" on="0"/>
        <pt x="1190" y="-20" on="1"/>
        <pt x="858" y="-20" on="0"/>
        <pt x="858" y="385" on="1"/>
      </contour>
    </TTGlyph>
    <TTGlyph name="uni2D0B" xMin="96" yMin="-20" xMax="1268" yMax="1567">
      <contour>
        <pt x="575" y="1423" on="1"/>
        <pt x="457" y="1423" on="0"/>
        <pt x="270" y="1401" on="1"/>
        <pt x="270" y="1516" on="1"/>
        <pt x="388" y="1550" on="0"/>
        <pt x="521" y="1567" on="0"/>
        <pt x="598" y="1567" on="1"/>
        <pt x="853" y="1567" on="0"/>
        <pt x="1103" y="1334" on="0"/>
        <pt x="1120" y="1098" on="1"/>
        <pt x="1268" y="1098" on="1"/>
        <pt x="1268" y="967" on="1"/>
        <pt x="1124" y="967" on="1"/>
        <pt x="1124" y="555" on="1"/>
        <pt x="1124" y="280" on="0"/>
        <pt x="852" y="-20" on="0"/>
        <pt x="610" y="-20" on="1"/>
        <pt x="451" y="-20" on="0"/>
        <pt x="219" y="112" on="0"/>
        <pt x="96" y="366" on="0"/>
        <pt x="96" y="551" on="1"/>
        <pt x="96" y="832" on="0"/>
        <pt x="360" y="1098" on="0"/>
        <pt x="645" y="1098" on="1"/>
        <pt x="813" y="1098" on="1"/>
        <pt x="813" y="1219" on="0"/>
        <pt x="767" y="1360" on="0"/>
        <pt x="670" y="1423" on="0"/>
      </contour>
      <contour>
        <pt x="813" y="967" on="1"/>
        <pt x="645" y="967" on="1"/>
        <pt x="522" y="967" on="0"/>
        <pt x="412" y="768" on="0"/>
        <pt x="412" y="545" on="1"/>
        <pt x="412" y="313" on="0"/>
        <pt x="508" y="111" on="0"/>
        <pt x="612" y="111" on="1"/>
        <pt x="719" y="111" on="0"/>
        <pt x="813" y="316" on="0"/>
        <pt x="813" y="547" on="1"/>
      </contour>
    </TTGlyph>
    <TTGlyph name="uni2D0C" xMin="41" yMin="0" xMax="1313" yMax="1567">
      <contour>
        <pt x="500" y="958" on="1"/>
        <pt x="518" y="958" on="1"/>
        <pt x="552" y="1022" on="0"/>
        <pt x="633" y="1093" on="0"/>
        <pt x="736" y="1124" on="0"/>
        <pt x="831" y="1124" on="1"/>
        <pt x="1169" y="1124" on="0"/>
        <pt x="1169" y="729" on="1"/>
        <pt x="1169" y="254" on="1"/>
        <pt x="1169" y="170" on="0"/>
        <pt x="1224" y="109" on="0"/>
        <pt x="1305" y="109" on="1"/>
        <pt x="1313" y="109" on="1"/>
        <pt x="1313" y="0" on="1"/>
        <pt x="858" y="0" on="1"/>
        <pt x="858" y="674" on="1"/>
        <pt x="858" y="820" on="0"/>
        <pt x="777" y="950" on="0"/>
        <pt x="694" y="950" on="1"/>
        <pt x="608" y="950" on="0"/>
        <pt x="516" y="788" on="0"/>
        <pt x="516" y="633" on="1"/>
        <pt x="516" y="242" on="1"/>
        <pt x="516" y="171" on="0"/>
        <pt x="577" y="109" on="0"/>
        <pt x="662" y="109" on="1"/>
        <pt x="670" y="109" on="1"/>
        <pt x="670" y="0" on="1"/>
        <pt x="41" y="0" on="1"/>
        <pt x="41" y="109" on="1"/>
        <pt x="49" y="109" on="1"/>
        <pt x="114" y="109" on="0"/>
        <pt x="174" y="136" on="0"/>
        <pt x="205" y="198" on="0"/>
        <pt x="205" y="250" on="1"/>
        <pt x="205" y="1171" on="1"/>
        <pt x="205" y="1380" on="0"/>
        <pt x="409" y="1567" on="0"/>
        <pt x="641" y="1567" on="1"/>
        <pt x="758" y="1567" on="0"/>
        <pt x="1011" y="1536" on="0"/>
        <pt x="1081" y="1516" on="1"/>
        <pt x="1081" y="1401" on="1"/>
        <pt x="894" y="1423" on="0"/>
        <pt x="776" y="1423" on="1"/>
        <pt x="633" y="1423" on="0"/>
        <pt x="516" y="1304" on="0"/>
        <pt x="516" y="1167" on="1"/>
        <pt x="516" y="1110" on="0"/>
      </contour>
    </TTGlyph>
    <TTGlyph name="uni2D0D" xMin="53" yMin="-27" xMax="1968" yMax="1098">
      <contour>
        <pt x="1161" y="1098" on="1"/>
        <pt x="1161" y="424" on="1"/>
        <pt x="1161" y="279" on="0"/>
        <pt x="1242" y="147" on="0"/>
        <pt x="1325" y="147" on="1"/>
        <pt x="1413" y="147" on="0"/>
        <pt x="1503" y="313" on="0"/>
        <pt x="1503" y="465" on="1"/>
        <pt x="1503" y="856" on="1"/>
        <pt x="1503" y="927" on="0"/>
        <pt x="1442" y="989" on="0"/>
        <pt x="1358" y="989" on="1"/>
        <pt x="1350" y="989" on="1"/>
        <pt x="1350" y="1098" on="1"/>
        <pt x="1815" y="1098" on="1"/>
        <pt x="1815" y="236" on="1"/>
        <pt x="1815" y="164" on="0"/>
        <pt x="1877" y="102" on="0"/>
        <pt x="1960" y="102" on="1"/>
        <pt x="1968" y="102" on="1"/>
        <pt x="1968" y="0" on="1"/>
        <pt x="1538" y="0" on="1"/>
        <pt x="1511" y="145" on="1"/>
        <pt x="1501" y="145" on="1"/>
        <pt x="1451" y="54" on="0"/>
        <pt x="1315" y="-27" on="0"/>
        <pt x="1188" y="-27" on="1"/>
        <pt x="949" y="-27" on="0"/>
        <pt x="879" y="145" on="1"/>
        <pt x="860" y="145" on="1"/>
        <pt x="812" y="56" on="0"/>
        <pt x="668" y="-27" on="0"/>
        <pt x="535" y="-27" on="1"/>
        <pt x="197" y="-27" on="0"/>
        <pt x="197" y="369" on="1"/>
        <pt x="197" y="844" on="1"/>
        <pt x="197" y="928" on="0"/>
        <pt x="142" y="989" on="0"/>
        <pt x="61" y="989" on="1"/>
        <pt x="53" y="989" on="1"/>
        <pt x="53" y="1098" on="1"/>
        <pt x="508" y="1098" on="1"/>
        <pt x="508" y="424" on="1"/>
        <pt x="508" y="279" on="0"/>
        <pt x="589" y="147" on="0"/>
        <pt x="672" y="147" on="1"/>
        <pt x="757" y="147" on="0"/>
        <pt x="850" y="301" on="0"/>
        <pt x="850" y="440" on="1"/>
        <pt x="850" y="844" on="1"/>
        <pt x="850" y="928" on="0"/>
        <pt x="795" y="989" on="0"/>
        <pt x="715" y="989" on="1"/>
        <pt x="707" y="989" on="1"/>
        <pt x="707" y="1098" on="1"/>
      </contour>
    </TTGlyph>
    <TTGlyph name="uni2D0E" xMin="-20" yMin="-20" xMax="1366" yMax="1124">
      <contour>
        <pt x="559" y="442" on="1"/>
        <pt x="559" y="290" on="0"/>
        <pt x="635" y="154" on="0"/>
        <pt x="715" y="154" on="1"/>
        <pt x="901" y="154" on="0"/>
        <pt x="901" y="465" on="1"/>
        <pt x="901" y="858" on="1"/>
        <pt x="901" y="907" on="0"/>
        <pt x="872" y="964" on="0"/>
        <pt x="817" y="989" on="0"/>
        <pt x="756" y="989" on="1"/>
        <pt x="748" y="989" on="1"/>
        <pt x="748" y="1098" on="1"/>
        <pt x="1212" y="1098" on="1"/>
        <pt x="1212" y="238" on="1"/>
        <pt x="1212" y="189" on="0"/>
        <pt x="1239" y="133" on="0"/>
        <pt x="1291" y="109" on="0"/>
        <pt x="1350" y="109" on="1"/>
        <pt x="1366" y="109" on="1"/>
        <pt x="1366" y="0" on="1"/>
        <pt x="958" y="0" on="1"/>
        <pt x="913" y="145" on="1"/>
        <pt x="903" y="145" on="1"/>
        <pt x="852" y="59" on="0"/>
        <pt x="707" y="-20" on="0"/>
        <pt x="580" y="-20" on="1"/>
        <pt x="248" y="-20" on="0"/>
        <pt x="248" y="385" on="1"/>
        <pt x="248" y="799" on="1"/>
        <pt x="248" y="891" on="0"/>
        <pt x="189" y="981" on="0"/>
        <pt x="125" y="981" on="1"/>
        <pt x="54" y="981" on="0"/>
        <pt x="-20" y="958" on="1"/>
        <pt x="-20" y="1073" on="1"/>
        <pt x="38" y="1098" on="0"/>
        <pt x="193" y="1124" on="0"/>
        <pt x="260" y="1124" on="1"/>
        <pt x="417" y="1124" on="0"/>
        <pt x="559" y="974" on="0"/>
        <pt x="559" y="807" on="1"/>
      </contour>
    </TTGlyph>
    <TTGlyph name="uni2D0F" xMin="-20" yMin="-502" xMax="1327" yMax="1124">
      <contour>
        <pt x="1198" y="-502" on="1"/>
        <pt x="1056" y="-393" on="0"/>
        <pt x="901" y="-133" on="0"/>
        <pt x="901" y="12" on="1"/>
        <pt x="901" y="77" on="0"/>
        <pt x="913" y="145" on="1"/>
        <pt x="903" y="145" on="1"/>
        <pt x="852" y="59" on="0"/>
        <pt x="707" y="-20" on="0"/>
        <pt x="580" y="-20" on="1"/>
        <pt x="248" y="-20" on="0"/>
        <pt x="248" y="385" on="1"/>
        <pt x="248" y="799" on="1"/>
        <pt x="248" y="891" on="0"/>
        <pt x="189" y="981" on="0"/>
        <pt x="125" y="981" on="1"/>
        <pt x="54" y="981" on="0"/>
        <pt x="-20" y="958" on="1"/>
        <pt x="-20" y="1073" on="1"/>
        <pt x="38" y="1098" on="0"/>
        <pt x="193" y="1124" on="0"/>
        <pt x="260" y="1124" on="1"/>
        <pt x="417" y="1124" on="0"/>
        <pt x="559" y="974" on="0"/>
        <pt x="559" y="807" on="1"/>
        <pt x="559" y="442" on="1"/>
        <pt x="559" y="290" on="0"/>
        <pt x="635" y="154" on="0"/>
        <pt x="715" y="154" on="1"/>
        <pt x="901" y="154" on="0"/>
        <pt x="901" y="465" on="1"/>
        <pt x="901" y="858" on="1"/>
        <pt x="901" y="907" on="0"/>
        <pt x="872" y="964" on="0"/>
        <pt x="817" y="989" on="0"/>
        <pt x="756" y="989" on="1"/>
        <pt x="748" y="989" on="1"/>
        <pt x="748" y="1098" on="1"/>
        <pt x="1212" y="1098" on="1"/>
        <pt x="1212" y="137" on="1"/>
        <pt x="1212" y="-70" on="0"/>
        <pt x="1262" y="-307" on="0"/>
        <pt x="1327" y="-399" on="1"/>
      </contour>
    </TTGlyph>
    <TTGlyph name="uni2D10" xMin="53" yMin="-20" xMax="1958" yMax="1556">
      <contour>
        <pt x="1161" y="1219" on="1"/>
        <pt x="1161" y="1134" on="0"/>
        <pt x="1145" y="958" on="1"/>
        <pt x="1163" y="958" on="1"/>
        <pt x="1197" y="1022" on="0"/>
        <pt x="1278" y="1093" on="0"/>
        <pt x="1381" y="1124" on="0"/>
        <pt x="1477" y="1124" on="1"/>
        <pt x="1815" y="1124" on="0"/>
        <pt x="1815" y="729" on="1"/>
        <pt x="1815" y="254" on="1"/>
        <pt x="1815" y="170" on="0"/>
        <pt x="1870" y="109" on="0"/>
        <pt x="1950" y="109" on="1"/>
        <pt x="1958" y="109" on="1"/>
        <pt x="1958" y="0" on="1"/>
        <pt x="1503" y="0" on="1"/>
        <pt x="1503" y="674" on="1"/>
        <pt x="1503" y="820" on="0"/>
        <pt x="1422" y="950" on="0"/>
        <pt x="1339" y="950" on="1"/>
        <pt x="1253" y="950" on="0"/>
        <pt x="1161" y="788" on="0"/>
        <pt x="1161" y="633" on="1"/>
        <pt x="1161" y="242" on="1"/>
        <pt x="1161" y="171" on="0"/>
        <pt x="1222" y="109" on="0"/>
        <pt x="1307" y="109" on="1"/>
        <pt x="1315" y="109" on="1"/>
        <pt x="1315" y="0" on="1"/>
        <pt x="907" y="0" on="1"/>
        <pt x="862" y="145" on="1"/>
        <pt x="852" y="145" on="1"/>
        <pt x="801" y="59" on="0"/>
        <pt x="656" y="-20" on="0"/>
        <pt x="528" y="-20" on="1"/>
        <pt x="197" y="-20" on="0"/>
        <pt x="197" y="385" on="1"/>
        <pt x="197" y="844" on="1"/>
        <pt x="197" y="926" on="0"/>
        <pt x="142" y="989" on="0"/>
        <pt x="61" y="989" on="1"/>
        <pt x="53" y="989" on="1"/>
        <pt x="53" y="1098" on="1"/>
        <pt x="508" y="1098" on="1"/>
        <pt x="508" y="442" on="1"/>
        <pt x="508" y="290" on="0"/>
        <pt x="584" y="154" on="0"/>
        <pt x="664" y="154" on="1"/>
        <pt x="850" y="154" on="0"/>
        <pt x="850" y="465" on="1"/>
        <pt x="850" y="1317" on="1"/>
        <pt x="850" y="1366" on="0"/>
        <pt x="821" y="1423" on="0"/>
        <pt x="764" y="1448" on="0"/>
        <pt x="705" y="1448" on="1"/>
        <pt x="696" y="1448" on="1"/>
        <pt x="696" y="1556" on="1"/>
        <pt x="1161" y="1556" on="1"/>
      </contour>
    </TTGlyph>
    <TTGlyph name="uni2D11" xMin="41" yMin="-20" xMax="1303" yMax="1556">
      <contour>
        <pt x="895" y="0" on="1"/>
        <pt x="850" y="145" on="1"/>
        <pt x="840" y="145" on="1"/>
        <pt x="789" y="59" on="0"/>
        <pt x="644" y="-20" on="0"/>
        <pt x="516" y="-20" on="1"/>
        <pt x="184" y="-20" on="0"/>
        <pt x="184" y="385" on="1"/>
        <pt x="184" y="1303" on="1"/>
        <pt x="184" y="1385" on="0"/>
        <pt x="129" y="1448" on="0"/>
        <pt x="49" y="1448" on="1"/>
        <pt x="41" y="1448" on="1"/>
        <pt x="41" y="1556" on="1"/>
        <pt x="496" y="1556" on="1"/>
        <pt x="496" y="442" on="1"/>
        <pt x="496" y="287" on="0"/>
        <pt x="572" y="154" on="0"/>
        <pt x="651" y="154" on="1"/>
        <pt x="838" y="154" on="0"/>
        <pt x="838" y="465" on="1"/>
        <pt x="838" y="858" on="1"/>
        <pt x="838" y="907" on="0"/>
        <pt x="809" y="964" on="0"/>
        <pt x="753" y="989" on="0"/>
        <pt x="692" y="989" on="1"/>
        <pt x="684" y="989" on="1"/>
        <pt x="684" y="1098" on="1"/>
        <pt x="1149" y="1098" on="1"/>
        <pt x="1149" y="238" on="1"/>
        <pt x="1149" y="189" on="0"/>
        <pt x="1174" y="134" on="0"/>
        <pt x="1227" y="109" on="0"/>
        <pt x="1286" y="109" on="1"/>
        <pt x="1303" y="109" on="1"/>
        <pt x="1303" y="0" on="1"/>
      </contour>
    </TTGlyph>
    <TTGlyph name="uni2D12" xMin="205" yMin="-492" xMax="1233" yMax="1124">
      <contour>
        <pt x="504" y="145" on="1"/>
        <pt x="516" y="67" on="0"/>
        <pt x="516" y="35" on="1"/>
        <pt x="516" y="8" on="1"/>
        <pt x="516" y="-188" on="0"/>
        <pt x="617" y="-367" on="0"/>
        <pt x="733" y="-367" on="1"/>
        <pt x="805" y="-367" on="0"/>
        <pt x="888" y="-313" on="0"/>
        <pt x="928" y="-213" on="0"/>
        <pt x="928" y="-102" on="1"/>
        <pt x="1192" y="-102" on="0"/>
        <pt x="1192" y="-266" on="1"/>
        <pt x="1192" y="-372" on="0"/>
        <pt x="945" y="-492" on="0"/>
        <pt x="731" y="-492" on="1"/>
        <pt x="205" y="-492" on="0"/>
        <pt x="205" y="88" on="1"/>
        <pt x="205" y="549" on="1"/>
        <pt x="205" y="824" on="0"/>
        <pt x="478" y="1124" on="0"/>
        <pt x="719" y="1124" on="1"/>
        <pt x="878" y="1124" on="0"/>
        <pt x="1110" y="990" on="0"/>
        <pt x="1233" y="732" on="0"/>
        <pt x="1233" y="549" on="1"/>
        <pt x="1233" y="263" on="0"/>
        <pt x="1026" y="-20" on="0"/>
        <pt x="813" y="-20" on="1"/>
        <pt x="704" y="-20" on="0"/>
        <pt x="561" y="59" on="0"/>
        <pt x="514" y="145" on="1"/>
      </contour>
      <contour>
        <pt x="516" y="553" on="1"/>
        <pt x="516" y="327" on="0"/>
        <pt x="615" y="133" on="0"/>
        <pt x="727" y="133" on="1"/>
        <pt x="828" y="133" on="0"/>
        <pt x="918" y="351" on="0"/>
        <pt x="918" y="555" on="1"/>
        <pt x="918" y="775" on="0"/>
        <pt x="827" y="993" on="0"/>
        <pt x="717" y="993" on="1"/>
        <pt x="610" y="993" on="0"/>
        <pt x="516" y="784" on="0"/>
      </contour>
    </TTGlyph>
    <TTGlyph name="uni2D13" xMin="53" yMin="-502" xMax="1929" yMax="1556">
      <contour>
        <pt x="1501" y="145" on="1"/>
        <pt x="1451" y="54" on="0"/>
        <pt x="1315" y="-27" on="0"/>
        <pt x="1188" y="-27" on="1"/>
        <pt x="949" y="-27" on="0"/>
        <pt x="879" y="145" on="1"/>
        <pt x="860" y="145" on="1"/>
        <pt x="812" y="56" on="0"/>
        <pt x="668" y="-27" on="0"/>
        <pt x="535" y="-27" on="1"/>
        <pt x="197" y="-27" on="0"/>
        <pt x="197" y="369" on="1"/>
        <pt x="197" y="844" on="1"/>
        <pt x="197" y="928" on="0"/>
        <pt x="142" y="989" on="0"/>
        <pt x="61" y="989" on="1"/>
        <pt x="53" y="989" on="1"/>
        <pt x="53" y="1098" on="1"/>
        <pt x="508" y="1098" on="1"/>
        <pt x="508" y="424" on="1"/>
        <pt x="508" y="279" on="0"/>
        <pt x="589" y="147" on="0"/>
        <pt x="672" y="147" on="1"/>
        <pt x="757" y="147" on="0"/>
        <pt x="850" y="301" on="0"/>
        <pt x="850" y="440" on="1"/>
        <pt x="850" y="844" on="1"/>
        <pt x="850" y="928" on="0"/>
        <pt x="795" y="989" on="0"/>
        <pt x="715" y="989" on="1"/>
        <pt x="707" y="989" on="1"/>
        <pt x="707" y="1098" on="1"/>
        <pt x="1161" y="1098" on="1"/>
        <pt x="1161" y="424" on="1"/>
        <pt x="1161" y="279" on="0"/>
        <pt x="1242" y="147" on="0"/>
        <pt x="1325" y="147" on="1"/>
        <pt x="1413" y="147" on="0"/>
        <pt x="1503" y="313" on="0"/>
        <pt x="1503" y="465" on="1"/>
        <pt x="1503" y="1317" on="1"/>
        <pt x="1503" y="1366" on="0"/>
        <pt x="1474" y="1423" on="0"/>
        <pt x="1419" y="1448" on="0"/>
        <pt x="1358" y="1448" on="1"/>
        <pt x="1350" y="1448" on="1"/>
        <pt x="1350" y="1556" on="1"/>
        <pt x="1815" y="1556" on="1"/>
        <pt x="1815" y="137" on="1"/>
        <pt x="1815" y="-85" on="0"/>
        <pt x="1862" y="-305" on="0"/>
        <pt x="1929" y="-399" on="1"/>
        <pt x="1800" y="-502" on="1"/>
        <pt x="1658" y="-393" on="0"/>
        <pt x="1503" y="-133" on="0"/>
        <pt x="1503" y="12" on="1"/>
        <pt x="1503" y="100" on="0"/>
        <pt x="1511" y="145" on="1"/>
      </contour>
    </TTGlyph>
    <TTGlyph name="uni2D14" xMin="94" yMin="-502" xMax="1839" yMax="1124">
      <contour>
        <pt x="1237" y="-399" on="1"/>
        <pt x="1108" y="-502" on="1"/>
        <pt x="964" y="-392" on="0"/>
        <pt x="811" y="-131" on="0"/>
        <pt x="811" y="10" on="1"/>
        <pt x="811" y="75" on="0"/>
        <pt x="823" y="143" on="1"/>
        <pt x="813" y="143" on="1"/>
        <pt x="715" y="-20" on="0"/>
        <pt x="508" y="-20" on="1"/>
        <pt x="94" y="-20" on="0"/>
        <pt x="94" y="553" on="1"/>
        <pt x="94" y="830" on="0"/>
        <pt x="338" y="1124" on="0"/>
        <pt x="569" y="1124" on="1"/>
        <pt x="710" y="1124" on="0"/>
        <pt x="902" y="1010" on="0"/>
        <pt x="961" y="893" on="1"/>
        <pt x="1027" y="1014" on="0"/>
        <pt x="1219" y="1124" on="0"/>
        <pt x="1360" y="1124" on="1"/>
        <pt x="1593" y="1124" on="0"/>
        <pt x="1839" y="830" on="0"/>
        <pt x="1839" y="553" on="1"/>
        <pt x="1839" y="-20" on="0"/>
        <pt x="1425" y="-20" on="1"/>
        <pt x="1222" y="-20" on="0"/>
        <pt x="1120" y="143" on="1"/>
        <pt x="1110" y="143" on="1"/>
        <pt x="1116" y="93" on="1"/>
        <pt x="1122" y="8" on="1"/>
        <pt x="1122" y="-236" on="0"/>
      </contour>
      <contour>
        <pt x="811" y="549" on="1"/>
        <pt x="811" y="769" on="0"/>
        <pt x="721" y="993" on="0"/>
        <pt x="610" y="993" on="1"/>
        <pt x="507" y="993" on="0"/>
        <pt x="413" y="790" on="0"/>
        <pt x="410" y="549" on="1"/>
        <pt x="410" y="344" on="0"/>
        <pt x="497" y="131" on="0"/>
        <pt x="600" y="131" on="1"/>
        <pt x="710" y="131" on="0"/>
        <pt x="811" y="322" on="0"/>
      </contour>
      <contour>
        <pt x="1122" y="549" on="1"/>
        <pt x="1122" y="322" on="0"/>
        <pt x="1223" y="131" on="0"/>
        <pt x="1333" y="131" on="1"/>
        <pt x="1436" y="131" on="0"/>
        <pt x="1524" y="343" on="0"/>
        <pt x="1524" y="549" on="1"/>
        <pt x="1522" y="788" on="0"/>
        <pt x="1426" y="993" on="0"/>
        <pt x="1323" y="993" on="1"/>
        <pt x="1213" y="993" on="0"/>
        <pt x="1122" y="769" on="0"/>
      </contour>
    </TTGlyph>
    <TTGlyph name="uni2D15" xMin="37" yMin="-502" xMax="1270" yMax="1556">
      <contour>
        <pt x="809" y="838" on="1"/>
        <pt x="858" y="864" on="0"/>
        <pt x="1041" y="911" on="0"/>
        <pt x="1104" y="911" on="1"/>
        <pt x="1181" y="911" on="0"/>
        <pt x="1270" y="828" on="0"/>
        <pt x="1270" y="760" on="1"/>
        <pt x="1270" y="691" on="0"/>
        <pt x="1182" y="599" on="0"/>
        <pt x="1104" y="590" on="1"/>
        <pt x="1097" y="652" on="0"/>
        <pt x="996" y="713" on="0"/>
        <pt x="872" y="713" on="1"/>
        <pt x="809" y="709" on="1"/>
        <pt x="809" y="74" on="1"/>
        <pt x="809" y="-106" on="0"/>
        <pt x="854" y="-301" on="0"/>
        <pt x="924" y="-399" on="1"/>
        <pt x="795" y="-502" on="1"/>
        <pt x="643" y="-387" on="0"/>
        <pt x="498" y="-102" on="0"/>
        <pt x="498" y="92" on="1"/>
        <pt x="498" y="664" on="1"/>
        <pt x="438" y="633" on="0"/>
        <pt x="278" y="590" on="0"/>
        <pt x="203" y="590" on="1"/>
        <pt x="125" y="590" on="0"/>
        <pt x="37" y="673" on="0"/>
        <pt x="37" y="741" on="1"/>
        <pt x="37" y="811" on="0"/>
        <pt x="124" y="902" on="0"/>
        <pt x="203" y="911" on="1"/>
        <pt x="209" y="850" on="0"/>
        <pt x="312" y="788" on="0"/>
        <pt x="434" y="788" on="1"/>
        <pt x="498" y="793" on="1"/>
        <pt x="498" y="1323" on="1"/>
        <pt x="498" y="1448" on="0"/>
        <pt x="352" y="1448" on="1"/>
        <pt x="328" y="1448" on="1"/>
        <pt x="328" y="1556" on="1"/>
        <pt x="809" y="1556" on="1"/>
      </contour>
    </TTGlyph>
    <TTGlyph name="uni2D16" xMin="41" yMin="0" xMax="1313" yMax="1124">
      <contour>
        <pt x="858" y="0" on="1"/>
        <pt x="858" y="674" on="1"/>
        <pt x="858" y="820" on="0"/>
        <pt x="777" y="950" on="0"/>
        <pt x="694" y="950" on="1"/>
        <pt x="608" y="950" on="0"/>
        <pt x="516" y="788" on="0"/>
        <pt x="516" y="633" on="1"/>
        <pt x="516" y="242" on="1"/>
        <pt x="516" y="170" on="0"/>
        <pt x="575" y="109" on="0"/>
        <pt x="659" y="109" on="1"/>
        <pt x="670" y="109" on="1"/>
        <pt x="670" y="0" on="1"/>
        <pt x="41" y="0" on="1"/>
        <pt x="41" y="109" on="1"/>
        <pt x="49" y="109" on="1"/>
        <pt x="114" y="109" on="0"/>
        <pt x="174" y="136" on="0"/>
        <pt x="205" y="198" on="0"/>
        <pt x="205" y="250" on="1"/>
        <pt x="205" y="856" on="1"/>
        <pt x="205" y="928" on="0"/>
        <pt x="146" y="989" on="0"/>
        <pt x="61" y="989" on="1"/>
        <pt x="51" y="989" on="1"/>
        <pt x="51" y="1098" on="1"/>
        <pt x="481" y="1098" on="1"/>
        <pt x="508" y="952" on="1"/>
        <pt x="518" y="952" on="1"/>
        <pt x="552" y="1017" on="0"/>
        <pt x="635" y="1091" on="0"/>
        <pt x="737" y="1124" on="0"/>
        <pt x="831" y="1124" on="1"/>
        <pt x="1169" y="1124" on="0"/>
        <pt x="1169" y="729" on="1"/>
        <pt x="1169" y="254" on="1"/>
        <pt x="1169" y="170" on="0"/>
        <pt x="1224" y="109" on="0"/>
        <pt x="1305" y="109" on="1"/>
        <pt x="1313" y="109" on="1"/>
        <pt x="1313" y="0" on="1"/>
      </contour>
    </TTGlyph>
    <TTGlyph name="uni2D17" xMin="53" yMin="-502" xMax="1276" yMax="1098">
      <contour>
        <pt x="850" y="858" on="1"/>
        <pt x="850" y="907" on="0"/>
        <pt x="821" y="964" on="0"/>
        <pt x="764" y="989" on="0"/>
        <pt x="705" y="989" on="1"/>
        <pt x="696" y="989" on="1"/>
        <pt x="696" y="1098" on="1"/>
        <pt x="1161" y="1098" on="1"/>
        <pt x="1161" y="137" on="1"/>
        <pt x="1161" y="-87" on="0"/>
        <pt x="1210" y="-306" on="0"/>
        <pt x="1276" y="-399" on="1"/>
        <pt x="1147" y="-502" on="1"/>
        <pt x="1005" y="-393" on="0"/>
        <pt x="850" y="-133" on="0"/>
        <pt x="850" y="12" on="1"/>
        <pt x="850" y="77" on="0"/>
        <pt x="862" y="145" on="1"/>
        <pt x="852" y="145" on="1"/>
        <pt x="801" y="59" on="0"/>
        <pt x="656" y="-20" on="0"/>
        <pt x="528" y="-20" on="1"/>
        <pt x="197" y="-20" on="0"/>
        <pt x="197" y="385" on="1"/>
        <pt x="197" y="844" on="1"/>
        <pt x="197" y="926" on="0"/>
        <pt x="142" y="989" on="0"/>
        <pt x="61" y="989" on="1"/>
        <pt x="53" y="989" on="1"/>
        <pt x="53" y="1098" on="1"/>
        <pt x="508" y="1098" on="1"/>
        <pt x="508" y="442" on="1"/>
        <pt x="508" y="290" on="0"/>
        <pt x="584" y="154" on="0"/>
        <pt x="664" y="154" on="1"/>
        <pt x="850" y="154" on="0"/>
        <pt x="850" y="465" on="1"/>
      </contour>
    </TTGlyph>
    <TTGlyph name="uni2D18" xMin="53" yMin="-492" xMax="1161" yMax="1098">
      <contour>
        <pt x="852" y="145" on="1"/>
        <pt x="801" y="59" on="0"/>
        <pt x="656" y="-20" on="0"/>
        <pt x="528" y="-20" on="1"/>
        <pt x="197" y="-20" on="0"/>
        <pt x="197" y="385" on="1"/>
        <pt x="197" y="844" on="1"/>
        <pt x="197" y="926" on="0"/>
        <pt x="142" y="989" on="0"/>
        <pt x="61" y="989" on="1"/>
        <pt x="53" y="989" on="1"/>
        <pt x="53" y="1098" on="1"/>
        <pt x="508" y="1098" on="1"/>
        <pt x="508" y="442" on="1"/>
        <pt x="508" y="290" on="0"/>
        <pt x="584" y="154" on="0"/>
        <pt x="664" y="154" on="1"/>
        <pt x="850" y="154" on="0"/>
        <pt x="850" y="465" on="1"/>
        <pt x="850" y="858" on="1"/>
        <pt x="850" y="907" on="0"/>
        <pt x="821" y="964" on="0"/>
        <pt x="764" y="989" on="0"/>
        <pt x="705" y="989" on="1"/>
        <pt x="696" y="989" on="1"/>
        <pt x="696" y="1098" on="1"/>
        <pt x="1161" y="1098" on="1"/>
        <pt x="1161" y="88" on="1"/>
        <pt x="1161" y="-197" on="0"/>
        <pt x="903" y="-492" on="0"/>
        <pt x="651" y="-492" on="1"/>
        <pt x="514" y="-492" on="0"/>
        <pt x="309" y="-435" on="0"/>
        <pt x="201" y="-331" on="0"/>
        <pt x="201" y="-266" on="1"/>
        <pt x="201" y="-102" on="0"/>
        <pt x="465" y="-102" on="1"/>
        <pt x="465" y="-241" on="0"/>
        <pt x="556" y="-367" on="0"/>
        <pt x="647" y="-367" on="1"/>
        <pt x="751" y="-367" on="0"/>
        <pt x="850" y="-183" on="0"/>
        <pt x="850" y="8" on="1"/>
        <pt x="850" y="35" on="1"/>
        <pt x="850" y="67" on="0"/>
        <pt x="862" y="145" on="1"/>
      </contour>
    </TTGlyph>
    <TTGlyph name="uni2D19" xMin="35" yMin="-502" xMax="1313" yMax="1556">
      <contour>
        <pt x="516" y="74" on="1"/>
        <pt x="516" y="-106" on="0"/>
        <pt x="561" y="-301" on="0"/>
        <pt x="631" y="-399" on="1"/>
        <pt x="502" y="-502" on="1"/>
        <pt x="351" y="-386" on="0"/>
        <pt x="205" y="-102" on="0"/>
        <pt x="205" y="92" on="1"/>
        <pt x="205" y="1323" on="1"/>
        <pt x="205" y="1448" on="0"/>
        <pt x="59" y="1448" on="1"/>
        <pt x="35" y="1448" on="1"/>
        <pt x="35" y="1556" on="1"/>
        <pt x="516" y="1556" on="1"/>
        <pt x="516" y="1219" on="1"/>
        <pt x="516" y="1134" on="0"/>
        <pt x="500" y="958" on="1"/>
        <pt x="518" y="958" on="1"/>
        <pt x="552" y="1022" on="0"/>
        <pt x="633" y="1093" on="0"/>
        <pt x="736" y="1124" on="0"/>
        <pt x="831" y="1124" on="1"/>
        <pt x="1169" y="1124" on="0"/>
        <pt x="1169" y="729" on="1"/>
        <pt x="1169" y="254" on="1"/>
        <pt x="1169" y="170" on="0"/>
        <pt x="1224" y="109" on="0"/>
        <pt x="1305" y="109" on="1"/>
        <pt x="1313" y="109" on="1"/>
        <pt x="1313" y="0" on="1"/>
        <pt x="858" y="0" on="1"/>
        <pt x="858" y="674" on="1"/>
        <pt x="858" y="820" on="0"/>
        <pt x="777" y="950" on="0"/>
        <pt x="694" y="950" on="1"/>
        <pt x="608" y="950" on="0"/>
        <pt x="516" y="788" on="0"/>
        <pt x="516" y="633" on="1"/>
      </contour>
    </TTGlyph>
    <TTGlyph name="uni2D1A" xMin="51" yMin="-492" xMax="1313" yMax="1124">
      <contour>
        <pt x="516" y="8" on="1"/>
        <pt x="516" y="-182" on="0"/>
        <pt x="604" y="-367" on="0"/>
        <pt x="696" y="-367" on="1"/>
        <pt x="777" y="-367" on="0"/>
        <pt x="858" y="-241" on="0"/>
        <pt x="858" y="-102" on="1"/>
        <pt x="1122" y="-102" on="0"/>
        <pt x="1122" y="-266" on="1"/>
        <pt x="1122" y="-331" on="0"/>
        <pt x="1018" y="-435" on="0"/>
        <pt x="824" y="-492" on="0"/>
        <pt x="692" y="-492" on="1"/>
        <pt x="450" y="-492" on="0"/>
        <pt x="205" y="-194" on="0"/>
        <pt x="205" y="88" on="1"/>
        <pt x="205" y="856" on="1"/>
        <pt x="205" y="928" on="0"/>
        <pt x="146" y="989" on="0"/>
        <pt x="61" y="989" on="1"/>
        <pt x="51" y="989" on="1"/>
        <pt x="51" y="1098" on="1"/>
        <pt x="481" y="1098" on="1"/>
        <pt x="508" y="952" on="1"/>
        <pt x="518" y="952" on="1"/>
        <pt x="552" y="1017" on="0"/>
        <pt x="635" y="1091" on="0"/>
        <pt x="737" y="1124" on="0"/>
        <pt x="831" y="1124" on="1"/>
        <pt x="1169" y="1124" on="0"/>
        <pt x="1169" y="729" on="1"/>
        <pt x="1169" y="254" on="1"/>
        <pt x="1169" y="170" on="0"/>
        <pt x="1224" y="109" on="0"/>
        <pt x="1305" y="109" on="1"/>
        <pt x="1313" y="109" on="1"/>
        <pt x="1313" y="0" on="1"/>
        <pt x="858" y="0" on="1"/>
        <pt x="858" y="674" on="1"/>
        <pt x="858" y="820" on="0"/>
        <pt x="777" y="950" on="0"/>
        <pt x="694" y="950" on="1"/>
        <pt x="608" y="950" on="0"/>
        <pt x="516" y="788" on="0"/>
        <pt x="516" y="633" on="1"/>
      </contour>
    </TTGlyph>
    <TTGlyph name="uni2D1B" xMin="94" yMin="-20" xMax="1919" yMax="1556">
      <contour>
        <pt x="811" y="551" on="1"/>
        <pt x="811" y="777" on="0"/>
        <pt x="711" y="971" on="0"/>
        <pt x="600" y="971" on="1"/>
        <pt x="501" y="971" on="0"/>
        <pt x="410" y="763" on="0"/>
        <pt x="410" y="549" on="1"/>
        <pt x="410" y="331" on="0"/>
        <pt x="503" y="109" on="0"/>
        <pt x="610" y="109" on="1"/>
        <pt x="714" y="109" on="0"/>
        <pt x="811" y="315" on="0"/>
      </contour>
      <contour>
        <pt x="1122" y="553" on="1"/>
        <pt x="1122" y="264" on="0"/>
        <pt x="858" y="-20" on="0"/>
        <pt x="606" y="-20" on="1"/>
        <pt x="356" y="-20" on="0"/>
        <pt x="94" y="269" on="0"/>
        <pt x="94" y="547" on="1"/>
        <pt x="94" y="835" on="0"/>
        <pt x="304" y="1122" on="0"/>
        <pt x="508" y="1122" on="1"/>
        <pt x="609" y="1122" on="0"/>
        <pt x="766" y="1038" on="0"/>
        <pt x="813" y="958" on="1"/>
        <pt x="827" y="958" on="1"/>
        <pt x="811" y="1186" on="0"/>
        <pt x="811" y="1208" on="1"/>
        <pt x="811" y="1321" on="1"/>
        <pt x="811" y="1385" on="0"/>
        <pt x="740" y="1448" on="0"/>
        <pt x="645" y="1448" on="1"/>
        <pt x="629" y="1448" on="1"/>
        <pt x="629" y="1556" on="1"/>
        <pt x="1122" y="1556" on="1"/>
        <pt x="1122" y="1219" on="1"/>
        <pt x="1122" y="1134" on="0"/>
        <pt x="1106" y="958" on="1"/>
        <pt x="1124" y="958" on="1"/>
        <pt x="1158" y="1022" on="0"/>
        <pt x="1239" y="1093" on="0"/>
        <pt x="1342" y="1124" on="0"/>
        <pt x="1438" y="1124" on="1"/>
        <pt x="1776" y="1124" on="0"/>
        <pt x="1776" y="729" on="1"/>
        <pt x="1776" y="254" on="1"/>
        <pt x="1776" y="170" on="0"/>
        <pt x="1831" y="109" on="0"/>
        <pt x="1911" y="109" on="1"/>
        <pt x="1919" y="109" on="1"/>
        <pt x="1919" y="0" on="1"/>
        <pt x="1464" y="0" on="1"/>
        <pt x="1464" y="674" on="1"/>
        <pt x="1464" y="820" on="0"/>
        <pt x="1383" y="950" on="0"/>
        <pt x="1300" y="950" on="1"/>
        <pt x="1214" y="950" on="0"/>
        <pt x="1122" y="788" on="0"/>
        <pt x="1122" y="633" on="1"/>
      </contour>
    </TTGlyph>
    <TTGlyph name="uni2D1C" xMin="51" yMin="-502" xMax="1966" yMax="1124">
      <contour>
        <pt x="516" y="74" on="1"/>
        <pt x="516" y="-106" on="0"/>
        <pt x="561" y="-301" on="0"/>
        <pt x="631" y="-399" on="1"/>
        <pt x="502" y="-502" on="1"/>
        <pt x="351" y="-386" on="0"/>
        <pt x="205" y="-102" on="0"/>
        <pt x="205" y="92" on="1"/>
        <pt x="205" y="862" on="1"/>
        <pt x="205" y="933" on="0"/>
        <pt x="144" y="995" on="0"/>
        <pt x="59" y="995" on="1"/>
        <pt x="51" y="995" on="1"/>
        <pt x="51" y="1098" on="1"/>
        <pt x="481" y="1098" on="1"/>
        <pt x="508" y="952" on="1"/>
        <pt x="518" y="952" on="1"/>
        <pt x="552" y="1017" on="0"/>
        <pt x="635" y="1091" on="0"/>
        <pt x="737" y="1124" on="0"/>
        <pt x="831" y="1124" on="1"/>
        <pt x="1071" y="1124" on="0"/>
        <pt x="1141" y="952" on="1"/>
        <pt x="1159" y="952" on="1"/>
        <pt x="1193" y="1016" on="0"/>
        <pt x="1280" y="1090" on="0"/>
        <pt x="1389" y="1124" on="0"/>
        <pt x="1485" y="1124" on="1"/>
        <pt x="1823" y="1124" on="0"/>
        <pt x="1823" y="729" on="1"/>
        <pt x="1823" y="254" on="1"/>
        <pt x="1823" y="170" on="0"/>
        <pt x="1878" y="109" on="0"/>
        <pt x="1958" y="109" on="1"/>
        <pt x="1966" y="109" on="1"/>
        <pt x="1966" y="0" on="1"/>
        <pt x="1511" y="0" on="1"/>
        <pt x="1511" y="674" on="1"/>
        <pt x="1511" y="806" on="0"/>
        <pt x="1438" y="950" on="0"/>
        <pt x="1348" y="950" on="1"/>
        <pt x="1263" y="950" on="0"/>
        <pt x="1169" y="794" on="0"/>
        <pt x="1169" y="657" on="1"/>
        <pt x="1169" y="254" on="1"/>
        <pt x="1169" y="170" on="0"/>
        <pt x="1224" y="109" on="0"/>
        <pt x="1305" y="109" on="1"/>
        <pt x="1313" y="109" on="1"/>
        <pt x="1313" y="0" on="1"/>
        <pt x="858" y="0" on="1"/>
        <pt x="858" y="674" on="1"/>
        <pt x="858" y="820" on="0"/>
        <pt x="777" y="950" on="0"/>
        <pt x="694" y="950" on="1"/>
        <pt x="608" y="950" on="0"/>
        <pt x="516" y="788" on="0"/>
        <pt x="516" y="633" on="1"/>
      </contour>
    </TTGlyph>
</ttFont>
